{
.appVersion = "1028";
copyright = "Copyright © 2017 by Nikifore Irubakidze, Ia Makhatadze. All rights reserved.";
date = "2017-06-04 10:19:10 +0000";
designer = "Nikifore Irubakidze, Ia Makhatadze";
familyName = Italiuri;
featurePrefixes = (
{
automatic = 1;
code = "languagesystem DFLT dflt;\012";
name = Languagesystems;
}
);
features = (
{
automatic = 1;
code = "sub en-georgian ban-georgian by en_ban-georgian;\012";
name = dlig;
},
{
automatic = 1;
code = "sub don-georgian an-georgian by don_an-georgian.liga;\012sub vin-georgian an-georgian by vin_an-georgian.liga;\012sub las-georgian san-georgian by las_san-georgian.liga;\012sub phar-georgian rae-georgian by phar_rae-georgian.liga;\012";
name = liga;
}
);
fontMaster = (
{
alignmentZones = (
"{714, 10}",
"{326, 10}",
"{0, -10}",
"{-367, -10}"
);
ascender = 714;
capHeight = 714;
descender = -367;
guideLines = (
{
position = "{-274, 446}";
},
{
position = "{115, 137}";
}
);
id = "FD4E62BB-26D6-4FFD-A4F8-E1C01461A73C";
xHeight = 326;
}
);
glyphs = (
{
glyphname = I;
lastChange = "2017-03-07 14:21:08 +0000";
layers = (
{
layerId = "FD4E62BB-26D6-4FFD-A4F8-E1C01461A73C";
paths = (
{
closed = 1;
nodes = (
"97 744 OFFCURVE",
"97 676 CURVE SMOOTH",
"97 36 LINE SMOOTH",
"97 -27 OFFCURVE",
"157 -23 OFFCURVE",
"157 36 CURVE SMOOTH",
"157 676 LINE SMOOTH",
"157 735 OFFCURVE"
);
}
);
width = 600;
}
);
unicode = 0049;
},
{
glyphname = V;
lastChange = "2017-03-20 08:57:57 +0000";
layers = (
{
layerId = "FD4E62BB-26D6-4FFD-A4F8-E1C01461A73C";
paths = (
{
closed = 1;
nodes = (
"282 46 LINE",
"300 7 OFFCURVE",
"312 0 OFFCURVE",
"333 0 CURVE",
"353 0 OFFCURVE",
"367 6 OFFCURVE",
"383 46 CURVE SMOOTH",
"630 651 LINE SMOOTH",
"654 710 OFFCURVE",
"593 742 OFFCURVE",
"570 683 CURVE SMOOTH",
"333 74 LINE",
"95 683 LINE SMOOTH",
"72 742 OFFCURVE",
"11 710 OFFCURVE",
"35 651 CURVE SMOOTH"
);
}
);
width = 670;
}
);
unicode = 0056;
},
{
glyphname = X;
lastChange = "2017-03-20 09:02:03 +0000";
layers = (
{
layerId = "FD4E62BB-26D6-4FFD-A4F8-E1C01461A73C";
paths = (
{
closed = 1;
nodes = (
"9 8 OFFCURVE",
"62 -23 OFFCURVE",
"88 20 CURVE SMOOTH",
"256 298 LINE",
"423 20 LINE SMOOTH",
"449 -23 OFFCURVE",
"502 8 OFFCURVE",
"473 55 CURVE SMOOTH",
"290 356 LINE",
"472 658 LINE SMOOTH",
"502 708 OFFCURVE",
"453 738 OFFCURVE",
"426 694 CURVE SMOOTH",
"256 413 LINE",
"85 694 LINE SMOOTH",
"58 738 OFFCURVE",
"9 708 OFFCURVE",
"39 658 CURVE SMOOTH",
"221 356 LINE",
"38 55 LINE SMOOTH"
);
}
);
width = 511;
}
);
unicode = 0058;
},
{
color = 3;
glyphname = "an-georgian";
lastChange = "2017-03-21 06:44:11 +0000";
layers = (
{
background = {
paths = (
{
closed = 1;
nodes = (
"31 222 OFFCURVE",
"37 262 OFFCURVE",
"66 262 CURVE SMOOTH",
"82 262 OFFCURVE",
"95 248 OFFCURVE",
"91 214 CURVE",
"91 206 OFFCURVE",
"79 41 OFFCURVE",
"190 40 CURVE",
"209 40 OFFCURVE",
"277 41 OFFCURVE",
"286 120 CURVE",
"296 172 OFFCURVE",
"264 225 OFFCURVE",
"196 270 CURVE",
"196 270 OFFCURVE",
"93 333 OFFCURVE",
"129 418 CURVE",
"148 460 OFFCURVE",
"168 460 OFFCURVE",
"178 460 CURVE SMOOTH",
"200 459 OFFCURVE",
"200 438 OFFCURVE",
"189 418 CURVE",
"189 418 OFFCURVE",
"152 360 OFFCURVE",
"229 313 CURVE",
"279 282 OFFCURVE",
"351 244 OFFCURVE",
"346 120 CURVE",
"344 71 OFFCURVE",
"299 -10 OFFCURVE",
"190 -10 CURVE",
"190 -10 OFFCURVE",
"17 -25 OFFCURVE",
"31 214 CURVE"
);
}
);
};
backgroundImage = {
crop = "{{0, 0}, {45.756, 22.644}}";
imagePath = images/gamo.jpg;
locked = "1";
transform = "{54.879, 0, 0, 54.879, -672, -488}";
};
layerId = "FD4E62BB-26D6-4FFD-A4F8-E1C01461A73C";
paths = (
{
closed = 1;
nodes = (
"53 237 OFFCURVE",
"84 237 CURVE SMOOTH",
"100 237 OFFCURVE",
"111 224 OFFCURVE",
"103 190 CURVE",
"98 165 OFFCURVE",
"84 40 OFFCURVE",
"190 40 CURVE",
"251 40 OFFCURVE",
"287 73 OFFCURVE",
"287 135 CURVE SMOOTH",
"287 162 OFFCURVE",
"278 198 OFFCURVE",
"250 224 CURVE SMOOTH",
"195 276 OFFCURVE",
"147 296 OFFCURVE",
"147 354 CURVE SMOOTH",
"147 372 OFFCURVE",
"151 405 OFFCURVE",
"183 400 CURVE SMOOTH",
"207 396 OFFCURVE",
"205 363 OFFCURVE",
"205 352 CURVE SMOOTH",
"205 291 OFFCURVE",
"352 296 OFFCURVE",
"346 120 CURVE",
"336 29 OFFCURVE",
"266 -10 OFFCURVE",
"189 -10 CURVE SMOOTH",
"100 -10 OFFCURVE",
"31 51 OFFCURVE",
"43 180 CURVE SMOOTH",
"45 202 OFFCURVE"
);
}
);
width = 376;
},
{
associatedMasterId = "FD4E62BB-26D6-4FFD-A4F8-E1C01461A73C";
layerId = "DDC65D43-21B7-4F27-8E02-E625C1D81947";
name = "Regular Dec 8 16, 13:52";
paths = (
{
closed = 1;
nodes = (
"51 222 OFFCURVE",
"57 262 OFFCURVE",
"86 262 CURVE SMOOTH",
"102 262 OFFCURVE",
"115 248 OFFCURVE",
"111 214 CURVE",
"111 206 OFFCURVE",
"99 41 OFFCURVE",
"210 40 CURVE",
"229 40 OFFCURVE",
"297 41 OFFCURVE",
"306 120 CURVE",
"316 172 OFFCURVE",
"284 225 OFFCURVE",
"216 270 CURVE",
"216 270 OFFCURVE",
"113 333 OFFCURVE",
"149 418 CURVE",
"168 460 OFFCURVE",
"223 530 OFFCURVE",
"298 545 CURVE",
"298 545 OFFCURVE",
"313 548 OFFCURVE",
"319 536 CURVE SMOOTH",
"323 528 OFFCURVE",
"322 516 OFFCURVE",
"298 505 CURVE",
"270 491 OFFCURVE",
"229 458 OFFCURVE",
"209 418 CURVE",
"209 418 OFFCURVE",
"172 360 OFFCURVE",
"249 313 CURVE",
"299 282 OFFCURVE",
"371 244 OFFCURVE",
"366 120 CURVE",
"364 71 OFFCURVE",
"319 -10 OFFCURVE",
"210 -10 CURVE",
"210 -10 OFFCURVE",
"37 -25 OFFCURVE",
"51 214 CURVE"
);
}
);
width = 416;
}
);
unicode = 10D0;
},
{
color = 3;
glyphname = "ban-georgian";
lastChange = "2017-03-20 11:05:20 +0000";
layers = (
{
background = {
paths = (
{
closed = 1;
nodes = (
"249 348 OFFCURVE",
"247 362 OFFCURVE",
"247 409 CURVE SMOOTH",
"247 469 OFFCURVE",
"251 500 OFFCURVE",
"205 524 CURVE",
"142 552 OFFCURVE",
"120 568 OFFCURVE",
"120 599 CURVE",
"120 660 OFFCURVE",
"177 691 OFFCURVE",
"217 668 CURVE",
"211 650 OFFCURVE",
"229 630 OFFCURVE",
"250 630 CURVE",
"274 630 OFFCURVE",
"294 649 OFFCURVE",
"294 673 CURVE",
"294 697 OFFCURVE",
"271 712 OFFCURVE",
"250 716 CURVE",
"169 739 OFFCURVE",
"60 708 OFFCURVE",
"60 599 CURVE",
"60 489 OFFCURVE",
"188 509 OFFCURVE",
"188 440 CURVE",
"188 388 OFFCURVE",
"187 337 OFFCURVE",
"187 336 CURVE",
"93 331 OFFCURVE",
"30 260 OFFCURVE",
"30 163 CURVE",
"30 67 OFFCURVE",
"95 -10 OFFCURVE",
"193 -10 CURVE",
"292 -10 OFFCURVE",
"357 67 OFFCURVE",
"357 163 CURVE",
"357 240 OFFCURVE",
"316 307 OFFCURVE",
"249 330 CURVE"
);
},
{
closed = 1;
nodes = (
"133 41 OFFCURVE",
"90 92 OFFCURVE",
"90 164 CURVE",
"90 234 OFFCURVE",
"133 287 OFFCURVE",
"193 287 CURVE",
"255 287 OFFCURVE",
"297 233 OFFCURVE",
"297 164 CURVE",
"297 96 OFFCURVE",
"255 39 OFFCURVE",
"193 40 CURVE"
);
}
);
};
backgroundImage = {
crop = "{{0, 0}, {8.73, 16.38}}";
imagePath = images/b.jpg;
locked = "1";
transform = "{58.328, 0, 0, 58.328, -67, -128}";
};
layerId = "FD4E62BB-26D6-4FFD-A4F8-E1C01461A73C";
paths = (
{
closed = 1;
nodes = (
"247 348 OFFCURVE",
"247 362 OFFCURVE",
"247 409 CURVE SMOOTH",
"247 565 OFFCURVE",
"120 521 OFFCURVE",
"120 605 CURVE",
"120 654 OFFCURVE",
"156 678 OFFCURVE",
"193 678 CURVE SMOOTH",
"202 678 OFFCURVE",
"211 676 OFFCURVE",
"220 673 CURVE",
"212 658 OFFCURVE",
"224 630 OFFCURVE",
"250 630 CURVE",
"274 630 OFFCURVE",
"291 647 OFFCURVE",
"291 671 CURVE",
"291 713 OFFCURVE",
"244 725 OFFCURVE",
"194 725 CURVE SMOOTH",
"126 725 OFFCURVE",
"60 693 OFFCURVE",
"60 606 CURVE",
"60 496 OFFCURVE",
"187 517 OFFCURVE",
"187 429 CURVE",
"187 367 OFFCURVE",
"187 358 OFFCURVE",
"187 336 CURVE",
"93 331 OFFCURVE",
"30 260 OFFCURVE",
"30 163 CURVE",
"30 67 OFFCURVE",
"95 -10 OFFCURVE",
"193 -10 CURVE",
"292 -10 OFFCURVE",
"357 67 OFFCURVE",
"357 163 CURVE",
"357 240 OFFCURVE",
"314 307 OFFCURVE",
"247 330 CURVE"
);
},
{
closed = 1;
nodes = (
"133 41 OFFCURVE",
"90 92 OFFCURVE",
"90 164 CURVE",
"90 234 OFFCURVE",
"133 287 OFFCURVE",
"193 287 CURVE",
"255 287 OFFCURVE",
"297 233 OFFCURVE",
"297 164 CURVE",
"297 96 OFFCURVE",
"255 39 OFFCURVE",
"193 40 CURVE"
);
}
);
width = 387;
}
);
unicode = 10D1;
},
{
color = 3;
glyphname = "gan-georgian";
lastChange = "2017-03-21 06:48:16 +0000";
layers = (
{
backgroundImage = {
crop = "{{0, 0}, {45.756, 22.644}}";
imagePath = images/gamo.jpg;
locked = "1";
transform = "{55.93, 0, 0, 55.93, -278, -488}";
};
layerId = "FD4E62BB-26D6-4FFD-A4F8-E1C01461A73C";
paths = (
{
closed = 1;
nodes = (
"300 56 OFFCURVE",
"300 55 OFFCURVE",
"300 56 CURVE",
"339 90 OFFCURVE",
"349 139 OFFCURVE",
"349 193 CURVE SMOOTH",
"349 266 OFFCURVE",
"310 336 OFFCURVE",
"219 336 CURVE",
"108 336 OFFCURVE",
"95 234 OFFCURVE",
"96 216 CURVE",
"96 193 OFFCURVE",
"112 164 OFFCURVE",
"143 164 CURVE",
"171 165 OFFCURVE",
"187 188 OFFCURVE",
"187 209 CURVE SMOOTH",
"187 224 OFFCURVE",
"179 238 OFFCURVE",
"161 243 CURVE",
"165 266 OFFCURVE",
"195 286 OFFCURVE",
"219 286 CURVE SMOOTH",
"245 286 OFFCURVE",
"289 266 OFFCURVE",
"289 193 CURVE SMOOTH",
"289 145 OFFCURVE",
"283 79 OFFCURVE",
"213 72 CURVE SMOOTH",
"125 63 OFFCURVE",
"23 8 OFFCURVE",
"23 -154 CURVE",
"23 -281 OFFCURVE",
"79 -377 OFFCURVE",
"217 -377 CURVE",
"355 -375 OFFCURVE",
"392 -271 OFFCURVE",
"392 -154 CURVE SMOOTH",
"392 8 OFFCURVE",
"314 43 OFFCURVE",
"300 54 CURVE"
);
},
{
closed = 1;
nodes = (
"109 -327 OFFCURVE",
"83 -231 OFFCURVE",
"83 -154 CURVE",
"83 -77 OFFCURVE",
"125 19 OFFCURVE",
"213 19 CURVE",
"301 19 OFFCURVE",
"332 -77 OFFCURVE",
"332 -154 CURVE",
"332 -231 OFFCURVE",
"325 -325 OFFCURVE",
"217 -327 CURVE"
);
}
);
width = 422;
}
);
unicode = 10D2;
},
{
color = 3;
glyphname = "don-georgian";
lastChange = "2017-03-21 06:58:11 +0000";
layers = (
{
backgroundImage = {
crop = "{{0, 0}, {20.898, 15.57}}";
imagePath = images/dR.jpg;
locked = "1";
transform = "{57.287, 0, 0, 57.287, 73, -420}";
};
layerId = "FD4E62BB-26D6-4FFD-A4F8-E1C01461A73C";
paths = (
{
closed = 1;
nodes = (
"535 -10 OFFCURVE",
"600 68 OFFCURVE",
"599 164 CURVE",
"599 260 OFFCURVE",
"534 338 OFFCURVE",
"435 337 CURVE",
"379 337 OFFCURVE",
"333 302 OFFCURVE",
"305 262 CURVE",
"304 262 OFFCURVE",
"305 262 OFFCURVE",
"304 262 CURVE",
"281 302 OFFCURVE",
"253 337 OFFCURVE",
"196 337 CURVE",
"91 337 OFFCURVE",
"56 252 OFFCURVE",
"56 160 CURVE",
"56 9 OFFCURVE",
"208 -95 OFFCURVE",
"213 -98 CURVE",
"213 -99 LINE",
"176 -92 OFFCURVE",
"134 -88 OFFCURVE",
"109 -90 CURVE SMOOTH",
"87 -92 OFFCURVE",
"79 -107 OFFCURVE",
"79 -120 CURVE",
"79 -139 OFFCURVE",
"98 -146 OFFCURVE",
"121 -146 CURVE",
"299 -139 OFFCURVE",
"374 -254 OFFCURVE",
"430 -345 CURVE",
"439 -361 OFFCURVE",
"452 -367 OFFCURVE",
"463 -367 CURVE SMOOTH",
"480 -367 OFFCURVE",
"494 -352 OFFCURVE",
"490 -333 CURVE",
"484 -309 OFFCURVE",
"454 -236 OFFCURVE",
"338 -139 CURVE SMOOTH",
"208 -31 OFFCURVE",
"116 43 OFFCURVE",
"116 162 CURVE",
"116 242 OFFCURVE",
"143 287 OFFCURVE",
"196 287 CURVE",
"244 287 OFFCURVE",
"268 244 OFFCURVE",
"272 163 CURVE",
"272 67 OFFCURVE",
"337 -10 OFFCURVE",
"436 -10 CURVE"
);
},
{
closed = 1;
nodes = (
"496 287 OFFCURVE",
"539 234 OFFCURVE",
"539 164 CURVE",
"539 92 OFFCURVE",
"497 41 OFFCURVE",
"436 40 CURVE",
"374 39 OFFCURVE",
"332 96 OFFCURVE",
"332 164 CURVE",
"332 233 OFFCURVE",
"374 287 OFFCURVE",
"435 287 CURVE SMOOTH"
);
}
);
width = 629;
},
{
associatedMasterId = "FD4E62BB-26D6-4FFD-A4F8-E1C01461A73C";
layerId = "77C66D85-0C73-4806-B2C2-5E7D4F959419";
name = "Regular Nov 1 16, 14:35";
paths = (
{
closed = 1;
nodes = (
"555 -10 OFFCURVE",
"620 68 OFFCURVE",
"619 164 CURVE",
"619 260 OFFCURVE",
"554 338 OFFCURVE",
"455 337 CURVE",
"398 337 OFFCURVE",
"352 311 OFFCURVE",
"324 270 CURVE",
"301 310 OFFCURVE",
"263 337 OFFCURVE",
"206 337 CURVE",
"101 337 OFFCURVE",
"44 243 OFFCURVE",
"51 151 CURVE",
"62 -1 OFFCURVE",
"229 -100 OFFCURVE",
"229 -100 CURVE",
"228 -102 LINE",
"211 -98 OFFCURVE",
"150 -91 OFFCURVE",
"138 -91 CURVE SMOOTH",
"115 -91 OFFCURVE",
"95 -111 OFFCURVE",
"95 -134 CURVE",
"95 -158 OFFCURVE",
"115 -178 OFFCURVE",
"139 -177 CURVE",
"154 -177 OFFCURVE",
"167 -169 OFFCURVE",
"175 -157 CURVE",
"410 -119 OFFCURVE",
"457 -348 OFFCURVE",
"457 -348 CURVE",
"457 -348 OFFCURVE",
"457 -348 OFFCURVE",
"457 -348 CURVE",
"458 -370 OFFCURVE",
"477 -388 OFFCURVE",
"500 -388 CURVE",
"524 -388 OFFCURVE",
"543 -369 OFFCURVE",
"543 -345 CURVE",
"543 -344 OFFCURVE",
"543 -343 OFFCURVE",
"543 -342 CURVE",
"543 -341 OFFCURVE",
"543 -340 OFFCURVE",
"543 -338 CURVE",
"537 -314 OFFCURVE",
"495 -211 OFFCURVE",
"352 -126 CURVE",
"213 -43 OFFCURVE",
"111 64 OFFCURVE",
"111 153 CURVE",
"111 233 OFFCURVE",
"153 287 OFFCURVE",
"206 287 CURVE",
"255 287 OFFCURVE",
"288 240 OFFCURVE",
"292 169 CURVE",
"292 167 OFFCURVE",
"292 165 OFFCURVE",
"292 163 CURVE",
"292 67 OFFCURVE",
"357 -10 OFFCURVE",
"456 -10 CURVE"
);
},
{
closed = 1;
nodes = (
"516 287 OFFCURVE",
"559 234 OFFCURVE",
"559 164 CURVE",
"559 92 OFFCURVE",
"517 41 OFFCURVE",
"456 40 CURVE",
"394 39 OFFCURVE",
"352 96 OFFCURVE",
"352 164 CURVE",
"352 233 OFFCURVE",
"394 287 OFFCURVE",
"455 287 CURVE SMOOTH"
);
}
);
width = 669;
}
);
unicode = 10D3;
},
{
color = 3;
glyphname = "en-georgian";
lastChange = "2017-03-20 11:14:38 +0000";
layers = (
{
backgroundImage = {
crop = "{{0, 0}, {8.946, 16}}";
imagePath = images/e.jpg;
locked = "1";
transform = "{54.73, 0, 0, 54.73, -33, -449}";
};
layerId = "FD4E62BB-26D6-4FFD-A4F8-E1C01461A73C";
paths = (
{
closed = 1;
nodes = (
"363 296 OFFCURVE",
"314 336 OFFCURVE",
"239 336 CURVE",
"135 336 OFFCURVE",
"104 236 OFFCURVE",
"103 218 CURVE",
"95 155 OFFCURVE",
"121 85 OFFCURVE",
"173 85 CURVE",
"188 85 OFFCURVE",
"216 97 OFFCURVE",
"216 129 CURVE",
"216 151 OFFCURVE",
"206 172 OFFCURVE",
"168 172 CURVE",
"163 181 OFFCURVE",
"161 191 OFFCURVE",
"161 201 CURVE SMOOTH",
"161 240 OFFCURVE",
"194 286 OFFCURVE",
"239 286 CURVE",
"277 286 OFFCURVE",
"309 260 OFFCURVE",
"309 201 CURVE SMOOTH",
"309 72 OFFCURVE",
"309 -106 OFFCURVE",
"309 -220 CURVE SMOOTH",
"309 -279 OFFCURVE",
"265 -327 OFFCURVE",
"198 -327 CURVE SMOOTH",
"131 -327 OFFCURVE",
"90 -279 OFFCURVE",
"90 -238 CURVE",
"90 -214 OFFCURVE",
"97 -186 OFFCURVE",
"118 -177 CURVE",
"125 -183 OFFCURVE",
"134 -186 OFFCURVE",
"144 -186 CURVE SMOOTH",
"165 -186 OFFCURVE",
"188 -170 OFFCURVE",
"188 -142 CURVE SMOOTH",
"188 -120 OFFCURVE",
"172 -101 OFFCURVE",
"143 -101 CURVE SMOOTH",
"84 -101 OFFCURVE",
"30 -167 OFFCURVE",
"30 -238 CURVE SMOOTH",
"30 -304 OFFCURVE",
"84 -377 OFFCURVE",
"198 -377 CURVE",
"311 -377 OFFCURVE",
"369 -311 OFFCURVE",
"369 -192 CURVE",
"369 -95 OFFCURVE",
"369 30 OFFCURVE",
"369 208 CURVE"
);
}
);
width = 404;
},
{
associatedMasterId = "FD4E62BB-26D6-4FFD-A4F8-E1C01461A73C";
layerId = "D4FD51EE-449D-4C41-8A10-6B916CC0599A";
name = "Regular Oct 25 16, 12:02";
paths = (
{
closed = 1;
nodes = (
"349 296 OFFCURVE",
"311 336 OFFCURVE",
"236 336 CURVE",
"132 336 OFFCURVE",
"129 236 OFFCURVE",
"128 218 CURVE",
"126 180 OFFCURVE",
"137 130 OFFCURVE",
"156 104 CURVE",
"164 91 OFFCURVE",
"177 85 OFFCURVE",
"193 85 CURVE",
"208 85 OFFCURVE",
"236 97 OFFCURVE",
"236 129 CURVE",
"236 151 OFFCURVE",
"219 170 OFFCURVE",
"197 172 CURVE",
"164 222 OFFCURVE",
"195 286 OFFCURVE",
"236 286 CURVE",
"274 286 OFFCURVE",
"294 259 OFFCURVE",
"306 201 CURVE SMOOTH",
"341 62 OFFCURVE",
"369 -327 OFFCURVE",
"208 -327 CURVE",
"137 -327 OFFCURVE",
"113 -269 OFFCURVE",
"110 -238 CURVE",
"107 -220 OFFCURVE",
"117 -186 OFFCURVE",
"138 -177 CURVE",
"145 -183 OFFCURVE",
"155 -186 OFFCURVE",
"165 -186 CURVE",
"189 -186 OFFCURVE",
"208 -167 OFFCURVE",
"208 -143 CURVE",
"208 -132 OFFCURVE",
"204 -121 OFFCURVE",
"197 -114 CURVE",
"177 -91 OFFCURVE",
"126 -96 OFFCURVE",
"84 -143 CURVE",
"61 -169 OFFCURVE",
"50 -200 OFFCURVE",
"50 -238 CURVE SMOOTH",
"50 -304 OFFCURVE",
"104 -377 OFFCURVE",
"214 -377 CURVE",
"367 -377 OFFCURVE",
"440 -166 OFFCURVE",
"366 208 CURVE"
);
}
);
width = 445;
}
);
unicode = 10D4;
},
{
color = 3;
glyphname = "vin-georgian";
lastChange = "2017-03-20 11:07:28 +0000";
layers = (
{
background = {
paths = (
{
closed = 1;
nodes = (
"30 -304 OFFCURVE",
"84 -377 OFFCURVE",
"198 -377 CURVE SMOOTH",
"311 -377 OFFCURVE",
"369 -311 OFFCURVE",
"369 -192 CURVE SMOOTH",
"369 -10 LINE SMOOTH",
"369 8 OFFCURVE",
"367 63 OFFCURVE",
"314 94 CURVE",
"306 98 OFFCURVE",
"301 100 OFFCURVE",
"299 100 CURVE",
"299 101 LINE",
"335 130 OFFCURVE",
"351 184 OFFCURVE",
"349 213 CURVE",
"349 218 LINE",
"340 345 OFFCURVE",
"218 336 OFFCURVE",
"218 336 CURVE",
"97 328 OFFCURVE",
"93 237 OFFCURVE",
"94 218 CURVE",
"97 190 OFFCURVE",
"110 165 OFFCURVE",
"141 165 CURVE SMOOTH",
"165 165 OFFCURVE",
"184 188 OFFCURVE",
"184 208 CURVE SMOOTH",
"184 223 OFFCURVE",
"177 236 OFFCURVE",
"165 244 CURVE",
"172 271 OFFCURVE",
"194 286 OFFCURVE",
"218 286 CURVE SMOOTH",
"273 286 OFFCURVE",
"289 238 OFFCURVE",
"289 218 CURVE SMOOTH",
"289 214 LINE SMOOTH",
"289 167 OFFCURVE",
"261 117 OFFCURVE",
"126 57 CURVE",
"115 50 OFFCURVE",
"111 35 OFFCURVE",
"116 27 CURVE SMOOTH",
"121 19 OFFCURVE",
"135 16 OFFCURVE",
"145 21 CURVE SMOOTH",
"198 47 OFFCURVE",
"218 53 OFFCURVE",
"244 53 CURVE SMOOTH",
"275 54 OFFCURVE",
"312 30 OFFCURVE",
"312 -10 CURVE SMOOTH",
"311 -93 OFFCURVE",
"309 -157 OFFCURVE",
"309 -220 CURVE SMOOTH",
"309 -287 OFFCURVE",
"265 -327 OFFCURVE",
"198 -327 CURVE SMOOTH",
"131 -327 OFFCURVE",
"90 -279 OFFCURVE",
"90 -238 CURVE SMOOTH",
"90 -214 OFFCURVE",
"97 -186 OFFCURVE",
"118 -177 CURVE",
"125 -183 OFFCURVE",
"135 -186 OFFCURVE",
"145 -186 CURVE SMOOTH",
"183 -186 OFFCURVE",
"202 -139 OFFCURVE",
"177 -114 CURVE",
"157 -91 OFFCURVE",
"106 -96 OFFCURVE",
"64 -143 CURVE SMOOTH",
"41 -169 OFFCURVE",
"30 -200 OFFCURVE",
"30 -238 CURVE SMOOTH"
);
}
);
};
backgroundImage = {
crop = "{{0, 0}, {26.64, 22.128}}";
imagePath = images/vir.jpg;
locked = "1";
transform = "{56.059, 0, 0, 56.059, -6, -476.05}";
};
guideLines = (
{
angle = 90;
position = "{704, 466}";
}
);
layerId = "FD4E62BB-26D6-4FFD-A4F8-E1C01461A73C";
paths = (
{
closed = 1;
nodes = (
"30 -298 OFFCURVE",
"80 -377 OFFCURVE",
"198 -377 CURVE SMOOTH",
"311 -377 OFFCURVE",
"369 -311 OFFCURVE",
"369 -192 CURVE SMOOTH",
"369 -10 LINE SMOOTH",
"369 28 OFFCURVE",
"349 83 OFFCURVE",
"295 100 CURVE",
"295 101 LINE",
"326 126 OFFCURVE",
"349 171 OFFCURVE",
"349 218 CURVE",
"349 291 OFFCURVE",
"299 336 OFFCURVE",
"218 336 CURVE",
"110 336 OFFCURVE",
"94 246 OFFCURVE",
"94 218 CURVE",
"94 192 OFFCURVE",
"110 165 OFFCURVE",
"141 165 CURVE SMOOTH",
"165 165 OFFCURVE",
"184 187 OFFCURVE",
"184 210 CURVE SMOOTH",
"184 223 OFFCURVE",
"178 235 OFFCURVE",
"165 244 CURVE",
"165 271 OFFCURVE",
"194 286 OFFCURVE",
"218 286 CURVE SMOOTH",
"273 286 OFFCURVE",
"289 247 OFFCURVE",
"289 218 CURVE SMOOTH",
"289 126 OFFCURVE",
"162 78 OFFCURVE",
"126 57 CURVE",
"119 53 OFFCURVE",
"113 45 OFFCURVE",
"113 35 CURVE SMOOTH",
"113 32 OFFCURVE",
"114 28 OFFCURVE",
"116 24 CURVE SMOOTH",
"121 16 OFFCURVE",
"129 11 OFFCURVE",
"138 11 CURVE SMOOTH",
"143 11 OFFCURVE",
"147 13 OFFCURVE",
"152 15 CURVE SMOOTH",
"204 41 OFFCURVE",
"232 57 OFFCURVE",
"254 68 CURVE",
"288 62 OFFCURVE",
"309 30 OFFCURVE",
"309 -10 CURVE SMOOTH",
"309 -93 OFFCURVE",
"309 -157 OFFCURVE",
"309 -220 CURVE SMOOTH",
"309 -287 OFFCURVE",
"265 -327 OFFCURVE",
"198 -327 CURVE SMOOTH",
"131 -327 OFFCURVE",
"90 -279 OFFCURVE",
"90 -238 CURVE SMOOTH",
"90 -214 OFFCURVE",
"97 -186 OFFCURVE",
"118 -177 CURVE",
"127 -183 OFFCURVE",
"136 -186 OFFCURVE",
"145 -186 CURVE SMOOTH",
"168 -186 OFFCURVE",
"188 -165 OFFCURVE",
"188 -142 CURVE SMOOTH",
"188 -133 OFFCURVE",
"185 -123 OFFCURVE",
"177 -114 CURVE SMOOTH",
"168 -104 OFFCURVE",
"156 -99 OFFCURVE",
"143 -99 CURVE SMOOTH",
"95 -99 OFFCURVE",
"30 -157 OFFCURVE",
"30 -230 CURVE SMOOTH"
);
}
);
width = 399;
},
{
associatedMasterId = "FD4E62BB-26D6-4FFD-A4F8-E1C01461A73C";
guideLines = (
{
angle = 90;
position = "{759, 466}";
}
);
layerId = "E64BD7FA-6A55-400A-BE94-D958852D2295";
name = "Regular Oct 26 16, 10:27";
paths = (
{
closed = 1;
nodes = (
"346 103 LINE",
"381 132 OFFCURVE",
"397 177 OFFCURVE",
"397 227 CURVE",
"390 339 OFFCURVE",
"268 336 OFFCURVE",
"268 336 CURVE",
"147 328 OFFCURVE",
"143 237 OFFCURVE",
"144 218 CURVE",
"147 190 OFFCURVE",
"160 165 OFFCURVE",
"191 165 CURVE",
"215 165 OFFCURVE",
"234 188 OFFCURVE",
"234 208 CURVE",
"234 223 OFFCURVE",
"227 236 OFFCURVE",
"215 244 CURVE",
"222 271 OFFCURVE",
"244 286 OFFCURVE",
"268 286 CURVE",
"323 286 OFFCURVE",
"337 246 OFFCURVE",
"337 227 CURVE",
"337 132 OFFCURVE",
"215 89 OFFCURVE",
"169 49 CURVE",
"147 30 OFFCURVE",
"172 14 OFFCURVE",
"187 19 CURVE",
"200 22 OFFCURVE",
"243 42 OFFCURVE",
"264 48 CURVE",
"337 66 OFFCURVE",
"389 27 OFFCURVE",
"363 -120 CURVE",
"341 -251 OFFCURVE",
"296 -327 OFFCURVE",
"212 -327 CURVE",
"137 -327 OFFCURVE",
"114 -269 OFFCURVE",
"111 -244 CURVE",
"108 -219 OFFCURVE",
"117 -186 OFFCURVE",
"138 -176 CURVE",
"145 -182 OFFCURVE",
"155 -186 OFFCURVE",
"165 -186 CURVE",
"189 -186 OFFCURVE",
"208 -166 OFFCURVE",
"208 -143 CURVE",
"208 -131 OFFCURVE",
"204 -121 OFFCURVE",
"197 -113 CURVE",
"177 -91 OFFCURVE",
"132 -89 OFFCURVE",
"84 -143 CURVE",
"58 -172 OFFCURVE",
"47 -209 OFFCURVE",
"51 -245 CURVE SMOOTH",
"57 -313 OFFCURVE",
"113 -377 OFFCURVE",
"212 -377 CURVE",
"358 -377 OFFCURVE",
"407 -234 OFFCURVE",
"423 -120 CURVE",
"449 77 OFFCURVE",
"346 102 OFFCURVE",
"346 102 CURVE"
);
}
);
width = 477;
},
{
associatedMasterId = "FD4E62BB-26D6-4FFD-A4F8-E1C01461A73C";
guideLines = (
{
angle = 90;
position = "{704, 466}";
}
);
layerId = "53A0C8CE-4854-4AD7-8C60-39D184F5B753";
name = "Regular Feb 8 17, 14:18";
paths = (
{
closed = 1;
nodes = (
"312 -10 LINE",
"311 -93 OFFCURVE",
"309 -157 OFFCURVE",
"309 -220 CURVE SMOOTH",
"309 -287 OFFCURVE",
"265 -327 OFFCURVE",
"198 -327 CURVE SMOOTH",
"131 -327 OFFCURVE",
"90 -279 OFFCURVE",
"90 -238 CURVE",
"90 -214 OFFCURVE",
"97 -186 OFFCURVE",
"118 -177 CURVE",
"125 -183 OFFCURVE",
"135 -186 OFFCURVE",
"145 -186 CURVE",
"183 -186 OFFCURVE",
"202 -139 OFFCURVE",
"177 -114 CURVE",
"157 -91 OFFCURVE",
"106 -96 OFFCURVE",
"64 -143 CURVE",
"41 -169 OFFCURVE",
"30 -200 OFFCURVE",
"30 -238 CURVE SMOOTH",
"30 -304 OFFCURVE",
"84 -377 OFFCURVE",
"198 -377 CURVE",
"311 -377 OFFCURVE",
"369 -311 OFFCURVE",
"369 -192 CURVE",
"369 -136 OFFCURVE",
"369 -67 OFFCURVE",
"369 -10 CURVE"
);
},
{
closed = 1;
nodes = (
"289 218 LINE",
"289 216 OFFCURVE",
"289 215 OFFCURVE",
"289 214 CURVE SMOOTH",
"289 167 OFFCURVE",
"261 117 OFFCURVE",
"126 57 CURVE",
"115 50 OFFCURVE",
"111 35 OFFCURVE",
"116 27 CURVE",
"121 19 OFFCURVE",
"135 16 OFFCURVE",
"145 21 CURVE SMOOTH",
"198 47 OFFCURVE",
"218 53 OFFCURVE",
"244 53 CURVE",
"275 54 OFFCURVE",
"312 30 OFFCURVE",
"312 -10 CURVE",
"369 -10 LINE",
"369 8 OFFCURVE",
"367 63 OFFCURVE",
"314 94 CURVE",
"306 98 OFFCURVE",
"301 100 OFFCURVE",
"299 100 CURVE",
"299 101 LINE",
"335 130 OFFCURVE",
"351 184 OFFCURVE",
"349 213 CURVE",
"349 215 OFFCURVE",
"349 216 OFFCURVE",
"349 218 CURVE"
);
},
{
closed = 1;
nodes = (
"349 218 LINE",
"340 345 OFFCURVE",
"218 336 OFFCURVE",
"218 336 CURVE",
"97 328 OFFCURVE",
"93 237 OFFCURVE",
"94 218 CURVE",
"97 190 OFFCURVE",
"110 165 OFFCURVE",
"141 165 CURVE",
"165 165 OFFCURVE",
"184 188 OFFCURVE",
"184 208 CURVE",
"184 223 OFFCURVE",
"177 236 OFFCURVE",
"165 244 CURVE",
"172 271 OFFCURVE",
"194 286 OFFCURVE",
"218 286 CURVE",
"273 286 OFFCURVE",
"289 238 OFFCURVE",
"289 218 CURVE"
);
}
);
width = 399;
}
);
unicode = 10D5;
},
{
color = 3;
glyphname = "zen-georgian";
lastChange = "2017-03-20 11:08:16 +0000";
layers = (
{
backgroundImage = {
crop = "{{0, 0}, {17, 22}}";
imagePath = images/zk.jpg;
locked = "1";
transform = "{60.902, 0, 0, 60.902, -12, -518.942}";
};
layerId = "FD4E62BB-26D6-4FFD-A4F8-E1C01461A73C";
paths = (
{
closed = 1;
nodes = (
"338 332 LINE",
"338 406 OFFCURVE",
"338 342 OFFCURVE",
"339 428 CURVE",
"339 475 OFFCURVE",
"338 536 OFFCURVE",
"338 563 CURVE",
"338 661 OFFCURVE",
"264 724 OFFCURVE",
"174 724 CURVE",
"75 724 OFFCURVE",
"10 646 OFFCURVE",
"10 550 CURVE",
"6 454 OFFCURVE",
"65 378 OFFCURVE",
"168 378 CURVE",
"220 379 OFFCURVE",
"250 397 OFFCURVE",
"278 424 CURVE",
"279 423 LINE",
"278 422 OFFCURVE",
"278 449 OFFCURVE",
"278 332 CURVE"
);
},
{
closed = 1;
nodes = (
"380 40 OFFCURVE",
"338 92 OFFCURVE",
"338 161 CURVE",
"338 192 OFFCURVE",
"338 204 OFFCURVE",
"338 236 CURVE",
"367 273 OFFCURVE",
"410 286 OFFCURVE",
"442 286 CURVE",
"507 286 OFFCURVE",
"546 235 OFFCURVE",
"546 164 CURVE",
"546 92 OFFCURVE",
"503 41 OFFCURVE",
"442 40 CURVE"
);
},
{
closed = 1;
nodes = (
"541 -10 OFFCURVE",
"606 68 OFFCURVE",
"606 164 CURVE",
"610 260 OFFCURVE",
"551 336 OFFCURVE",
"448 336 CURVE",
"396 335 OFFCURVE",
"366 317 OFFCURVE",
"338 290 CURVE",
"337 291 LINE",
"338 292 OFFCURVE",
"338 265 OFFCURVE",
"338 382 CURVE",
"278 382 LINE",
"278 308 OFFCURVE",
"278 372 OFFCURVE",
"277 286 CURVE",
"277 239 OFFCURVE",
"278 178 OFFCURVE",
"278 151 CURVE",
"278 53 OFFCURVE",
"352 -10 OFFCURVE",
"442 -10 CURVE"
);
},
{
closed = 1;
nodes = (
"109 428 OFFCURVE",
"70 479 OFFCURVE",
"70 550 CURVE",
"70 622 OFFCURVE",
"113 673 OFFCURVE",
"174 674 CURVE",
"236 674 OFFCURVE",
"278 622 OFFCURVE",
"278 553 CURVE",
"278 522 OFFCURVE",
"278 510 OFFCURVE",
"278 478 CURVE",
"249 441 OFFCURVE",
"206 428 OFFCURVE",
"174 428 CURVE"
);
}
);
width = 637;
},
{
associatedMasterId = "FD4E62BB-26D6-4FFD-A4F8-E1C01461A73C";
layerId = "500A5DC9-920F-4BFD-BE92-3EECDBBD639E";
name = "Regular Dec 8 16, 13:57";
paths = (
{
closed = 1;
nodes = (
"405 582 LINE",
"435 708 OFFCURVE",
"340 752 OFFCURVE",
"217 713 CURVE SMOOTH",
"126 684 OFFCURVE",
"58 605 OFFCURVE",
"51 522 CURVE",
"33 328 OFFCURVE",
"306 395 OFFCURVE",
"306 395 CURVE",
"307 394 LINE",
"267 185 LINE",
"248 68 OFFCURVE",
"265 3 OFFCURVE",
"314 -7 CURVE",
"414 -26 OFFCURVE",
"485 20 OFFCURVE",
"530 91 CURVE SMOOTH",
"707 370 OFFCURVE",
"433 339 OFFCURVE",
"358 331 CURVE",
"357 332 OFFCURVE",
"357 332 OFFCURVE",
"357 332 CURVE"
);
},
{
closed = 1;
nodes = (
"201 437 OFFCURVE",
"112 443 OFFCURVE",
"111 522 CURVE",
"109 570 OFFCURVE",
"173 644 OFFCURVE",
"228 663 CURVE",
"283 682 OFFCURVE",
"363 680 OFFCURVE",
"345 586 CURVE SMOOTH",
"338 549 OFFCURVE",
"317 464 OFFCURVE",
"249 448 CURVE"
);
},
{
closed = 1;
nodes = (
"446 78 OFFCURVE",
"388 20 OFFCURVE",
"335 46 CURVE",
"304 60 OFFCURVE",
"315 185 OFFCURVE",
"360 243 CURVE",
"375 262 OFFCURVE",
"401 293 OFFCURVE",
"456 288 CURVE",
"497 285 OFFCURVE",
"580 265 OFFCURVE",
"468 106 CURVE"
);
}
);
width = 634;
},
{
associatedMasterId = "FD4E62BB-26D6-4FFD-A4F8-E1C01461A73C";
layerId = "61C07066-BDAB-409B-8EBC-2022151B2742";
name = "Regular Feb 8 17, 14:31";
paths = (
{
closed = 1;
nodes = (
"278 388 LINE",
"278 306 OFFCURVE",
"278 377 OFFCURVE",
"278 286 CURVE",
"278 239 OFFCURVE",
"279 178 OFFCURVE",
"279 151 CURVE",
"279 60 OFFCURVE",
"344 -10 OFFCURVE",
"443 -10 CURVE",
"542 -10 OFFCURVE",
"607 68 OFFCURVE",
"607 164 CURVE",
"607 260 OFFCURVE",
"546 336 OFFCURVE",
"443 336 CURVE",
"395 336 OFFCURVE",
"358 316 OFFCURVE",
"339 297 CURVE",
"338 298 LINE SMOOTH",
"337 299 OFFCURVE",
"338 269 OFFCURVE",
"338 388 CURVE"
);
},
{
closed = 1;
nodes = (
"381 40 OFFCURVE",
"339 92 OFFCURVE",
"339 164 CURVE",
"339 235 OFFCURVE",
"386 286 OFFCURVE",
"443 286 CURVE",
"508 286 OFFCURVE",
"547 236 OFFCURVE",
"547 164 CURVE",
"547 92 OFFCURVE",
"504 41 OFFCURVE",
"443 40 CURVE"
);
},
{
closed = 1;
nodes = (
"338 349 LINE",
"338 407 OFFCURVE",
"338 563 OFFCURVE",
"338 562 CURVE",
"338 661 OFFCURVE",
"274 728 OFFCURVE",
"175 728 CURVE",
"76 728 OFFCURVE",
"6 658 OFFCURVE",
"6 562 CURVE",
"2 466 OFFCURVE",
"72 397 OFFCURVE",
"175 397 CURVE",
"223 397 OFFCURVE",
"258 415 OFFCURVE",
"277 436 CURVE",
"278 436 OFFCURVE",
"277 436 OFFCURVE",
"278 436 CURVE",
"278 426 OFFCURVE",
"278 395 OFFCURVE",
"278 349 CURVE"
);
},
{
closed = 1;
nodes = (
"237 678 OFFCURVE",
"278 630 OFFCURVE",
"278 562 CURVE SMOOTH",
"278 491 OFFCURVE",
"240 447 OFFCURVE",
"175 447 CURVE",
"110 447 OFFCURVE",
"66 491 OFFCURVE",
"66 562 CURVE",
"66 634 OFFCURVE",
"114 677 OFFCURVE",
"175 678 CURVE"
);
}
);
width = 637;
}
);
unicode = 10D6;
},
{
color = 3;
glyphname = "tan-georgian";
lastChange = "2017-03-20 11:08:49 +0000";
layers = (
{
background = {
paths = (
{
closed = 1;
nodes = (
"331 211 LINE",
"347 259 OFFCURVE",
"386 285 OFFCURVE",
"427 285 CURVE",
"480 285 OFFCURVE",
"531 241 OFFCURVE",
"531 160 CURVE",
"531 118 OFFCURVE",
"523 91 OFFCURVE",
"514 74 CURVE",
"510 75 OFFCURVE",
"506 76 OFFCURVE",
"502 76 CURVE",
"478 76 OFFCURVE",
"459 56 OFFCURVE",
"459 32 CURVE",
"459 9 OFFCURVE",
"478 -11 OFFCURVE",
"502 -11 CURVE",
"548 -11 OFFCURVE",
"591 76 OFFCURVE",
"591 160 CURVE",
"591 252 OFFCURVE",
"532 335 OFFCURVE",
"427 335 CURVE",
"366 335 OFFCURVE",
"320 307 OFFCURVE",
"292 264 CURVE"
);
},
{
closed = 1;
nodes = (
"30 66 OFFCURVE",
"95 -11 OFFCURVE",
"194 -11 CURVE SMOOTH",
"293 -11 OFFCURVE",
"358 66 OFFCURVE",
"358 162 CURVE SMOOTH",
"358 259 OFFCURVE",
"304 336 OFFCURVE",
"194 336 CURVE SMOOTH",
"95 336 OFFCURVE",
"30 258 OFFCURVE",
"30 162 CURVE SMOOTH"
);
},
{
closed = 1;
nodes = (
"90 232 OFFCURVE",
"133 286 OFFCURVE",
"194 286 CURVE SMOOTH",
"255 286 OFFCURVE",
"298 231 OFFCURVE",
"298 162 CURVE SMOOTH",
"298 94 OFFCURVE",
"256 39 OFFCURVE",
"194 39 CURVE SMOOTH",
"133 40 OFFCURVE",
"90 90 OFFCURVE",
"90 162 CURVE SMOOTH"
);
}
);
};
backgroundImage = {
crop = "{{0, 0}, {12.258, 9.378}}";
imagePath = images/Tt.jpg;
locked = "1";
transform = "{55.503, 0, 0, 55.503, -109, -44}";
};
layerId = "FD4E62BB-26D6-4FFD-A4F8-E1C01461A73C";
paths = (
{
closed = 1;
nodes = (
"30 66 OFFCURVE",
"95 -10 OFFCURVE",
"194 -10 CURVE SMOOTH",
"293 -10 OFFCURVE",
"358 66 OFFCURVE",
"358 162 CURVE SMOOTH",
"358 196.268 OFFCURVE",
"351.26 228.04 OFFCURVE",
"337.693 254.803 CURVE",
"355.905 275.733 OFFCURVE",
"381.332 286 OFFCURVE",
"410 286 CURVE SMOOTH",
"468 286 OFFCURVE",
"514 246 OFFCURVE",
"514 155 CURVE SMOOTH",
"514 118 OFFCURVE",
"506 90 OFFCURVE",
"498 73 CURVE",
"494 74 OFFCURVE",
"490 75 OFFCURVE",
"486 75 CURVE SMOOTH",
"464 75 OFFCURVE",
"442 59 OFFCURVE",
"442 32 CURVE SMOOTH",
"442 8 OFFCURVE",
"462 -11 OFFCURVE",
"485 -11 CURVE SMOOTH",
"537 -11 OFFCURVE",
"574 76 OFFCURVE",
"574 155 CURVE SMOOTH",
"574 271 OFFCURVE",
"516 336 OFFCURVE",
"424 336 CURVE SMOOTH",
"378 336 OFFCURVE",
"342 316 OFFCURVE",
"314.923 287.988 CURVE",
"287.688 317.815 OFFCURVE",
"247.456 336 OFFCURVE",
"194 336 CURVE SMOOTH",
"95 336 OFFCURVE",
"30 258 OFFCURVE",
"30 162 CURVE SMOOTH"
);
},
{
closed = 1;
nodes = (
"90 232 OFFCURVE",
"133 286 OFFCURVE",
"194 286 CURVE SMOOTH",
"255 286 OFFCURVE",
"298 231 OFFCURVE",
"298 162 CURVE SMOOTH",
"298 94 OFFCURVE",
"256 40 OFFCURVE",
"194 40 CURVE SMOOTH",
"133 41 OFFCURVE",
"90 90 OFFCURVE",
"90 162 CURVE SMOOTH"
);
}
);
width = 604;
},
{
associatedMasterId = "FD4E62BB-26D6-4FFD-A4F8-E1C01461A73C";
layerId = "E4C5AF0E-C6A4-4315-BD2E-D5615C162E5C";
name = "Regular Nov 30 16, 11:57";
paths = (
{
closed = 1;
nodes = (
"407 336 OFFCURVE",
"370 308 OFFCURVE",
"346 269 CURVE SMOOTH",
"346 269 OFFCURVE",
"345 269 OFFCURVE",
"345 269 CURVE",
"316 309 OFFCURVE",
"271 336 OFFCURVE",
"214 336 CURVE",
"115 336 OFFCURVE",
"50 258 OFFCURVE",
"50 162 CURVE",
"50 66 OFFCURVE",
"115 -11 OFFCURVE",
"214 -11 CURVE",
"313 -11 OFFCURVE",
"378 66 OFFCURVE",
"378 162 CURVE",
"378 227 OFFCURVE",
"409 286 OFFCURVE",
"463 286 CURVE",
"516 286 OFFCURVE",
"559 231 OFFCURVE",
"559 152 CURVE",
"559 117 OFFCURVE",
"554 92 OFFCURVE",
"547 75 CURVE",
"523 82 OFFCURVE",
"495 63 OFFCURVE",
"495 33 CURVE",
"495 9 OFFCURVE",
"515 -10 OFFCURVE",
"538 -10 CURVE",
"590 -10 OFFCURVE",
"616 85 OFFCURVE",
"619 151 CURVE",
"623 243 OFFCURVE",
"568 336 OFFCURVE",
"463 336 CURVE"
);
},
{
closed = 1;
nodes = (
"153 40 OFFCURVE",
"110 90 OFFCURVE",
"110 162 CURVE",
"110 232 OFFCURVE",
"153 286 OFFCURVE",
"214 286 CURVE",
"275 286 OFFCURVE",
"318 231 OFFCURVE",
"318 162 CURVE",
"318 94 OFFCURVE",
"276 39 OFFCURVE",
"214 39 CURVE"
);
}
);
width = 669;
},
{
associatedMasterId = "FD4E62BB-26D6-4FFD-A4F8-E1C01461A73C";
layerId = "B912779E-9FCA-4F8A-9CCA-8CE82A0B6C19";
name = "Regular Feb 8 17, 14:25";
paths = (
{
closed = 1;
nodes = (
"331 211 LINE",
"347 259 OFFCURVE",
"386 285 OFFCURVE",
"427 285 CURVE",
"480 285 OFFCURVE",
"531 241 OFFCURVE",
"531 160 CURVE",
"531 118 OFFCURVE",
"523 91 OFFCURVE",
"514 74 CURVE",
"510 75 OFFCURVE",
"506 76 OFFCURVE",
"502 76 CURVE",
"478 76 OFFCURVE",
"459 56 OFFCURVE",
"459 32 CURVE",
"459 9 OFFCURVE",
"478 -11 OFFCURVE",
"502 -11 CURVE",
"548 -11 OFFCURVE",
"591 76 OFFCURVE",
"591 160 CURVE",
"591 252 OFFCURVE",
"532 335 OFFCURVE",
"427 335 CURVE",
"366 335 OFFCURVE",
"320 307 OFFCURVE",
"292 264 CURVE"
);
},
{
closed = 1;
nodes = (
"30 66 OFFCURVE",
"95 -11 OFFCURVE",
"194 -11 CURVE SMOOTH",
"293 -11 OFFCURVE",
"358 66 OFFCURVE",
"358 162 CURVE SMOOTH",
"358 259 OFFCURVE",
"304 336 OFFCURVE",
"194 336 CURVE SMOOTH",
"95 336 OFFCURVE",
"30 258 OFFCURVE",
"30 162 CURVE SMOOTH"
);
},
{
closed = 1;
nodes = (
"90 232 OFFCURVE",
"133 286 OFFCURVE",
"194 286 CURVE SMOOTH",
"255 286 OFFCURVE",
"298 231 OFFCURVE",
"298 162 CURVE SMOOTH",
"298 94 OFFCURVE",
"256 39 OFFCURVE",
"194 39 CURVE SMOOTH",
"133 40 OFFCURVE",
"90 90 OFFCURVE",
"90 162 CURVE SMOOTH"
);
}
);
width = 621;
}
);
unicode = 10D7;
},
{
color = 3;
glyphname = "in-georgian";
lastChange = "2017-03-20 11:08:55 +0000";
layers = (
{
background = {
paths = (
{
closed = 1;
nodes = (
"89 336 OFFCURVE",
"30 253 OFFCURVE",
"30 161 CURVE",
"30 86 OFFCURVE",
"72 -10 OFFCURVE",
"119 -10 CURVE",
"143 -10 OFFCURVE",
"162 10 OFFCURVE",
"162 33 CURVE",
"162 62 OFFCURVE",
"134 84 OFFCURVE",
"107 75 CURVE",
"98 92 OFFCURVE",
"90 119 OFFCURVE",
"90 161 CURVE",
"90 242 OFFCURVE",
"141 286 OFFCURVE",
"194 286 CURVE",
"247 286 OFFCURVE",
"298 242 OFFCURVE",
"298 161 CURVE",
"298 119 OFFCURVE",
"290 92 OFFCURVE",
"281 75 CURVE",
"250 83 OFFCURVE",
"226 61 OFFCURVE",
"226 33 CURVE",
"226 10 OFFCURVE",
"245 -10 OFFCURVE",
"269 -10 CURVE",
"315 -10 OFFCURVE",
"358 77 OFFCURVE",
"358 161 CURVE",
"358 253 OFFCURVE",
"299 336 OFFCURVE",
"194 336 CURVE"
);
}
);
};
backgroundImage = {
crop = "{{0, 0}, {26.64, 22.128}}";
imagePath = images/vir.jpg;
locked = "1";
transform = "{56.059, 0, 0, 56.059, -409, -454}";
};
layerId = "FD4E62BB-26D6-4FFD-A4F8-E1C01461A73C";
paths = (
{
closed = 1;
nodes = (
"89 336 OFFCURVE",
"30 253 OFFCURVE",
"30 161 CURVE",
"30 86 OFFCURVE",
"72 -10 OFFCURVE",
"119 -10 CURVE",
"143 -10 OFFCURVE",
"162 10 OFFCURVE",
"162 33 CURVE",
"162 58 OFFCURVE",
"142 77 OFFCURVE",
"119 77 CURVE SMOOTH",
"115 77 OFFCURVE",
"111 76 OFFCURVE",
"107 75 CURVE",
"98 92 OFFCURVE",
"90 119 OFFCURVE",
"90 161 CURVE",
"90 242 OFFCURVE",
"141 286 OFFCURVE",
"194 286 CURVE",
"247 286 OFFCURVE",
"298 242 OFFCURVE",
"298 161 CURVE",
"298 119 OFFCURVE",
"290 92 OFFCURVE",
"281 75 CURVE",
"277 76 OFFCURVE",
"272 77 OFFCURVE",
"268 77 CURVE SMOOTH",
"244 77 OFFCURVE",
"226 57 OFFCURVE",
"226 33 CURVE",
"226 10 OFFCURVE",
"245 -10 OFFCURVE",
"269 -10 CURVE",
"315 -10 OFFCURVE",
"358 77 OFFCURVE",
"358 161 CURVE",
"358 253 OFFCURVE",
"299 336 OFFCURVE",
"194 336 CURVE"
);
}
);
width = 388;
}
);
unicode = 10D8;
},
{
color = 3;
glyphname = "kan-georgian";
lastChange = "2017-03-20 11:09:02 +0000";
layers = (
{
background = {
paths = (
{
closed = 1;
nodes = (
"312 -10 LINE",
"311 -93 OFFCURVE",
"309 -157 OFFCURVE",
"309 -220 CURVE SMOOTH",
"309 -287 OFFCURVE",
"265 -327 OFFCURVE",
"198 -327 CURVE SMOOTH",
"131 -327 OFFCURVE",
"90 -279 OFFCURVE",
"90 -238 CURVE",
"90 -214 OFFCURVE",
"97 -186 OFFCURVE",
"118 -177 CURVE",
"125 -183 OFFCURVE",
"135 -186 OFFCURVE",
"145 -186 CURVE",
"183 -186 OFFCURVE",
"202 -139 OFFCURVE",
"177 -114 CURVE",
"157 -91 OFFCURVE",
"106 -96 OFFCURVE",
"64 -143 CURVE",
"41 -169 OFFCURVE",
"30 -200 OFFCURVE",
"30 -238 CURVE SMOOTH",
"30 -304 OFFCURVE",
"84 -377 OFFCURVE",
"198 -377 CURVE",
"311 -377 OFFCURVE",
"369 -311 OFFCURVE",
"369 -192 CURVE",
"369 -136 OFFCURVE",
"369 -67 OFFCURVE",
"369 -10 CURVE"
);
},
{
closed = 1;
nodes = (
"369 -10 LINE",
"369 8 OFFCURVE",
"367 63 OFFCURVE",
"314 94 CURVE",
"306 98 OFFCURVE",
"301 100 OFFCURVE",
"299 100 CURVE",
"299 101 LINE",
"335 130 OFFCURVE",
"351 180 OFFCURVE",
"349 209 CURVE",
"343 340 OFFCURVE",
"219 336 OFFCURVE",
"219 336 CURVE",
"168 336 OFFCURVE",
"183 283 OFFCURVE",
"223 285 CURVE",
"261 280 OFFCURVE",
"291 250 OFFCURVE",
"289 210 CURVE SMOOTH",
"287 163 OFFCURVE",
"261 117 OFFCURVE",
"126 57 CURVE",
"115 50 OFFCURVE",
"111 35 OFFCURVE",
"116 27 CURVE",
"121 19 OFFCURVE",
"135 16 OFFCURVE",
"145 21 CURVE SMOOTH",
"198 47 OFFCURVE",
"218 53 OFFCURVE",
"244 53 CURVE",
"275 54 OFFCURVE",
"312 30 OFFCURVE",
"312 -10 CURVE"
);
}
);
};
backgroundImage = {
crop = "{{0, 0}, {17, 22}}";
imagePath = images/zk.jpg;
locked = "1";
transform = "{57.773, 0, 0, 57.773, -500, -523}";
};
layerId = "FD4E62BB-26D6-4FFD-A4F8-E1C01461A73C";
paths = (
{
closed = 1;
nodes = (
"29 -298 OFFCURVE",
"79 -377 OFFCURVE",
"197 -377 CURVE SMOOTH",
"310 -377 OFFCURVE",
"368 -311 OFFCURVE",
"368 -192 CURVE SMOOTH",
"368 -10 LINE SMOOTH",
"368 28 OFFCURVE",
"348 83 OFFCURVE",
"294 100 CURVE",
"294 101 LINE",
"323 124 OFFCURVE",
"345 163 OFFCURVE",
"348 207 CURVE",
"348 211 LINE SMOOTH",
"348 333 OFFCURVE",
"236 337 OFFCURVE",
"220 337 CURVE SMOOTH",
"199 337 OFFCURVE",
"189 326 OFFCURVE",
"189 315 CURVE SMOOTH",
"189 302 OFFCURVE",
"201 288 OFFCURVE",
"222 286 CURVE",
"260 281 OFFCURVE",
"288 252 OFFCURVE",
"288 212 CURVE SMOOTH",
"288 207 LINE",
"280 121 OFFCURVE",
"160 77 OFFCURVE",
"125 57 CURVE",
"118 53 OFFCURVE",
"112 45 OFFCURVE",
"112 35 CURVE SMOOTH",
"112 32 OFFCURVE",
"113 28 OFFCURVE",
"115 24 CURVE SMOOTH",
"120 16 OFFCURVE",
"128 11 OFFCURVE",
"137 11 CURVE SMOOTH",
"142 11 OFFCURVE",
"146 13 OFFCURVE",
"151 15 CURVE SMOOTH",
"202 43 OFFCURVE",
"231 57 OFFCURVE",
"253 68 CURVE",
"287 62 OFFCURVE",
"308 30 OFFCURVE",
"308 -10 CURVE SMOOTH",
"308 -220 LINE SMOOTH",
"308 -287 OFFCURVE",
"264 -327 OFFCURVE",
"197 -327 CURVE SMOOTH",
"130 -327 OFFCURVE",
"89 -279 OFFCURVE",
"89 -238 CURVE SMOOTH",
"89 -214 OFFCURVE",
"96 -186 OFFCURVE",
"117 -177 CURVE",
"126 -183 OFFCURVE",
"135 -186 OFFCURVE",
"144 -186 CURVE SMOOTH",
"167 -186 OFFCURVE",
"187 -165 OFFCURVE",
"187 -142 CURVE SMOOTH",
"187 -133 OFFCURVE",
"184 -123 OFFCURVE",
"176 -114 CURVE SMOOTH",
"167 -104 OFFCURVE",
"155 -99 OFFCURVE",
"142 -99 CURVE SMOOTH",
"94 -99 OFFCURVE",
"29 -157 OFFCURVE",
"29 -230 CURVE SMOOTH"
);
}
);
width = 399;
},
{
associatedMasterId = "FD4E62BB-26D6-4FFD-A4F8-E1C01461A73C";
layerId = "E8B20FA5-FD73-448F-B385-01A42DF53369";
name = "Regular Oct 26 16, 10:12";
paths = (
{
closed = 1;
nodes = (
"427 -55 OFFCURVE",
"427 -54 OFFCURVE",
"427 -53 CURVE",
"427 -52 OFFCURVE",
"427 -51 OFFCURVE",
"427 -50 CURVE",
"427 -48 OFFCURVE",
"427 -46 OFFCURVE",
"426 -44 CURVE",
"426 -43 OFFCURVE",
"426 -42 OFFCURVE",
"426 -42 CURVE",
"426 -40 OFFCURVE",
"426 -39 OFFCURVE",
"426 -37 CURVE",
"426 -36 OFFCURVE",
"426 -36 OFFCURVE",
"426 -35 CURVE",
"426 -34 OFFCURVE",
"426 -32 OFFCURVE",
"426 -31 CURVE",
"426 -30 OFFCURVE",
"426 -29 OFFCURVE",
"425 -28 CURVE",
"425 -27 OFFCURVE",
"425 -26 OFFCURVE",
"425 -25 CURVE",
"425 -24 OFFCURVE",
"425 -23 OFFCURVE",
"425 -22 CURVE",
"425 -21 OFFCURVE",
"425 -20 OFFCURVE",
"425 -19 CURVE",
"424 -18 OFFCURVE",
"424 -17 OFFCURVE",
"424 -17 CURVE",
"424 -15 OFFCURVE",
"424 -14 OFFCURVE",
"424 -13 CURVE",
"424 -12 OFFCURVE",
"424 -12 OFFCURVE",
"423 -11 CURVE",
"423 -9 OFFCURVE",
"423 -8 OFFCURVE",
"423 -6 CURVE",
"422 -5 OFFCURVE",
"422 -5 OFFCURVE",
"422 -4 CURVE",
"422 -3 OFFCURVE",
"422 -2 OFFCURVE",
"422 -1 CURVE",
"421 0 OFFCURVE",
"421 1 OFFCURVE",
"421 1 CURVE",
"421 2 OFFCURVE",
"421 3 OFFCURVE",
"420 4 CURVE",
"420 5 OFFCURVE",
"420 6 OFFCURVE",
"420 7 CURVE",
"420 8 OFFCURVE",
"419 8 OFFCURVE",
"419 9 CURVE",
"419 10 OFFCURVE",
"419 11 OFFCURVE",
"419 11 CURVE",
"418 12 OFFCURVE",
"418 13 OFFCURVE",
"418 14 CURVE",
"418 15 OFFCURVE",
"418 16 OFFCURVE",
"417 16 CURVE",
"417 17 OFFCURVE",
"417 18 OFFCURVE",
"416 19 CURVE",
"416 20 OFFCURVE",
"416 20 OFFCURVE",
"416 21 CURVE",
"416 22 OFFCURVE",
"415 23 OFFCURVE",
"415 25 CURVE",
"414 25 OFFCURVE",
"414 26 OFFCURVE",
"414 26 CURVE",
"414 27 OFFCURVE",
"413 28 OFFCURVE",
"413 29 CURVE",
"413 30 OFFCURVE",
"413 30 OFFCURVE",
"413 31 CURVE",
"412 32 OFFCURVE",
"412 32 OFFCURVE",
"412 33 CURVE",
"411 34 OFFCURVE",
"411 34 OFFCURVE",
"411 35 CURVE",
"411 36 OFFCURVE",
"410 36 OFFCURVE",
"410 37 CURVE",
"410 38 OFFCURVE",
"409 38 OFFCURVE",
"409 39 CURVE",
"409 39 OFFCURVE",
"409 40 OFFCURVE",
"408 41 CURVE",
"408 41 OFFCURVE",
"408 42 OFFCURVE",
"408 42 CURVE",
"407 43 OFFCURVE",
"407 44 OFFCURVE",
"406 45 CURVE",
"406 45 OFFCURVE",
"406 46 OFFCURVE",
"406 46 CURVE",
"405 47 OFFCURVE",
"405 48 OFFCURVE",
"404 49 CURVE",
"404 50 OFFCURVE",
"404 50 OFFCURVE",
"403 50 CURVE",
"403 51 OFFCURVE",
"403 52 OFFCURVE",
"402 52 CURVE",
"402 53 OFFCURVE",
"402 53 OFFCURVE",
"401 54 CURVE",
"401 54 OFFCURVE",
"401 55 OFFCURVE",
"400 56 CURVE",
"400 56 OFFCURVE",
"400 56 OFFCURVE",
"399 57 CURVE",
"399 57 OFFCURVE",
"399 58 OFFCURVE",
"398 59 CURVE",
"398 59 OFFCURVE",
"398 59 OFFCURVE",
"398 60 CURVE",
"397 60 OFFCURVE",
"397 61 OFFCURVE",
"396 62 CURVE",
"396 62 OFFCURVE",
"396 62 OFFCURVE",
"396 62 CURVE",
"395 63 OFFCURVE",
"394 64 OFFCURVE",
"394 65 CURVE",
"394 65 OFFCURVE",
"394 65 OFFCURVE",
"394 65 CURVE",
"393 66 OFFCURVE",
"392 67 OFFCURVE",
"392 68 CURVE",
"391 68 OFFCURVE",
"391 68 OFFCURVE",
"391 68 CURVE",
"391 69 OFFCURVE",
"390 70 OFFCURVE",
"390 70 CURVE",
"389 70 OFFCURVE",
"389 71 OFFCURVE",
"389 71 CURVE",
"388 71 OFFCURVE",
"388 72 OFFCURVE",
"388 73 CURVE",
"387 73 OFFCURVE",
"387 73 OFFCURVE",
"387 73 CURVE",
"386 74 OFFCURVE",
"386 74 OFFCURVE",
"385 75 CURVE",
"385 75 OFFCURVE",
"385 75 OFFCURVE",
"385 75 CURVE",
"384 76 OFFCURVE",
"384 76 OFFCURVE",
"383 77 CURVE",
"383 77 OFFCURVE",
"383 77 OFFCURVE",
"383 77 CURVE",
"381 79 OFFCURVE",
"380 80 OFFCURVE",
"379 81 CURVE",
"379 81 OFFCURVE",
"379 82 OFFCURVE",
"378 82 CURVE",
"378 82 OFFCURVE",
"377 83 OFFCURVE",
"377 83 CURVE",
"377 83 OFFCURVE",
"376 83 OFFCURVE",
"376 83 CURVE",
"376 84 OFFCURVE",
"375 84 OFFCURVE",
"375 85 CURVE",
"375 85 OFFCURVE",
"374 85 OFFCURVE",
"374 85 CURVE",
"374 86 OFFCURVE",
"373 86 OFFCURVE",
"373 86 CURVE",
"373 86 OFFCURVE",
"372 87 OFFCURVE",
"372 87 CURVE",
"372 87 OFFCURVE",
"371 87 OFFCURVE",
"370 88 CURVE",
"370 88 OFFCURVE",
"370 88 OFFCURVE",
"370 88 CURVE",
"366 91 LINE",
"366 91 OFFCURVE",
"366 91 OFFCURVE",
"366 91 CURVE",
"366 91 OFFCURVE",
"365 91 OFFCURVE",
"365 92 CURVE",
"365 92 OFFCURVE",
"365 92 OFFCURVE",
"364 92 CURVE",
"364 92 OFFCURVE",
"363 93 OFFCURVE",
"363 93 CURVE",
"363 93 OFFCURVE",
"363 93 OFFCURVE",
"363 93 CURVE",
"363 93 OFFCURVE",
"361 94 OFFCURVE",
"361 94 CURVE",
"353 98 OFFCURVE",
"348 100 OFFCURVE",
"346 100 CURVE",
"345 103 LINE",
"345 104 LINE",
"381 133 OFFCURVE",
"398 180 OFFCURVE",
"396 209 CURVE",
"390 340 OFFCURVE",
"266 336 OFFCURVE",
"266 336 CURVE",
"215 336 OFFCURVE",
"230 283 OFFCURVE",
"270 285 CURVE",
"323 288 OFFCURVE",
"333 234 OFFCURVE",
"333 234 CURVE",
"342 204 OFFCURVE",
"333 178 OFFCURVE",
"316 156 CURVE",
"315 156 OFFCURVE",
"315 156 OFFCURVE",
"315 156 CURVE",
"315 155 OFFCURVE",
"314 154 OFFCURVE",
"313 153 CURVE",
"313 153 OFFCURVE",
"313 153 OFFCURVE",
"312 152 CURVE",
"312 152 OFFCURVE",
"312 151 OFFCURVE",
"311 151 CURVE",
"311 150 OFFCURVE",
"310 150 OFFCURVE",
"310 149 CURVE",
"310 149 OFFCURVE",
"309 149 OFFCURVE",
"309 149 CURVE",
"302 141 OFFCURVE",
"294 134 OFFCURVE",
"286 127 CURVE",
"285 126 OFFCURVE",
"284 126 OFFCURVE",
"283 125 CURVE",
"283 125 OFFCURVE",
"282 125 OFFCURVE",
"282 124 CURVE",
"281 123 OFFCURVE",
"280 123 OFFCURVE",
"279 122 CURVE",
"279 122 OFFCURVE",
"278 122 OFFCURVE",
"278 121 CURVE",
"277 121 OFFCURVE",
"276 120 OFFCURVE",
"275 119 CURVE",
"275 119 OFFCURVE",
"274 119 OFFCURVE",
"274 118 CURVE",
"273 118 OFFCURVE",
"272 117 OFFCURVE",
"271 116 CURVE",
"271 116 OFFCURVE",
"271 116 OFFCURVE",
"270 116 CURVE",
"269 115 OFFCURVE",
"268 114 OFFCURVE",
"267 113 CURVE",
"267 113 OFFCURVE",
"266 113 OFFCURVE",
"266 113 CURVE",
"265 112 OFFCURVE",
"264 111 OFFCURVE",
"263 111 CURVE",
"263 110 OFFCURVE",
"262 110 OFFCURVE",
"262 110 CURVE",
"261 109 OFFCURVE",
"260 109 OFFCURVE",
"259 108 CURVE",
"259 108 OFFCURVE",
"259 108 OFFCURVE",
"258 107 CURVE",
"257 107 OFFCURVE",
"256 106 OFFCURVE",
"255 105 CURVE",
"254 105 OFFCURVE",
"254 105 OFFCURVE",
"254 104 CURVE",
"253 104 OFFCURVE",
"252 103 OFFCURVE",
"251 103 CURVE",
"251 102 OFFCURVE",
"250 102 OFFCURVE",
"250 102 CURVE",
"249 101 OFFCURVE",
"248 101 OFFCURVE",
"247 100 CURVE",
"247 100 OFFCURVE",
"246 99 OFFCURVE",
"246 99 CURVE",
"245 99 OFFCURVE",
"244 98 OFFCURVE",
"243 97 CURVE",
"242 97 OFFCURVE",
"242 97 OFFCURVE",
"241 96 CURVE",
"240 96 OFFCURVE",
"240 96 OFFCURVE",
"239 95 CURVE",
"238 95 OFFCURVE",
"238 94 OFFCURVE",
"237 94 CURVE",
"237 94 OFFCURVE",
"236 93 OFFCURVE",
"235 93 CURVE",
"234 92 OFFCURVE",
"233 91 OFFCURVE",
"232 91 CURVE",
"231 90 OFFCURVE",
"231 90 OFFCURVE",
"231 90 CURVE",
"230 90 OFFCURVE",
"229 89 OFFCURVE",
"228 88 CURVE",
"220 84 OFFCURVE",
"202 73 OFFCURVE",
"188 64 CURVE",
"185 62 OFFCURVE",
"182 60 OFFCURVE",
"179 58 CURVE",
"179 58 OFFCURVE",
"179 58 OFFCURVE",
"179 58 CURVE",
"177 56 OFFCURVE",
"175 55 OFFCURVE",
"173 54 CURVE",
"173 54 OFFCURVE",
"173 54 OFFCURVE",
"173 54 CURVE",
"172 53 OFFCURVE",
"172 52 OFFCURVE",
"171 52 CURVE",
"171 52 OFFCURVE",
"171 52 OFFCURVE",
"171 51 CURVE",
"170 51 OFFCURVE",
"169 50 OFFCURVE",
"168 50 CURVE",
"168 49 OFFCURVE",
"168 49 OFFCURVE",
"168 49 CURVE",
"167 49 OFFCURVE",
"167 48 OFFCURVE",
"167 48 CURVE",
"166 48 OFFCURVE",
"166 47 OFFCURVE",
"166 47 CURVE",
"166 47 OFFCURVE",
"165 47 OFFCURVE",
"165 46 CURVE",
"165 46 OFFCURVE",
"165 46 OFFCURVE",
"164 46 CURVE",
"164 45 OFFCURVE",
"164 45 OFFCURVE",
"164 45 CURVE",
"163 44 OFFCURVE",
"163 44 OFFCURVE",
"163 44 CURVE",
"163 44 OFFCURVE",
"163 43 OFFCURVE",
"163 43 CURVE",
"162 43 OFFCURVE",
"162 43 OFFCURVE",
"162 42 CURVE",
"162 42 OFFCURVE",
"162 42 OFFCURVE",
"162 42 CURVE",
"161 41 OFFCURVE",
"161 41 OFFCURVE",
"161 41 CURVE",
"161 40 OFFCURVE",
"161 40 OFFCURVE",
"161 40 CURVE",
"161 40 OFFCURVE",
"161 39 OFFCURVE",
"161 39 CURVE",
"161 39 OFFCURVE",
"160 39 OFFCURVE",
"160 38 CURVE",
"160 38 OFFCURVE",
"160 38 OFFCURVE",
"160 38 CURVE",
"160 37 OFFCURVE",
"160 37 OFFCURVE",
"160 37 CURVE",
"160 37 OFFCURVE",
"160 36 OFFCURVE",
"160 36 CURVE",
"160 36 OFFCURVE",
"160 35 OFFCURVE",
"160 35 CURVE",
"160 35 OFFCURVE",
"160 34 OFFCURVE",
"160 34 CURVE",
"160 34 OFFCURVE",
"160 34 OFFCURVE",
"160 34 CURVE",
"160 33 OFFCURVE",
"160 33 OFFCURVE",
"160 33 CURVE",
"160 33 OFFCURVE",
"160 32 OFFCURVE",
"160 32 CURVE",
"160 32 OFFCURVE",
"160 32 OFFCURVE",
"160 32 CURVE",
"161 31 OFFCURVE",
"161 31 OFFCURVE",
"161 31 CURVE",
"161 31 OFFCURVE",
"161 31 OFFCURVE",
"161 30 CURVE",
"161 30 OFFCURVE",
"161 30 OFFCURVE",
"161 30 CURVE",
"161 30 OFFCURVE",
"161 29 OFFCURVE",
"162 29 CURVE",
"162 29 OFFCURVE",
"162 29 OFFCURVE",
"162 29 CURVE",
"162 28 OFFCURVE",
"162 28 OFFCURVE",
"162 28 CURVE",
"162 28 OFFCURVE",
"163 28 OFFCURVE",
"163 27 CURVE",
"163 27 OFFCURVE",
"163 27 OFFCURVE",
"163 27 CURVE",
"163 27 OFFCURVE",
"163 26 OFFCURVE",
"164 26 CURVE",
"164 26 OFFCURVE",
"164 26 OFFCURVE",
"164 26 CURVE",
"164 25 OFFCURVE",
"165 25 OFFCURVE",
"165 25 CURVE",
"165 25 OFFCURVE",
"165 25 OFFCURVE",
"166 25 CURVE",
"166 24 OFFCURVE",
"166 24 OFFCURVE",
"166 24 CURVE",
"166 24 OFFCURVE",
"167 24 OFFCURVE",
"167 24 CURVE",
"167 23 OFFCURVE",
"167 23 OFFCURVE",
"167 23 CURVE",
"168 23 OFFCURVE",
"168 23 OFFCURVE",
"168 23 CURVE",
"168 23 OFFCURVE",
"168 23 OFFCURVE",
"169 22 CURVE",
"169 22 OFFCURVE",
"169 22 OFFCURVE",
"169 22 CURVE",
"169 22 OFFCURVE",
"170 22 OFFCURVE",
"170 22 CURVE",
"170 22 OFFCURVE",
"170 21 OFFCURVE",
"171 21 CURVE",
"171 21 OFFCURVE",
"171 21 OFFCURVE",
"171 21 CURVE",
"172 21 OFFCURVE",
"172 21 OFFCURVE",
"172 21 CURVE",
"172 21 OFFCURVE",
"172 21 OFFCURVE",
"173 20 CURVE",
"173 20 OFFCURVE",
"173 20 OFFCURVE",
"173 20 CURVE",
"174 20 OFFCURVE",
"174 20 OFFCURVE",
"174 20 CURVE",
"174 20 OFFCURVE",
"175 20 OFFCURVE",
"175 20 CURVE",
"175 20 OFFCURVE",
"176 20 OFFCURVE",
"176 19 CURVE",
"176 19 OFFCURVE",
"177 19 OFFCURVE",
"177 19 CURVE",
"177 19 OFFCURVE",
"177 19 OFFCURVE",
"178 19 CURVE",
"178 19 OFFCURVE",
"178 19 OFFCURVE",
"178 19 CURVE",
"179 19 OFFCURVE",
"179 19 OFFCURVE",
"179 19 CURVE",
"179 19 OFFCURVE",
"180 19 OFFCURVE",
"180 19 CURVE",
"180 19 OFFCURVE",
"180 19 OFFCURVE",
"181 19 CURVE",
"181 19 OFFCURVE",
"181 19 OFFCURVE",
"181 19 CURVE",
"182 19 OFFCURVE",
"182 19 OFFCURVE",
"182 19 CURVE",
"182 19 OFFCURVE",
"182 19 OFFCURVE",
"182 19 CURVE",
"182 19 OFFCURVE",
"183 19 OFFCURVE",
"183 19 CURVE",
"183 19 OFFCURVE",
"183 19 OFFCURVE",
"184 19 CURVE",
"184 19 OFFCURVE",
"184 19 OFFCURVE",
"184 19 CURVE",
"179 19 OFFCURVE",
"172 19 OFFCURVE",
"186 19 CURVE",
"186 19 OFFCURVE",
"187 20 OFFCURVE",
"187 20 CURVE",
"199 23 OFFCURVE",
"243 43 OFFCURVE",
"264 49 CURVE",
"265 49 OFFCURVE",
"266 50 OFFCURVE",
"267 50 CURVE",
"268 50 OFFCURVE",
"269 50 OFFCURVE",
"269 50 CURVE",
"269 50 OFFCURVE",
"269 50 OFFCURVE",
"270 50 CURVE",
"270 51 OFFCURVE",
"271 51 OFFCURVE",
"272 51 CURVE",
"272 51 OFFCURVE",
"272 51 OFFCURVE",
"273 51 CURVE",
"287 51 OFFCURVE",
"261 51 OFFCURVE",
"275 51 CURVE",
"276 52 OFFCURVE",
"277 52 OFFCURVE",
"278 52 CURVE",
"281 52 OFFCURVE",
"283 52 OFFCURVE",
"285 53 CURVE",
"286 53 OFFCURVE",
"286 53 OFFCURVE",
"286 53 CURVE",
"287 53 OFFCURVE",
"287 53 OFFCURVE",
"288 53 CURVE",
"288 53 OFFCURVE",
"288 53 OFFCURVE",
"289 53 CURVE",
"289 53 OFFCURVE",
"290 53 OFFCURVE",
"291 53 CURVE",
"291 53 OFFCURVE",
"291 53 OFFCURVE",
"291 53 CURVE",
"292 53 OFFCURVE",
"293 53 OFFCURVE",
"293 53 CURVE",
"294 53 OFFCURVE",
"294 53 OFFCURVE",
"294 53 CURVE",
"296 53 OFFCURVE",
"298 53 OFFCURVE",
"300 53 CURVE",
"301 53 OFFCURVE",
"301 53 OFFCURVE",
"301 53 CURVE",
"302 53 OFFCURVE",
"302 53 OFFCURVE",
"303 53 CURVE",
"303 52 OFFCURVE",
"303 52 OFFCURVE",
"304 52 CURVE",
"304 52 OFFCURVE",
"305 52 OFFCURVE",
"305 52 CURVE",
"306 52 OFFCURVE",
"306 52 OFFCURVE",
"306 52 CURVE",
"307 52 OFFCURVE",
"307 52 OFFCURVE",
"308 52 CURVE",
"308 52 OFFCURVE",
"309 52 OFFCURVE",
"309 52 CURVE",
"311 51 OFFCURVE",
"313 51 OFFCURVE",
"314 50 CURVE",
"315 50 OFFCURVE",
"315 50 OFFCURVE",
"315 50 CURVE",
"316 50 OFFCURVE",
"316 50 OFFCURVE",
"317 50 CURVE",
"317 50 OFFCURVE",
"317 50 OFFCURVE",
"318 49 CURVE",
"318 49 OFFCURVE",
"319 49 OFFCURVE",
"319 49 CURVE",
"319 49 OFFCURVE",
"320 49 OFFCURVE",
"320 49 CURVE",
"320 48 OFFCURVE",
"321 48 OFFCURVE",
"321 48 CURVE",
"322 48 OFFCURVE",
"322 48 OFFCURVE",
"322 48 CURVE",
"323 48 OFFCURVE",
"323 47 OFFCURVE",
"324 47 CURVE",
"324 47 OFFCURVE",
"324 47 OFFCURVE",
"324 47 CURVE",
"325 47 OFFCURVE",
"326 46 OFFCURVE",
"327 46 CURVE",
"327 45 OFFCURVE",
"328 45 OFFCURVE",
"328 45 CURVE",
"328 45 OFFCURVE",
"329 45 OFFCURVE",
"329 44 CURVE",
"329 44 OFFCURVE",
"330 44 OFFCURVE",
"330 44 CURVE",
"330 44 OFFCURVE",
"331 43 OFFCURVE",
"331 43 CURVE",
"331 43 OFFCURVE",
"332 43 OFFCURVE",
"332 43 CURVE",
"332 42 OFFCURVE",
"333 42 OFFCURVE",
"333 42 CURVE",
"333 42 OFFCURVE",
"334 41 OFFCURVE",
"334 41 CURVE",
"334 41 OFFCURVE",
"335 41 OFFCURVE",
"335 40 CURVE",
"335 40 OFFCURVE",
"336 40 OFFCURVE",
"336 40 CURVE",
"337 39 OFFCURVE",
"337 39 OFFCURVE",
"338 38 CURVE",
"338 38 OFFCURVE",
"339 37 OFFCURVE",
"339 37 CURVE",
"339 37 OFFCURVE",
"340 37 OFFCURVE",
"340 36 CURVE",
"340 36 OFFCURVE",
"341 36 OFFCURVE",
"341 35 CURVE",
"341 35 OFFCURVE",
"341 35 OFFCURVE",
"342 34 CURVE",
"342 34 OFFCURVE",
"342 34 OFFCURVE",
"343 34 CURVE",
"343 33 OFFCURVE",
"343 33 OFFCURVE",
"344 33 CURVE",
"344 32 OFFCURVE",
"344 32 OFFCURVE",
"344 32 CURVE",
"345 31 OFFCURVE",
"345 31 OFFCURVE",
"345 31 CURVE",
"345 30 OFFCURVE",
"346 30 OFFCURVE",
"346 30 CURVE",
"346 29 OFFCURVE",
"347 28 OFFCURVE",
"348 27 CURVE",
"348 27 OFFCURVE",
"348 27 OFFCURVE",
"348 26 CURVE",
"349 26 OFFCURVE",
"349 26 OFFCURVE",
"349 25 CURVE",
"349 25 OFFCURVE",
"350 24 OFFCURVE",
"350 24 CURVE",
"350 24 OFFCURVE",
"350 23 OFFCURVE",
"351 23 CURVE",
"351 22 OFFCURVE",
"351 22 OFFCURVE",
"351 22 CURVE",
"352 21 OFFCURVE",
"352 21 OFFCURVE",
"352 20 CURVE",
"352 20 OFFCURVE",
"353 20 OFFCURVE",
"353 19 CURVE",
"353 19 OFFCURVE",
"353 18 OFFCURVE",
"354 18 CURVE",
"354 17 OFFCURVE",
"354 17 OFFCURVE",
"354 17 CURVE",
"355 16 OFFCURVE",
"355 15 OFFCURVE",
"356 14 CURVE",
"356 13 OFFCURVE",
"356 13 OFFCURVE",
"356 13 CURVE",
"356 12 OFFCURVE",
"357 11 OFFCURVE",
"357 11 CURVE",
"357 10 OFFCURVE",
"357 10 OFFCURVE",
"357 10 CURVE",
"357 9 OFFCURVE",
"358 9 OFFCURVE",
"358 8 CURVE",
"358 8 OFFCURVE",
"358 7 OFFCURVE",
"358 7 CURVE",
"359 6 OFFCURVE",
"359 5 OFFCURVE",
"359 5 CURVE",
"359 4 OFFCURVE",
"359 4 OFFCURVE",
"359 4 CURVE",
"360 3 OFFCURVE",
"360 2 OFFCURVE",
"360 2 CURVE",
"360 1 OFFCURVE",
"360 1 OFFCURVE",
"360 1 CURVE",
"361 -1 OFFCURVE",
"361 -2 OFFCURVE",
"361 -3 CURVE",
"362 -4 OFFCURVE",
"362 -4 OFFCURVE",
"362 -5 CURVE",
"362 -5 OFFCURVE",
"362 -6 OFFCURVE",
"362 -7 CURVE",
"362 -7 OFFCURVE",
"362 -8 OFFCURVE",
"363 -8 CURVE",
"363 -9 OFFCURVE",
"363 -9 OFFCURVE",
"363 -10 CURVE",
"363 -11 OFFCURVE",
"363 -11 OFFCURVE",
"363 -12 CURVE",
"363 -12 OFFCURVE",
"364 -13 OFFCURVE",
"364 -14 CURVE",
"364 -14 OFFCURVE",
"364 -15 OFFCURVE",
"364 -15 CURVE",
"364 -16 OFFCURVE",
"364 -17 OFFCURVE",
"364 -18 CURVE",
"364 -18 OFFCURVE",
"365 -18 OFFCURVE",
"365 -19 CURVE",
"365 -21 OFFCURVE",
"365 -22 OFFCURVE",
"365 -24 CURVE",
"365 -24 OFFCURVE",
"365 -25 OFFCURVE",
"365 -25 CURVE",
"366 -26 OFFCURVE",
"366 -27 OFFCURVE",
"366 -28 CURVE",
"366 -28 OFFCURVE",
"366 -29 OFFCURVE",
"366 -29 CURVE",
"366 -30 OFFCURVE",
"366 -31 OFFCURVE",
"366 -32 CURVE",
"366 -32 OFFCURVE",
"366 -33 OFFCURVE",
"366 -33 CURVE",
"366 -34 OFFCURVE",
"366 -35 OFFCURVE",
"366 -36 CURVE",
"366 -37 OFFCURVE",
"366 -37 OFFCURVE",
"366 -38 CURVE",
"367 -39 OFFCURVE",
"367 -40 OFFCURVE",
"367 -40 CURVE",
"367 -41 OFFCURVE",
"367 -42 OFFCURVE",
"367 -42 CURVE",
"367 -44 OFFCURVE",
"367 -46 OFFCURVE",
"367 -48 CURVE",
"367 -48 OFFCURVE",
"367 -49 OFFCURVE",
"367 -49 CURVE",
"367 -50 OFFCURVE",
"367 -51 OFFCURVE",
"367 -52 CURVE",
"367 -53 OFFCURVE",
"367 -53 OFFCURVE",
"367 -54 CURVE",
"367 -55 OFFCURVE",
"367 -56 OFFCURVE",
"367 -57 CURVE",
"367 -58 OFFCURVE",
"367 -58 OFFCURVE",
"367 -59 CURVE",
"367 -60 OFFCURVE",
"367 -61 OFFCURVE",
"367 -62 CURVE",
"366 -80 OFFCURVE",
"364 -100 OFFCURVE",
"360 -123 CURVE",
"350 -182 OFFCURVE",
"322 -315 OFFCURVE",
"218 -324 CURVE",
"214 -324 OFFCURVE",
"211 -325 OFFCURVE",
"208 -325 CURVE",
"136 -325 OFFCURVE",
"114 -268 OFFCURVE",
"111 -243 CURVE",
"108 -218 OFFCURVE",
"117 -185 OFFCURVE",
"138 -175 CURVE",
"145 -181 OFFCURVE",
"154 -185 OFFCURVE",
"165 -185 CURVE",
"188 -185 OFFCURVE",
"208 -165 OFFCURVE",
"208 -142 CURVE",
"208 -130 OFFCURVE",
"203 -120 OFFCURVE",
"196 -112 CURVE",
"177 -90 OFFCURVE",
"132 -88 OFFCURVE",
"84 -142 CURVE",
"9 -226 OFFCURVE",
"61 -377 OFFCURVE",
"216 -377 CURVE",
"217 -377 OFFCURVE",
"217 -377 OFFCURVE",
"218 -377 CURVE",
"378 -375 OFFCURVE",
"412 -191 OFFCURVE",
"422 -115 CURVE",
"425 -96 OFFCURVE",
"426 -79 OFFCURVE",
"427 -63 CURVE",
"427 -62 OFFCURVE",
"427 -61 OFFCURVE",
"427 -60 CURVE",
"427 -59 OFFCURVE",
"427 -58 OFFCURVE",
"427 -57 CURVE"
);
}
);
width = 477;
},
{
associatedMasterId = "FD4E62BB-26D6-4FFD-A4F8-E1C01461A73C";
layerId = "59392120-AB3C-4FA6-A633-7133FC0B2E1B";
name = "Regular Feb 8 17, 14:28";
paths = (
{
closed = 1;
nodes = (
"312 -10 LINE",
"311 -93 OFFCURVE",
"309 -157 OFFCURVE",
"309 -220 CURVE SMOOTH",
"309 -287 OFFCURVE",
"265 -327 OFFCURVE",
"198 -327 CURVE SMOOTH",
"131 -327 OFFCURVE",
"90 -279 OFFCURVE",
"90 -238 CURVE",
"90 -214 OFFCURVE",
"97 -186 OFFCURVE",
"118 -177 CURVE",
"125 -183 OFFCURVE",
"135 -186 OFFCURVE",
"145 -186 CURVE",
"183 -186 OFFCURVE",
"202 -139 OFFCURVE",
"177 -114 CURVE",
"157 -91 OFFCURVE",
"106 -96 OFFCURVE",
"64 -143 CURVE",
"41 -169 OFFCURVE",
"30 -200 OFFCURVE",
"30 -238 CURVE SMOOTH",
"30 -304 OFFCURVE",
"84 -377 OFFCURVE",
"198 -377 CURVE",
"311 -377 OFFCURVE",
"369 -311 OFFCURVE",
"369 -192 CURVE",
"369 -136 OFFCURVE",
"369 -67 OFFCURVE",
"369 -10 CURVE"
);
},
{
closed = 1;
nodes = (
"369 -10 LINE",
"369 8 OFFCURVE",
"367 63 OFFCURVE",
"314 94 CURVE",
"306 98 OFFCURVE",
"301 100 OFFCURVE",
"299 100 CURVE",
"299 101 LINE",
"335 130 OFFCURVE",
"351 180 OFFCURVE",
"349 209 CURVE",
"343 340 OFFCURVE",
"219 336 OFFCURVE",
"219 336 CURVE",
"168 336 OFFCURVE",
"183 283 OFFCURVE",
"223 285 CURVE",
"261 280 OFFCURVE",
"291 250 OFFCURVE",
"289 210 CURVE SMOOTH",
"287 163 OFFCURVE",
"261 117 OFFCURVE",
"126 57 CURVE",
"115 50 OFFCURVE",
"111 35 OFFCURVE",
"116 27 CURVE",
"121 19 OFFCURVE",
"135 16 OFFCURVE",
"145 21 CURVE SMOOTH",
"198 47 OFFCURVE",
"218 53 OFFCURVE",
"244 53 CURVE",
"275 54 OFFCURVE",
"312 30 OFFCURVE",
"312 -10 CURVE"
);
}
);
width = 399;
}
);
unicode = 10D9;
},
{
color = 3;
glyphname = "las-georgian";
lastChange = "2017-03-21 06:57:23 +0000";
layers = (
{
background = {
paths = (
{
closed = 1;
nodes = (
"174 338 LINE",
"69 337 OFFCURVE",
"23 244 OFFCURVE",
"31 157 CURVE SMOOTH",
"43 0 OFFCURVE",
"209 -99 OFFCURVE",
"209 -99 CURVE",
"209 -100 LINE",
"172 -93 OFFCURVE",
"134 -91 OFFCURVE",
"109 -93 CURVE SMOOTH",
"87 -95 OFFCURVE",
"79 -106 OFFCURVE",
"79 -119 CURVE SMOOTH",
"79 -138 OFFCURVE",
"95 -143 OFFCURVE",
"118 -143 CURVE SMOOTH",
"296 -143 OFFCURVE",
"420 -210 OFFCURVE",
"475 -352 CURVE SMOOTH",
"490 -391 OFFCURVE",
"534 -382 OFFCURVE",
"523 -329 CURVE SMOOTH",
"518 -305 OFFCURVE",
"474 -210 OFFCURVE",
"332 -125 CURVE SMOOTH",
"192 -42 OFFCURVE",
"91 65 OFFCURVE",
"91 157 CURVE SMOOTH",
"91 233 OFFCURVE",
"121 287 OFFCURVE",
"174 288 CURVE"
);
},
{
closed = 1;
nodes = (
"174 288 LINE",
"174 288 OFFCURVE",
"174 288 OFFCURVE",
"174 288 CURVE SMOOTH",
"225 288 OFFCURVE",
"269 248 OFFCURVE",
"269 157 CURVE SMOOTH",
"269 120 OFFCURVE",
"261 92 OFFCURVE",
"253 75 CURVE",
"249 77 OFFCURVE",
"245 77 OFFCURVE",
"240 77 CURVE SMOOTH",
"217 77 OFFCURVE",
"197 58 OFFCURVE",
"197 34 CURVE SMOOTH",
"197 10 OFFCURVE",
"217 -9 OFFCURVE",
"240 -9 CURVE SMOOTH",
"292 -9 OFFCURVE",
"329 78 OFFCURVE",
"329 157 CURVE",
"329 275 OFFCURVE",
"263 340 OFFCURVE",
"174 338 CURVE SMOOTH",
"174 338 OFFCURVE",
"174 338 OFFCURVE",
"174 338 CURVE"
);
},
{
closed = 1;
nodes = (
"271 228 LINE",
"288 267 OFFCURVE",
"321 286 OFFCURVE",
"360 286 CURVE SMOOTH",
"418 286 OFFCURVE",
"464 246 OFFCURVE",
"464 155 CURVE SMOOTH",
"464 118 OFFCURVE",
"456 90 OFFCURVE",
"448 73 CURVE",
"444 75 OFFCURVE",
"440 75 OFFCURVE",
"435 75 CURVE SMOOTH",
"412 75 OFFCURVE",
"392 56 OFFCURVE",
"392 32 CURVE SMOOTH",
"392 8 OFFCURVE",
"412 -11 OFFCURVE",
"435 -11 CURVE SMOOTH",
"487 -11 OFFCURVE",
"524 76 OFFCURVE",
"524 155 CURVE",
"524 273 OFFCURVE",
"454 338 OFFCURVE",
"360 336 CURVE SMOOTH",
"304 335 OFFCURVE",
"259 311 OFFCURVE",
"231 272 CURVE"
);
},
{
closed = 1;
nodes = (
"462 228 LINE",
"479 267 OFFCURVE",
"512 286 OFFCURVE",
"551 286 CURVE SMOOTH",
"609 286 OFFCURVE",
"655 246 OFFCURVE",
"655 155 CURVE SMOOTH",
"655 118 OFFCURVE",
"647 90 OFFCURVE",
"639 73 CURVE",
"635 75 OFFCURVE",
"631 75 OFFCURVE",
"626 75 CURVE SMOOTH",
"603 75 OFFCURVE",
"583 56 OFFCURVE",
"583 32 CURVE SMOOTH",
"583 8 OFFCURVE",
"603 -11 OFFCURVE",
"626 -11 CURVE SMOOTH",
"678 -11 OFFCURVE",
"715 76 OFFCURVE",
"715 155 CURVE",
"715 273 OFFCURVE",
"645 338 OFFCURVE",
"551 336 CURVE SMOOTH",
"495 335 OFFCURVE",
"450 311 OFFCURVE",
"422 272 CURVE"
);
}
);
};
backgroundImage = {
crop = "{{0, 0}, {39.222, 22.428}}";
imagePath = images/lari.jpg;
locked = "1";
transform = "{55.451, 0, 0, 55.451, -15, -423}";
};
layerId = "FD4E62BB-26D6-4FFD-A4F8-E1C01461A73C";
paths = (
{
closed = 1;
nodes = (
"31 158 LINE",
"31 157.922 OFFCURVE",
"31.001 157.844 OFFCURVE",
"31.005 157.766 CURVE"
);
},
{
closed = 1;
nodes = (
"32.16 5.893 OFFCURVE",
"188.003 -98.002 OFFCURVE",
"193 -101 CURVE",
"193 -102 LINE",
"156 -92 OFFCURVE",
"109 -88 OFFCURVE",
"84 -90 CURVE SMOOTH",
"62 -92 OFFCURVE",
"54 -107 OFFCURVE",
"54 -120 CURVE SMOOTH",
"54 -144 OFFCURVE",
"79 -146 OFFCURVE",
"106 -146 CURVE SMOOTH",
"288 -146 OFFCURVE",
"350 -256 OFFCURVE",
"405 -345 CURVE SMOOTH",
"414 -360 OFFCURVE",
"426 -366 OFFCURVE",
"437 -366 CURVE SMOOTH",
"454 -366 OFFCURVE",
"469 -350 OFFCURVE",
"465 -331 CURVE",
"459 -307 OFFCURVE",
"429 -248 OFFCURVE",
"313 -144 CURVE SMOOTH",
"188.085 -32.077 OFFCURVE",
"91 51 OFFCURVE",
"91.005 157.82 CURVE",
"91.216 233.388 OFFCURVE",
"121.191 287.004 OFFCURVE",
"174 288 CURVE SMOOTH",
"225 288 OFFCURVE",
"269 248 OFFCURVE",
"269 157 CURVE SMOOTH",
"269 120 OFFCURVE",
"261 92 OFFCURVE",
"253 75 CURVE",
"249 76 OFFCURVE",
"245 77 OFFCURVE",
"241 77 CURVE SMOOTH",
"220 77 OFFCURVE",
"197 61 OFFCURVE",
"197 34 CURVE SMOOTH",
"197 10 OFFCURVE",
"217 -9 OFFCURVE",
"240 -9 CURVE SMOOTH",
"292 -9 OFFCURVE",
"329 78 OFFCURVE",
"329 157 CURVE SMOOTH",
"329 202.135 OFFCURVE",
"319.344 239.515 OFFCURVE",
"302.438 268.358 CURVE",
"318.655 280.176 OFFCURVE",
"338.408 286 OFFCURVE",
"360 286 CURVE SMOOTH",
"418 286 OFFCURVE",
"464 246 OFFCURVE",
"464 155 CURVE SMOOTH",
"464 118 OFFCURVE",
"456 90 OFFCURVE",
"448 73 CURVE",
"444 74 OFFCURVE",
"440 75 OFFCURVE",
"436 75 CURVE SMOOTH",
"414 75 OFFCURVE",
"392 59 OFFCURVE",
"392 32 CURVE SMOOTH",
"392 8 OFFCURVE",
"412 -11 OFFCURVE",
"435 -11 CURVE SMOOTH",
"487 -11 OFFCURVE",
"524 76 OFFCURVE",
"524 155 CURVE SMOOTH",
"524 201.959 OFFCURVE",
"514.498 240.524 OFFCURVE",
"497.133 269.813 CURVE",
"512.158 280.654 OFFCURVE",
"530.313 286 OFFCURVE",
"551 286 CURVE SMOOTH",
"609 286 OFFCURVE",
"655 246 OFFCURVE",
"655 155 CURVE SMOOTH",
"655 118 OFFCURVE",
"647 90 OFFCURVE",
"639 73 CURVE",
"635 74 OFFCURVE",
"631 75 OFFCURVE",
"627 75 CURVE SMOOTH",
"605 75 OFFCURVE",
"583 59 OFFCURVE",
"583 32 CURVE SMOOTH",
"583 8 OFFCURVE",
"603 -11 OFFCURVE",
"626 -11 CURVE SMOOTH",
"678 -11 OFFCURVE",
"715 76 OFFCURVE",
"715 155 CURVE SMOOTH",
"715 271 OFFCURVE",
"657 336 OFFCURVE",
"565 336 CURVE SMOOTH",
"527 336 OFFCURVE",
"496 322 OFFCURVE",
"472.023 301.006 CURVE",
"447 324 OFFCURVE",
"414 336 OFFCURVE",
"374 336 CURVE SMOOTH",
"335 336 OFFCURVE",
"303 322 OFFCURVE",
"277.636 299.974 CURVE",
"252 325 OFFCURVE",
"217 338 OFFCURVE",
"178 338 CURVE SMOOTH",
"70 338 OFFCURVE",
"31 246 OFFCURVE",
"31.005 157.766 CURVE SMOOTH"
);
}
);
width = 745;
},
{
associatedMasterId = "FD4E62BB-26D6-4FFD-A4F8-E1C01461A73C";
layerId = "EC12D0BB-C59E-4486-B393-20EE8584DC26";
name = "Regular Nov 30 16, 11:54";
paths = (
{
closed = 1;
nodes = (
"1222 355 LINE",
"1117 354 OFFCURVE",
"1061 261 OFFCURVE",
"1068 174 CURVE SMOOTH",
"1081 17 OFFCURVE",
"1246 -82 OFFCURVE",
"1246 -82 CURVE",
"1246 -83 LINE",
"1209 -76 OFFCURVE",
"1171 -74 OFFCURVE",
"1146 -76 CURVE SMOOTH",
"1124 -78 OFFCURVE",
"1116 -89 OFFCURVE",
"1116 -102 CURVE SMOOTH",
"1116 -121 OFFCURVE",
"1132 -126 OFFCURVE",
"1155 -126 CURVE SMOOTH",
"1333 -126 OFFCURVE",
"1457 -193 OFFCURVE",
"1512 -335 CURVE SMOOTH",
"1527 -374 OFFCURVE",
"1571 -365 OFFCURVE",
"1560 -312 CURVE SMOOTH",
"1555 -288 OFFCURVE",
"1512 -193 OFFCURVE",
"1369 -108 CURVE SMOOTH",
"1230 -25 OFFCURVE",
"1128 82 OFFCURVE",
"1128 174 CURVE SMOOTH",
"1128 250 OFFCURVE",
"1169 304 OFFCURVE",
"1222 305 CURVE"
);
},
{
closed = 1;
nodes = (
"201 337 LINE",
"96 336 OFFCURVE",
"40 243 OFFCURVE",
"47 156 CURVE SMOOTH",
"60 -1 OFFCURVE",
"225 -100 OFFCURVE",
"225 -100 CURVE",
"225 -101 LINE",
"188 -94 OFFCURVE",
"150 -92 OFFCURVE",
"125 -94 CURVE SMOOTH",
"103 -96 OFFCURVE",
"95 -107 OFFCURVE",
"95 -120 CURVE SMOOTH",
"95 -139 OFFCURVE",
"111 -144 OFFCURVE",
"134 -144 CURVE SMOOTH",
"312 -144 OFFCURVE",
"436 -211 OFFCURVE",
"491 -353 CURVE SMOOTH",
"506 -392 OFFCURVE",
"550 -383 OFFCURVE",
"539 -330 CURVE SMOOTH",
"534 -306 OFFCURVE",
"491 -211 OFFCURVE",
"348 -126 CURVE SMOOTH",
"209 -43 OFFCURVE",
"107 64 OFFCURVE",
"107 156 CURVE SMOOTH",
"107 232 OFFCURVE",
"148 286 OFFCURVE",
"201 287 CURVE"
);
},
{
closed = 1;
nodes = (
"451 337 LINE",
"451 337 OFFCURVE",
"451 337 OFFCURVE",
"451 337 CURVE SMOOTH",
"394 336 OFFCURVE",
"348 311 OFFCURVE",
"320 270 CURVE",
"297 310 OFFCURVE",
"259 337 OFFCURVE",
"202 337 CURVE SMOOTH",
"202 337 OFFCURVE",
"201 337 OFFCURVE",
"201 337 CURVE",
"201 287 LINE",
"201 287 OFFCURVE",
"202 287 OFFCURVE",
"202 287 CURVE SMOOTH",
"258 287 OFFCURVE",
"287 242 OFFCURVE",
"288 156 CURVE SMOOTH",
"289 69 OFFCURVE",
"279 54 OFFCURVE",
"279 54 CURVE",
"276 47 OFFCURVE",
"274 40 OFFCURVE",
"274 33 CURVE SMOOTH",
"274 9 OFFCURVE",
"293 -10 OFFCURVE",
"317 -10 CURVE SMOOTH",
"341 -10 OFFCURVE",
"360 9 OFFCURVE",
"360 33 CURVE SMOOTH",
"360 41 OFFCURVE",
"358 49 OFFCURVE",
"354 55 CURVE",
"354 55 OFFCURVE",
"349 72 OFFCURVE",
"348 156 CURVE SMOOTH",
"347 242 OFFCURVE",
"392 287 OFFCURVE",
"451 287 CURVE SMOOTH",
"451 287 OFFCURVE",
"451 287 OFFCURVE",
"451 287 CURVE"
);
},
{
closed = 1;
nodes = (
"451 287 LINE",
"451 287 OFFCURVE",
"452 287 OFFCURVE",
"452 287 CURVE SMOOTH",
"508 287 OFFCURVE",
"537 242 OFFCURVE",
"538 156 CURVE SMOOTH",
"539 69 OFFCURVE",
"529 54 OFFCURVE",
"529 54 CURVE",
"526 47 OFFCURVE",
"524 40 OFFCURVE",
"524 33 CURVE SMOOTH",
"524 9 OFFCURVE",
"543 -10 OFFCURVE",
"567 -10 CURVE SMOOTH",
"591 -10 OFFCURVE",
"610 9 OFFCURVE",
"610 33 CURVE SMOOTH",
"610 41 OFFCURVE",
"608 49 OFFCURVE",
"604 55 CURVE",
"604 55 OFFCURVE",
"599 72 OFFCURVE",
"598 156 CURVE SMOOTH",
"597 242 OFFCURVE",
"642 287 OFFCURVE",
"701 287 CURVE SMOOTH",
"759 287 OFFCURVE",
"805 247 OFFCURVE",
"805 156 CURVE SMOOTH",
"805 119 OFFCURVE",
"797 91 OFFCURVE",
"789 74 CURVE",
"785 76 OFFCURVE",
"781 76 OFFCURVE",
"776 76 CURVE SMOOTH",
"753 76 OFFCURVE",
"733 57 OFFCURVE",
"733 33 CURVE SMOOTH",
"733 9 OFFCURVE",
"753 -10 OFFCURVE",
"776 -10 CURVE SMOOTH",
"828 -10 OFFCURVE",
"865 77 OFFCURVE",
"865 156 CURVE",
"865 274 OFFCURVE",
"795 339 OFFCURVE",
"701 337 CURVE SMOOTH",
"644 336 OFFCURVE",
"598 311 OFFCURVE",
"570 270 CURVE",
"547 310 OFFCURVE",
"509 337 OFFCURVE",
"452 337 CURVE SMOOTH",
"452 337 OFFCURVE",
"451 337 OFFCURVE",
"451 337 CURVE"
);
},
{
closed = 1;
nodes = (
"1222 305 LINE",
"1222 305 OFFCURVE",
"1222 305 OFFCURVE",
"1222 305 CURVE SMOOTH",
"1280 305 OFFCURVE",
"1326 265 OFFCURVE",
"1326 174 CURVE SMOOTH",
"1326 137 OFFCURVE",
"1318 109 OFFCURVE",
"1310 92 CURVE",
"1306 94 OFFCURVE",
"1302 94 OFFCURVE",
"1297 94 CURVE SMOOTH",
"1274 94 OFFCURVE",
"1254 75 OFFCURVE",
"1254 51 CURVE SMOOTH",
"1254 27 OFFCURVE",
"1274 8 OFFCURVE",
"1297 8 CURVE SMOOTH",
"1349 8 OFFCURVE",
"1386 95 OFFCURVE",
"1386 174 CURVE",
"1386 292 OFFCURVE",
"1316 357 OFFCURVE",
"1222 355 CURVE SMOOTH",
"1222 355 OFFCURVE",
"1222 355 OFFCURVE",
"1222 355 CURVE"
);
},
{
closed = 1;
nodes = (
"1372 256 LINE",
"1389 295 OFFCURVE",
"1422 314 OFFCURVE",
"1461 314 CURVE SMOOTH",
"1519 314 OFFCURVE",
"1565 274 OFFCURVE",
"1565 183 CURVE SMOOTH",
"1565 146 OFFCURVE",
"1557 118 OFFCURVE",
"1549 101 CURVE",
"1545 103 OFFCURVE",
"1541 103 OFFCURVE",
"1536 103 CURVE SMOOTH",
"1513 103 OFFCURVE",
"1493 84 OFFCURVE",
"1493 60 CURVE SMOOTH",
"1493 36 OFFCURVE",
"1513 17 OFFCURVE",
"1536 17 CURVE SMOOTH",
"1588 17 OFFCURVE",
"1625 104 OFFCURVE",
"1625 183 CURVE",
"1625 301 OFFCURVE",
"1555 366 OFFCURVE",
"1461 364 CURVE SMOOTH",
"1405 363 OFFCURVE",
"1360 339 OFFCURVE",
"1332 300 CURVE"
);
},
{
closed = 1;
nodes = (
"1615 256 LINE",
"1632 295 OFFCURVE",
"1665 314 OFFCURVE",
"1704 314 CURVE SMOOTH",
"1762 314 OFFCURVE",
"1808 274 OFFCURVE",
"1808 183 CURVE SMOOTH",
"1808 146 OFFCURVE",
"1800 118 OFFCURVE",
"1792 101 CURVE",
"1788 103 OFFCURVE",
"1784 103 OFFCURVE",
"1779 103 CURVE SMOOTH",
"1756 103 OFFCURVE",
"1736 84 OFFCURVE",
"1736 60 CURVE SMOOTH",
"1736 36 OFFCURVE",
"1756 17 OFFCURVE",
"1779 17 CURVE SMOOTH",
"1831 17 OFFCURVE",
"1868 104 OFFCURVE",
"1868 183 CURVE",
"1868 301 OFFCURVE",
"1798 366 OFFCURVE",
"1704 364 CURVE SMOOTH",
"1648 363 OFFCURVE",
"1603 339 OFFCURVE",
"1575 300 CURVE"
);
}
);
width = 884;
},
{
associatedMasterId = "FD4E62BB-26D6-4FFD-A4F8-E1C01461A73C";
layerId = "1AA36588-AC77-4CE1-8840-57B848C6BF15";
name = "Regular Feb 8 17, 14:31";
paths = (
{
closed = 1;
nodes = (
"185 338 LINE",
"80 337 OFFCURVE",
"23 244 OFFCURVE",
"31 157 CURVE SMOOTH",
"43 0 OFFCURVE",
"209 -99 OFFCURVE",
"209 -99 CURVE",
"209 -100 LINE",
"172 -93 OFFCURVE",
"134 -91 OFFCURVE",
"109 -93 CURVE SMOOTH",
"87 -95 OFFCURVE",
"79 -106 OFFCURVE",
"79 -119 CURVE SMOOTH",
"79 -138 OFFCURVE",
"95 -143 OFFCURVE",
"118 -143 CURVE SMOOTH",
"296 -143 OFFCURVE",
"420 -210 OFFCURVE",
"475 -352 CURVE SMOOTH",
"490 -391 OFFCURVE",
"534 -382 OFFCURVE",
"523 -329 CURVE SMOOTH",
"518 -305 OFFCURVE",
"474 -210 OFFCURVE",
"332 -125 CURVE SMOOTH",
"192 -42 OFFCURVE",
"91 65 OFFCURVE",
"91 157 CURVE SMOOTH",
"91 233 OFFCURVE",
"132 287 OFFCURVE",
"185 288 CURVE"
);
},
{
closed = 1;
nodes = (
"185 288 LINE",
"185 288 OFFCURVE",
"185 288 OFFCURVE",
"185 288 CURVE SMOOTH",
"243 288 OFFCURVE",
"289 248 OFFCURVE",
"289 157 CURVE SMOOTH",
"289 120 OFFCURVE",
"281 92 OFFCURVE",
"273 75 CURVE",
"269 77 OFFCURVE",
"265 77 OFFCURVE",
"260 77 CURVE SMOOTH",
"237 77 OFFCURVE",
"217 58 OFFCURVE",
"217 34 CURVE SMOOTH",
"217 10 OFFCURVE",
"237 -9 OFFCURVE",
"260 -9 CURVE SMOOTH",
"312 -9 OFFCURVE",
"349 78 OFFCURVE",
"349 157 CURVE",
"349 275 OFFCURVE",
"279 340 OFFCURVE",
"185 338 CURVE SMOOTH",
"185 338 OFFCURVE",
"185 338 OFFCURVE",
"185 338 CURVE"
);
},
{
closed = 1;
nodes = (
"337 228 LINE",
"354 267 OFFCURVE",
"387 286 OFFCURVE",
"426 286 CURVE SMOOTH",
"484 286 OFFCURVE",
"530 246 OFFCURVE",
"530 155 CURVE SMOOTH",
"530 118 OFFCURVE",
"522 90 OFFCURVE",
"514 73 CURVE",
"510 75 OFFCURVE",
"506 75 OFFCURVE",
"501 75 CURVE SMOOTH",
"478 75 OFFCURVE",
"458 56 OFFCURVE",
"458 32 CURVE SMOOTH",
"458 8 OFFCURVE",
"478 -11 OFFCURVE",
"501 -11 CURVE SMOOTH",
"553 -11 OFFCURVE",
"590 76 OFFCURVE",
"590 155 CURVE",
"590 273 OFFCURVE",
"520 338 OFFCURVE",
"426 336 CURVE SMOOTH",
"370 335 OFFCURVE",
"325 311 OFFCURVE",
"297 272 CURVE"
);
},
{
closed = 1;
nodes = (
"579 228 LINE",
"596 267 OFFCURVE",
"629 286 OFFCURVE",
"668 286 CURVE SMOOTH",
"726 286 OFFCURVE",
"772 246 OFFCURVE",
"772 155 CURVE SMOOTH",
"772 118 OFFCURVE",
"764 90 OFFCURVE",
"756 73 CURVE",
"752 75 OFFCURVE",
"748 75 OFFCURVE",
"743 75 CURVE SMOOTH",
"720 75 OFFCURVE",
"700 56 OFFCURVE",
"700 32 CURVE SMOOTH",
"700 8 OFFCURVE",
"720 -11 OFFCURVE",
"743 -11 CURVE SMOOTH",
"795 -11 OFFCURVE",
"832 76 OFFCURVE",
"832 155 CURVE",
"832 273 OFFCURVE",
"762 338 OFFCURVE",
"668 336 CURVE SMOOTH",
"612 335 OFFCURVE",
"567 311 OFFCURVE",
"539 272 CURVE"
);
}
);
width = 862;
}
);
unicode = 10DA;
},
{
color = 3;
glyphname = "man-georgian";
lastChange = "2017-03-20 11:09:22 +0000";
layers = (
{
backgroundImage = {
crop = "{{0, 0}, {45.756, 22.644}}";
imagePath = images/gamo.jpg;
locked = "1";
transform = "{59.814, 0, 0, 59.814, -1125, -554}";
};
layerId = "FD4E62BB-26D6-4FFD-A4F8-E1C01461A73C";
paths = (
{
closed = 1;
nodes = (
"359 670 OFFCURVE",
"298 724 OFFCURVE",
"209 724 CURVE",
"120 724 OFFCURVE",
"58 664 OFFCURVE",
"50 588 CURVE",
"48 560 OFFCURVE",
"57 506 OFFCURVE",
"102 485 CURVE",
"109 482 OFFCURVE",
"115 481 OFFCURVE",
"121 481 CURVE SMOOTH",
"139 481 OFFCURVE",
"151 494 OFFCURVE",
"151 509 CURVE SMOOTH",
"151 518 OFFCURVE",
"146 529 OFFCURVE",
"134 535 CURVE",
"123 540 OFFCURVE",
"108 558 OFFCURVE",
"108 585 CURVE SMOOTH",
"108 590 OFFCURVE",
"109 596 OFFCURVE",
"110 602 CURVE",
"123 657 OFFCURVE",
"166 674 OFFCURVE",
"209 674 CURVE",
"253 674 OFFCURVE",
"299 636 OFFCURVE",
"299 580 CURVE",
"299 451 OFFCURVE",
"299 292 OFFCURVE",
"299 291 CURVE",
"298 290 LINE",
"270 317 OFFCURVE",
"240 335 OFFCURVE",
"188 336 CURVE",
"85 336 OFFCURVE",
"26 260 OFFCURVE",
"30 164 CURVE",
"30 68 OFFCURVE",
"95 -10 OFFCURVE",
"194 -10 CURVE",
"284 -10 OFFCURVE",
"358 53 OFFCURVE",
"358 151 CURVE",
"358 178 OFFCURVE",
"359 239 OFFCURVE",
"359 286 CURVE",
"359 393 OFFCURVE",
"359 499 OFFCURVE",
"359 585 CURVE"
);
},
{
closed = 1;
nodes = (
"133 41 OFFCURVE",
"90 92 OFFCURVE",
"90 164 CURVE",
"90 235 OFFCURVE",
"129 286 OFFCURVE",
"194 286 CURVE",
"226 286 OFFCURVE",
"269 273 OFFCURVE",
"298 236 CURVE",
"298 204 OFFCURVE",
"298 192 OFFCURVE",
"298 161 CURVE",
"298 92 OFFCURVE",
"256 40 OFFCURVE",
"194 40 CURVE"
);
}
);
width = 391;
},
{
associatedMasterId = "FD4E62BB-26D6-4FFD-A4F8-E1C01461A73C";
layerId = "ABE51A98-1489-4086-831D-9783CB74CA8D";
name = "Regular Oct 25 16, 11:55";
paths = (
{
closed = 1;
nodes = (
"356 620 OFFCURVE",
"301 679 OFFCURVE",
"212 679 CURVE",
"123 679 OFFCURVE",
"60 619 OFFCURVE",
"52 543 CURVE",
"50 515 OFFCURVE",
"59 461 OFFCURVE",
"104 440 CURVE",
"117 434 OFFCURVE",
"161 422 OFFCURVE",
"196 444 CURVE",
"210 451 OFFCURVE",
"220 466 OFFCURVE",
"220 483 CURVE",
"220 507 OFFCURVE",
"201 526 OFFCURVE",
"177 526 CURVE",
"150 526 OFFCURVE",
"135 512 OFFCURVE",
"135 490 CURVE",
"129 490 OFFCURVE",
"104 507 OFFCURVE",
"112 543 CURVE",
"125 598 OFFCURVE",
"169 629 OFFCURVE",
"212 629 CURVE",
"256 629 OFFCURVE",
"296 597 OFFCURVE",
"312 543 CURVE",
"352 408 OFFCURVE",
"341 283 OFFCURVE",
"341 282 CURVE",
"340 281 LINE",
"311 316 OFFCURVE",
"268 336 OFFCURVE",
"216 336 CURVE",
"117 336 OFFCURVE",
"52 260 OFFCURVE",
"52 164 CURVE",
"52 68 OFFCURVE",
"117 -10 OFFCURVE",
"216 -10 CURVE",
"306 -10 OFFCURVE",
"370 55 OFFCURVE",
"380 151 CURVE",
"398 289 OFFCURVE",
"400 422 OFFCURVE",
"372 547 CURVE"
);
},
{
closed = 1;
nodes = (
"155 41 OFFCURVE",
"112 92 OFFCURVE",
"112 164 CURVE",
"112 234 OFFCURVE",
"155 286 OFFCURVE",
"216 286 CURVE",
"277 286 OFFCURVE",
"320 233 OFFCURVE",
"320 151 CURVE",
"320 96 OFFCURVE",
"278 40 OFFCURVE",
"216 40 CURVE"
);
}
);
width = 446;
},
{
associatedMasterId = "FD4E62BB-26D6-4FFD-A4F8-E1C01461A73C";
layerId = "CFBC169E-45FC-4202-A193-E11149EDA517";
name = "Regular Nov 30 16, 12:30";
paths = (
{
closed = 1;
nodes = (
"383 670 OFFCURVE",
"320 724 OFFCURVE",
"231 724 CURVE",
"142 724 OFFCURVE",
"80 664 OFFCURVE",
"72 588 CURVE",
"70 560 OFFCURVE",
"79 506 OFFCURVE",
"124 485 CURVE",
"168 465 OFFCURVE",
"236 473 OFFCURVE",
"236 528 CURVE",
"236 552 OFFCURVE",
"217 571 OFFCURVE",
"193 571 CURVE",
"166 571 OFFCURVE",
"151 555 OFFCURVE",
"151 535 CURVE",
"145 535 OFFCURVE",
"124 566 OFFCURVE",
"132 602 CURVE",
"145 657 OFFCURVE",
"188 674 OFFCURVE",
"231 674 CURVE",
"275 674 OFFCURVE",
"323 636 OFFCURVE",
"323 580 CURVE SMOOTH",
"323 451 OFFCURVE",
"322 299 OFFCURVE",
"321 298 CURVE SMOOTH",
"320 297 LINE",
"296 321 OFFCURVE",
"264 336 OFFCURVE",
"216 336 CURVE",
"113 336 OFFCURVE",
"48 260 OFFCURVE",
"52 164 CURVE",
"52 68 OFFCURVE",
"117 -10 OFFCURVE",
"216 -10 CURVE",
"306 -10 OFFCURVE",
"370 41 OFFCURVE",
"380 151 CURVE",
"380 178 OFFCURVE",
"381 239 OFFCURVE",
"381 286 CURVE",
"381 393 OFFCURVE",
"383 499 OFFCURVE",
"383 585 CURVE"
);
},
{
closed = 1;
nodes = (
"155 41 OFFCURVE",
"112 92 OFFCURVE",
"112 164 CURVE",
"112 235 OFFCURVE",
"151 286 OFFCURVE",
"216 286 CURVE",
"273 286 OFFCURVE",
"320 235 OFFCURVE",
"320 164 CURVE",
"320 92 OFFCURVE",
"278 40 OFFCURVE",
"216 40 CURVE"
);
}
);
width = 446;
}
);
unicode = 10DB;
},
{
color = 3;
glyphname = "nar-georgian";
lastChange = "2017-03-20 11:09:39 +0000";
layers = (
{
background = {
paths = (
{
closed = 1;
nodes = (
"34 438 OFFCURVE",
"33 174 OFFCURVE",
"33 151 CURVE",
"43 41 OFFCURVE",
"107 -10 OFFCURVE",
"197 -10 CURVE SMOOTH",
"296 -10 OFFCURVE",
"361 68 OFFCURVE",
"361 164 CURVE",
"365 260 OFFCURVE",
"300 336 OFFCURVE",
"197 336 CURVE SMOOTH",
"149 336 OFFCURVE",
"117 314 OFFCURVE",
"93 290 CURVE",
"92 291 LINE",
"92 292 OFFCURVE",
"90 567 OFFCURVE",
"93 594 CURVE SMOOTH",
"102 679 OFFCURVE",
"169 675 OFFCURVE",
"234 671 CURVE SMOOTH",
"293 667 OFFCURVE",
"333 671 OFFCURVE",
"352 679 CURVE SMOOTH",
"372 687 OFFCURVE",
"373 702 OFFCURVE",
"370 710 CURVE",
"368 717 OFFCURVE",
"360 727 OFFCURVE",
"334 724 CURVE SMOOTH",
"310 721 OFFCURVE",
"274 716 OFFCURVE",
"236 721 CURVE",
"157 731 OFFCURVE",
"64 723 OFFCURVE",
"38 635 CURVE SMOOTH",
"32 615 OFFCURVE",
"34 588 OFFCURVE",
"33 576 CURVE"
);
},
{
closed = 1;
nodes = (
"93 234 OFFCURVE",
"138 288 OFFCURVE",
"199 288 CURVE SMOOTH",
"261 288 OFFCURVE",
"303 233 OFFCURVE",
"303 164 CURVE SMOOTH",
"303 96 OFFCURVE",
"261 40 OFFCURVE",
"199 40 CURVE SMOOTH",
"138 41 OFFCURVE",
"93 92 OFFCURVE",
"93 165 CURVE SMOOTH"
);
}
);
};
backgroundImage = {
crop = "{{0, 0}, {7.506, 15.138}}";
imagePath = images/n.jpg;
locked = "1";
transform = "{58.644, 0, 0, 58.644, -24, -99}";
};
layerId = "FD4E62BB-26D6-4FFD-A4F8-E1C01461A73C";
paths = (
{
closed = 1;
nodes = (
"32 476 OFFCURVE",
"32 280 OFFCURVE",
"32 151 CURVE SMOOTH",
"32 53 OFFCURVE",
"105 -10 OFFCURVE",
"195 -10 CURVE SMOOTH",
"294 -10 OFFCURVE",
"359 68 OFFCURVE",
"359 164 CURVE",
"363 260 OFFCURVE",
"304 336 OFFCURVE",
"201 336 CURVE SMOOTH",
"149 335 OFFCURVE",
"119 317 OFFCURVE",
"91 290 CURVE",
"90 291 LINE",
"91 292 OFFCURVE",
"93 588 OFFCURVE",
"93 594 CURVE SMOOTH",
"93 658 OFFCURVE",
"145 670 OFFCURVE",
"201 670 CURVE SMOOTH",
"217 670 OFFCURVE",
"265 667 OFFCURVE",
"277 667 CURVE SMOOTH",
"313 667 OFFCURVE",
"338 671 OFFCURVE",
"352 677 CURVE SMOOTH",
"363 682 OFFCURVE",
"369 692 OFFCURVE",
"369 702 CURVE SMOOTH",
"369 715 OFFCURVE",
"358 729 OFFCURVE",
"334 724 CURVE SMOOTH",
"301 717 OFFCURVE",
"207 722 OFFCURVE",
"193 722 CURVE SMOOTH",
"123 722 OFFCURVE",
"59 708 OFFCURVE",
"37 635 CURVE SMOOTH",
"31 615 OFFCURVE",
"32 588 OFFCURVE",
"32 576 CURVE"
);
},
{
closed = 1;
nodes = (
"91 236 LINE SMOOTH",
"120 273 OFFCURVE",
"163 286 OFFCURVE",
"195 286 CURVE SMOOTH",
"260 286 OFFCURVE",
"299 235 OFFCURVE",
"299 164 CURVE SMOOTH",
"299 92 OFFCURVE",
"256 41 OFFCURVE",
"195 40 CURVE SMOOTH",
"133 40 OFFCURVE",
"91 92 OFFCURVE",
"91 161 CURVE SMOOTH"
);
}
);
width = 396;
},
{
associatedMasterId = "FD4E62BB-26D6-4FFD-A4F8-E1C01461A73C";
layerId = "8BE5861C-6914-4232-8D4F-8BA7730555E7";
name = "Regular Oct 25 16, 12:21";
paths = (
{
closed = 1;
nodes = (
"195 338 OFFCURVE",
"156 325 OFFCURVE",
"122 298 CURVE",
"121 298 LINE",
"124 398 OFFCURVE",
"152 481 OFFCURVE",
"179 530 CURVE",
"262 683 OFFCURVE",
"382 662 OFFCURVE",
"381 699 CURVE",
"381 751 OFFCURVE",
"208 728 OFFCURVE",
"124 568 CURVE",
"48 424 OFFCURVE",
"43 275 OFFCURVE",
"65 165 CURVE SMOOTH",
"83 75 OFFCURVE",
"128 -10 OFFCURVE",
"236 -10 CURVE",
"335 -10 OFFCURVE",
"400 68 OFFCURVE",
"400 164 CURVE",
"400 260 OFFCURVE",
"335 338 OFFCURVE",
"236 338 CURVE"
);
},
{
closed = 1;
nodes = (
"175 41 OFFCURVE",
"132 92 OFFCURVE",
"132 165 CURVE",
"132 234 OFFCURVE",
"175 288 OFFCURVE",
"236 288 CURVE",
"298 288 OFFCURVE",
"340 233 OFFCURVE",
"340 164 CURVE",
"340 96 OFFCURVE",
"298 40 OFFCURVE",
"236 40 CURVE"
);
},
{
closed = 1;
nodes = (
"172 40 OFFCURVE",
"130 92 OFFCURVE",
"130 164 CURVE",
"130 235 OFFCURVE",
"177 286 OFFCURVE",
"234 286 CURVE",
"299 286 OFFCURVE",
"338 235 OFFCURVE",
"338 164 CURVE",
"338 92 OFFCURVE",
"295 41 OFFCURVE",
"234 40 CURVE"
);
}
);
width = 450;
}
);
unicode = 10DC;
},
{
color = 3;
glyphname = "on-georgian";
lastChange = "2017-03-20 11:02:55 +0000";
layers = (
{
background = {
paths = (
{
closed = 1;
nodes = (
"401 336 OFFCURVE",
"355 307 OFFCURVE",
"328 265 CURVE",
"301 307 OFFCURVE",
"255 336 OFFCURVE",
"194 336 CURVE",
"89 336 OFFCURVE",
"30 253 OFFCURVE",
"30 161 CURVE",
"30 74 OFFCURVE",
"69 24 OFFCURVE",
"82 10 CURVE",
"90 -2 OFFCURVE",
"103 -10 OFFCURVE",
"119 -10 CURVE",
"142 -10 OFFCURVE",
"162 9 OFFCURVE",
"162 33 CURVE",
"162 57 OFFCURVE",
"142 76 OFFCURVE",
"119 76 CURVE",
"114 76 OFFCURVE",
"110 76 OFFCURVE",
"106 74 CURVE",
"98 91 OFFCURVE",
"90 119 OFFCURVE",
"90 161 CURVE",
"90 241 OFFCURVE",
"141 286 OFFCURVE",
"194 286 CURVE",
"247 286 OFFCURVE",
"298 241 OFFCURVE",
"298 161 CURVE",
"298 73 OFFCURVE",
"288 54 OFFCURVE",
"288 54 CURVE",
"288 54 LINE",
"284 47 OFFCURVE",
"283 41 OFFCURVE",
"283 33 CURVE",
"283 9 OFFCURVE",
"302 -10 OFFCURVE",
"326 -10 CURVE",
"349 -10 OFFCURVE",
"369 9 OFFCURVE",
"369 33 CURVE",
"369 41 OFFCURVE",
"367 49 OFFCURVE",
"363 55 CURVE",
"363 55 OFFCURVE",
"358 72 OFFCURVE",
"358 161 CURVE",
"358 241 OFFCURVE",
"409 286 OFFCURVE",
"462 286 CURVE",
"515 286 OFFCURVE",
"566 241 OFFCURVE",
"566 161 CURVE",
"566 119 OFFCURVE",
"558 91 OFFCURVE",
"549 74 CURVE",
"546 76 OFFCURVE",
"541 76 OFFCURVE",
"537 76 CURVE",
"513 76 OFFCURVE",
"494 57 OFFCURVE",
"494 33 CURVE",
"494 9 OFFCURVE",
"513 -10 OFFCURVE",
"537 -10 CURVE",
"548 -10 OFFCURVE",
"558 -6 OFFCURVE",
"566 1 CURVE",
"566 1 OFFCURVE",
"626 49 OFFCURVE",
"626 161 CURVE",
"626 253 OFFCURVE",
"567 336 OFFCURVE",
"462 336 CURVE"
);
}
);
};
backgroundImage = {
crop = "{{0, 0}, {45.756, 22.644}}";
imagePath = images/gamo.jpg;
locked = "1";
transform = "{59.814, 0, 0, 59.814, -1492, -554}";
};
layerId = "FD4E62BB-26D6-4FFD-A4F8-E1C01461A73C";
paths = (
{
closed = 1;
nodes = (
"402 336 OFFCURVE",
"355 306 OFFCURVE",
"328 265 CURVE",
"327 265 OFFCURVE",
"327 265 OFFCURVE",
"327 265 CURVE",
"300 307 OFFCURVE",
"255 336 OFFCURVE",
"194 336 CURVE",
"89 336 OFFCURVE",
"30 253 OFFCURVE",
"30 161 CURVE",
"30 64 OFFCURVE",
"71 -10 OFFCURVE",
"119 -10 CURVE",
"142 -10 OFFCURVE",
"162 9 OFFCURVE",
"162 33 CURVE",
"162 57 OFFCURVE",
"142 76 OFFCURVE",
"119 76 CURVE",
"114 76 OFFCURVE",
"110 76 OFFCURVE",
"106 74 CURVE",
"98 91 OFFCURVE",
"90 119 OFFCURVE",
"90 161 CURVE",
"90 241 OFFCURVE",
"141 286 OFFCURVE",
"194 286 CURVE",
"247 286 OFFCURVE",
"298 241 OFFCURVE",
"298 161 CURVE",
"298 73 OFFCURVE",
"288 54 OFFCURVE",
"288 54 CURVE",
"288 54 LINE",
"284 47 OFFCURVE",
"283 41 OFFCURVE",
"283 33 CURVE",
"283 9 OFFCURVE",
"302 -10 OFFCURVE",
"326 -10 CURVE",
"349 -10 OFFCURVE",
"369 9 OFFCURVE",
"369 33 CURVE",
"369 41 OFFCURVE",
"367 49 OFFCURVE",
"363 55 CURVE",
"363 55 OFFCURVE",
"358 72 OFFCURVE",
"358 161 CURVE",
"358 241 OFFCURVE",
"409 286 OFFCURVE",
"462 286 CURVE",
"515 286 OFFCURVE",
"566 241 OFFCURVE",
"566 161 CURVE",
"566 119 OFFCURVE",
"558 91 OFFCURVE",
"549 74 CURVE",
"546 76 OFFCURVE",
"541 76 OFFCURVE",
"537 76 CURVE",
"513 76 OFFCURVE",
"494 57 OFFCURVE",
"494 33 CURVE",
"494 9 OFFCURVE",
"513 -10 OFFCURVE",
"537 -10 CURVE",
"583 -10 OFFCURVE",
"626 57 OFFCURVE",
"626 161 CURVE",
"626 253 OFFCURVE",
"567 336 OFFCURVE",
"462 336 CURVE"
);
}
);
width = 656;
},
{
associatedMasterId = "FD4E62BB-26D6-4FFD-A4F8-E1C01461A73C";
backgroundImage = {
crop = "{{0, 0}, {45.756, 22.644}}";
imagePath = images/gamo.jpg;
locked = "1";
transform = "{59.814, 0, 0, 59.814, -1491, -554}";
};
layerId = "AE8ADB23-FB23-4C10-A76F-54BA9E363286";
name = "Regular Feb 8 17, 10:54";
paths = (
{
closed = 1;
nodes = (
"391 336 OFFCURVE",
"345 307 OFFCURVE",
"318 265 CURVE",
"291 307 OFFCURVE",
"245 336 OFFCURVE",
"184 336 CURVE",
"79 336 OFFCURVE",
"30 253 OFFCURVE",
"30 161 CURVE",
"30 74 OFFCURVE",
"69 24 OFFCURVE",
"82 10 CURVE",
"90 -2 OFFCURVE",
"103 -10 OFFCURVE",
"119 -10 CURVE",
"142 -10 OFFCURVE",
"162 9 OFFCURVE",
"162 33 CURVE",
"162 57 OFFCURVE",
"142 76 OFFCURVE",
"119 76 CURVE",
"114 76 OFFCURVE",
"110 76 OFFCURVE",
"106 74 CURVE",
"98 91 OFFCURVE",
"90 119 OFFCURVE",
"90 161 CURVE",
"90 241 OFFCURVE",
"131 286 OFFCURVE",
"184 286 CURVE",
"237 286 OFFCURVE",
"288 241 OFFCURVE",
"288 161 CURVE",
"288 73 OFFCURVE",
"278 54 OFFCURVE",
"278 54 CURVE",
"278 54 LINE",
"274 47 OFFCURVE",
"273 41 OFFCURVE",
"273 33 CURVE",
"273 9 OFFCURVE",
"292 -10 OFFCURVE",
"316 -10 CURVE",
"339 -10 OFFCURVE",
"359 9 OFFCURVE",
"359 33 CURVE",
"359 41 OFFCURVE",
"357 49 OFFCURVE",
"353 55 CURVE",
"353 55 OFFCURVE",
"348 72 OFFCURVE",
"348 161 CURVE",
"348 241 OFFCURVE",
"399 286 OFFCURVE",
"452 286 CURVE",
"505 286 OFFCURVE",
"556 241 OFFCURVE",
"556 161 CURVE",
"556 119 OFFCURVE",
"548 91 OFFCURVE",
"539 74 CURVE",
"536 76 OFFCURVE",
"531 76 OFFCURVE",
"527 76 CURVE",
"503 76 OFFCURVE",
"484 57 OFFCURVE",
"484 33 CURVE",
"484 9 OFFCURVE",
"503 -10 OFFCURVE",
"527 -10 CURVE",
"538 -10 OFFCURVE",
"548 -6 OFFCURVE",
"556 1 CURVE",
"556 1 OFFCURVE",
"616 49 OFFCURVE",
"616 161 CURVE",
"616 253 OFFCURVE",
"557 336 OFFCURVE",
"452 336 CURVE"
);
}
);
width = 656;
}
);
unicode = 10DD;
},
{
color = 3;
glyphname = "par-georgian";
lastChange = "2017-03-20 11:12:40 +0000";
layers = (
{
associatedMasterId = "FD4E62BB-26D6-4FFD-A4F8-E1C01461A73C";
guideLines = (
{
position = "{-211, 263}";
}
);
layerId = "17889A20-0694-4699-837A-D6548AB72C3B";
name = "Regular Feb 1 17, 10:28";
paths = (
{
closed = 1;
nodes = (
"188 -10 LINE",
"188 -10 OFFCURVE",
"189 -10 OFFCURVE",
"189 -10 CURVE SMOOTH",
"288 -10 OFFCURVE",
"352 63 OFFCURVE",
"352 164 CURVE SMOOTH",
"352 176 OFFCURVE",
"352 221 OFFCURVE",
"352 211 CURVE",
"292 211 LINE",
"292 176 OFFCURVE",
"292 171 OFFCURVE",
"292 165 CURVE SMOOTH",
"292 93 OFFCURVE",
"250 41 OFFCURVE",
"189 40 CURVE SMOOTH",
"189 40 OFFCURVE",
"188 40 OFFCURVE",
"188 40 CURVE"
);
},
{
closed = 1;
nodes = (
"318 208 OFFCURVE",
"343 208 OFFCURVE",
"352 208 CURVE",
"352 282 OFFCURVE",
"332 312 OFFCURVE",
"295 340 CURVE",
"295 341 LINE",
"332 351 OFFCURVE",
"356 395 OFFCURVE",
"349 445 CURVE SMOOTH",
"335 543 OFFCURVE",
"211 560 OFFCURVE",
"211 624 CURVE",
"211 671 OFFCURVE",
"252 676 OFFCURVE",
"280 671 CURVE",
"286 658 OFFCURVE",
"299 650 OFFCURVE",
"314 650 CURVE",
"335 650 OFFCURVE",
"352 667 OFFCURVE",
"352 688 CURVE",
"352 709 OFFCURVE",
"335 726 OFFCURVE",
"314 726 CURVE",
"306 726 OFFCURVE",
"300 724 OFFCURVE",
"294 721 CURVE",
"196 738 OFFCURVE",
"151 682 OFFCURVE",
"151 620 CURVE",
"151 517 OFFCURVE",
"287 494 OFFCURVE",
"289 433 CURVE SMOOTH",
"291 366 OFFCURVE",
"240 377 OFFCURVE",
"166 376 CURVE",
"131 376 OFFCURVE",
"131 326 OFFCURVE",
"166 326 CURVE",
"240 326 OFFCURVE",
"294 282 OFFCURVE",
"292 208 CURVE"
);
},
{
closed = 1;
nodes = (
"188 -10 LINE",
"170 -10 OFFCURVE",
"18 -11 OFFCURVE",
"31 214 CURVE",
"31 222 OFFCURVE",
"37 262 OFFCURVE",
"66 262 CURVE SMOOTH",
"82 262 OFFCURVE",
"95 248 OFFCURVE",
"91 214 CURVE",
"91 206 OFFCURVE",
"79 43 OFFCURVE",
"188 40 CURVE"
);
}
);
width = 382;
},
{
associatedMasterId = "FD4E62BB-26D6-4FFD-A4F8-E1C01461A73C";
layerId = "95112384-2F20-4025-B755-22FCF4F45ACE";
name = "Regular Feb 1 17, 10:33";
paths = (
{
closed = 1;
nodes = (
"327 76 OFFCURVE",
"317 72 OFFCURVE",
"310 66 CURVE",
"222 75 OFFCURVE",
"153 77 OFFCURVE",
"157 166 CURVE SMOOTH",
"161 267 OFFCURVE",
"337 188 OFFCURVE",
"337 325 CURVE",
"337 383 OFFCURVE",
"287 400 OFFCURVE",
"287 400 CURVE",
"287 401 LINE",
"320 415 OFFCURVE",
"336 435 OFFCURVE",
"337 479 CURVE",
"337 580 OFFCURVE",
"196 580 OFFCURVE",
"196 644 CURVE",
"196 691 OFFCURVE",
"237 696 OFFCURVE",
"265 691 CURVE",
"271 678 OFFCURVE",
"284 670 OFFCURVE",
"299 670 CURVE",
"320 670 OFFCURVE",
"337 687 OFFCURVE",
"337 708 CURVE",
"337 729 OFFCURVE",
"320 746 OFFCURVE",
"299 746 CURVE",
"291 746 OFFCURVE",
"285 744 OFFCURVE",
"279 741 CURVE",
"181 758 OFFCURVE",
"136 702 OFFCURVE",
"136 640 CURVE",
"136 537 OFFCURVE",
"275 540 OFFCURVE",
"277 479 CURVE",
"276 434 OFFCURVE",
"225 430 OFFCURVE",
"151 429 CURVE",
"116 429 OFFCURVE",
"116 379 OFFCURVE",
"151 379 CURVE",
"207 379 OFFCURVE",
"280 385 OFFCURVE",
"277 325 CURVE",
"273 237 OFFCURVE",
"97 308 OFFCURVE",
"97 166 CURVE",
"97 107 OFFCURVE",
"137 72 OFFCURVE",
"137 72 CURVE",
"137 71 LINE",
"121 71 OFFCURVE",
"104 67 OFFCURVE",
"93 61 CURVE",
"90 62 OFFCURVE",
"87 62 OFFCURVE",
"84 62 CURVE",
"65 62 OFFCURVE",
"50 47 OFFCURVE",
"50 28 CURVE",
"50 9 OFFCURVE",
"65 -7 OFFCURVE",
"84 -7 CURVE",
"99 -7 OFFCURVE",
"111 2 OFFCURVE",
"116 14 CURVE",
"184 33 OFFCURVE",
"260 22 OFFCURVE",
"298 14 CURVE",
"305 0 OFFCURVE",
"320 -10 OFFCURVE",
"337 -10 CURVE",
"361 -10 OFFCURVE",
"380 9 OFFCURVE",
"380 33 CURVE",
"380 57 OFFCURVE",
"361 76 OFFCURVE",
"337 76 CURVE"
);
}
);
width = 430;
},
{
background = {
paths = (
{
closed = 1;
nodes = (
"314 -4 OFFCURVE",
"343 -19 OFFCURVE",
"357 -1 CURVE SMOOTH",
"366 10 OFFCURVE",
"367 36 OFFCURVE",
"322 50 CURVE SMOOTH",
"237 76 OFFCURVE",
"157 81 OFFCURVE",
"157 161 CURVE SMOOTH",
"157 221 OFFCURVE",
"227 218 OFFCURVE",
"281 244 CURVE SMOOTH",
"306 256 OFFCURVE",
"336 282 OFFCURVE",
"337 325 CURVE",
"337 383 OFFCURVE",
"287 401 OFFCURVE",
"287 401 CURVE",
"287 402 LINE",
"315 414 OFFCURVE",
"336 435 OFFCURVE",
"337 479 CURVE",
"337 572 OFFCURVE",
"196 561 OFFCURVE",
"196 625 CURVE",
"196 672 OFFCURVE",
"237 682 OFFCURVE",
"265 677 CURVE",
"262 656 OFFCURVE",
"280 638 OFFCURVE",
"300 638 CURVE",
"321 638 OFFCURVE",
"337 654 OFFCURVE",
"337 675 CURVE",
"337 702 OFFCURVE",
"316 717 OFFCURVE",
"279 722 CURVE",
"188 732 OFFCURVE",
"136 683 OFFCURVE",
"136 621 CURVE",
"136 518 OFFCURVE",
"275 540 OFFCURVE",
"277 479 CURVE",
"276 434 OFFCURVE",
"225 430 OFFCURVE",
"151 429 CURVE",
"116 429 OFFCURVE",
"116 379 OFFCURVE",
"151 379 CURVE",
"207 379 OFFCURVE",
"280 385 OFFCURVE",
"277 325 CURVE",
"276 306 OFFCURVE",
"265 294 OFFCURVE",
"248 286 CURVE SMOOTH",
"197 261 OFFCURVE",
"97 256 OFFCURVE",
"97 161 CURVE",
"97 102 OFFCURVE",
"139 68 OFFCURVE",
"139 68 CURVE",
"139 67 LINE",
"116 62 OFFCURVE",
"80 50 OFFCURVE",
"57 36 CURVE SMOOTH",
"39 25 OFFCURVE",
"37 11 OFFCURVE",
"43 0 CURVE SMOOTH",
"50 -13 OFFCURVE",
"69 -15 OFFCURVE",
"116 9 CURVE SMOOTH",
"181 42 OFFCURVE",
"254 21 OFFCURVE",
"304 0 CURVE SMOOTH"
);
}
);
};
backgroundImage = {
crop = "{{0, 0}, {37.602, 30.834}}";
imagePath = images/par.jpg;
locked = "1";
transform = "{56.218, 0, 0, 56.218, -1368, -235}";
};
layerId = "FD4E62BB-26D6-4FFD-A4F8-E1C01461A73C";
paths = (
{
closed = 1;
nodes = (
"317 -6 OFFCURVE",
"328 -9 OFFCURVE",
"337 -9 CURVE SMOOTH",
"354 -9 OFFCURVE",
"363 0 OFFCURVE",
"363 12 CURVE SMOOTH",
"363 25 OFFCURVE",
"351 41 OFFCURVE",
"322 50 CURVE SMOOTH",
"237 77 OFFCURVE",
"157 81 OFFCURVE",
"157 161 CURVE SMOOTH",
"157 249 OFFCURVE",
"335 206 OFFCURVE",
"337 325 CURVE",
"337 363 OFFCURVE",
"314 391 OFFCURVE",
"287 401 CURVE",
"287 402 LINE",
"315 414 OFFCURVE",
"336 435 OFFCURVE",
"337 479 CURVE",
"337 572 OFFCURVE",
"196 561 OFFCURVE",
"196 625 CURVE",
"196 665 OFFCURVE",
"226 678 OFFCURVE",
"252 678 CURVE SMOOTH",
"256 678 OFFCURVE",
"261 678 OFFCURVE",
"265 677 CURVE",
"261 652 OFFCURVE",
"281 638 OFFCURVE",
"301 638 CURVE SMOOTH",
"319 638 OFFCURVE",
"337 650 OFFCURVE",
"337 675 CURVE",
"337 702 OFFCURVE",
"316 717 OFFCURVE",
"279 722 CURVE",
"271 723 OFFCURVE",
"263 723 OFFCURVE",
"256 723 CURVE SMOOTH",
"179 723 OFFCURVE",
"136 678 OFFCURVE",
"136 621 CURVE",
"136 518 OFFCURVE",
"275 540 OFFCURVE",
"277 479 CURVE",
"276 434 OFFCURVE",
"225 430 OFFCURVE",
"151 429 CURVE",
"134 429 OFFCURVE",
"125 417 OFFCURVE",
"125 404 CURVE SMOOTH",
"125 392 OFFCURVE",
"134 379 OFFCURVE",
"151 379 CURVE",
"207 379 OFFCURVE",
"280 385 OFFCURVE",
"277 325 CURVE",
"272 251 OFFCURVE",
"97 288 OFFCURVE",
"97 161 CURVE",
"97 117 OFFCURVE",
"120 82 OFFCURVE",
"139 68 CURVE",
"139 67 LINE",
"116 62 OFFCURVE",
"80 50 OFFCURVE",
"57 36 CURVE SMOOTH",
"45 29 OFFCURVE",
"40 20 OFFCURVE",
"40 11 CURVE SMOOTH",
"40 7 OFFCURVE",
"41 4 OFFCURVE",
"43 0 CURVE SMOOTH",
"46 -6 OFFCURVE",
"52 -10 OFFCURVE",
"61 -10 CURVE SMOOTH",
"73 -10 OFFCURVE",
"90 -4 OFFCURVE",
"116 9 CURVE SMOOTH",
"141 22 OFFCURVE",
"168 27 OFFCURVE",
"194 27 CURVE SMOOTH",
"235 27 OFFCURVE",
"275 14 OFFCURVE",
"304 0 CURVE SMOOTH"
);
}
);
width = 430;
}
);
unicode = 10DE;
},
{
color = 3;
glyphname = "zhar-georgian";
lastChange = "2017-03-20 10:59:47 +0000";
layers = (
{
background = {
paths = (
{
closed = 1;
nodes = (
"33 106 OFFCURVE",
"45 47 OFFCURVE",
"69 14 CURVE SMOOTH",
"80 -1 OFFCURVE",
"94 -10 OFFCURVE",
"107 -10 CURVE SMOOTH",
"123 -10 OFFCURVE",
"142 7 OFFCURVE",
"123 36 CURVE SMOOTH",
"106 62 OFFCURVE",
"90 96 OFFCURVE",
"90 159 CURVE SMOOTH",
"90 161 LINE SMOOTH",
"90 234 OFFCURVE",
"109 286 OFFCURVE",
"156 286 CURVE SMOOTH",
"218 286 OFFCURVE",
"209 206 OFFCURVE",
"209 164 CURVE SMOOTH",
"209 70 OFFCURVE",
"215 -10 OFFCURVE",
"303 -10 CURVE SMOOTH",
"391 -10 OFFCURVE",
"397 70 OFFCURVE",
"397 164 CURVE SMOOTH",
"397 206 OFFCURVE",
"388 286 OFFCURVE",
"450 286 CURVE SMOOTH",
"497 286 OFFCURVE",
"516 234 OFFCURVE",
"516 161 CURVE SMOOTH",
"516 35 OFFCURVE",
"511 -125 OFFCURVE",
"511 -220 CURVE SMOOTH",
"511 -287 OFFCURVE",
"467 -327 OFFCURVE",
"400 -327 CURVE SMOOTH",
"333 -327 OFFCURVE",
"292 -279 OFFCURVE",
"292 -238 CURVE SMOOTH",
"292 -214 OFFCURVE",
"299 -186 OFFCURVE",
"320 -177 CURVE",
"344 -197 OFFCURVE",
"390 -182 OFFCURVE",
"390 -143 CURVE SMOOTH",
"390 -132 OFFCURVE",
"386 -121 OFFCURVE",
"379 -114 CURVE",
"359 -91 OFFCURVE",
"308 -96 OFFCURVE",
"266 -143 CURVE SMOOTH",
"243 -169 OFFCURVE",
"232 -200 OFFCURVE",
"232 -238 CURVE SMOOTH",
"232 -304 OFFCURVE",
"286 -377 OFFCURVE",
"400 -377 CURVE SMOOTH",
"513 -377 OFFCURVE",
"571 -311 OFFCURVE",
"571 -192 CURVE SMOOTH",
"571 -109 OFFCURVE",
"576 20 OFFCURVE",
"576 161 CURVE",
"574 176 OFFCURVE",
"591 336 OFFCURVE",
"450 336 CURVE SMOOTH",
"337 336 OFFCURVE",
"337 245 OFFCURVE",
"337 164 CURVE SMOOTH",
"337 113 OFFCURVE",
"341 40 OFFCURVE",
"303 40 CURVE SMOOTH",
"265 40 OFFCURVE",
"269 113 OFFCURVE",
"269 164 CURVE SMOOTH",
"269 245 OFFCURVE",
"269 336 OFFCURVE",
"156 336 CURVE SMOOTH",
"15 336 OFFCURVE",
"32 176 OFFCURVE",
"30 161 CURVE",
"30 159 LINE"
);
}
);
};
backgroundImage = {
crop = "{{0, 0}, {18, 16.506}}";
imagePath = images/ian.jpg;
locked = "1";
transform = "{55.822, 0, 0, 55.822, -161, -496}";
};
layerId = "FD4E62BB-26D6-4FFD-A4F8-E1C01461A73C";
paths = (
{
closed = 1;
nodes = (
"33 106 OFFCURVE",
"45 47 OFFCURVE",
"69 14 CURVE SMOOTH",
"80 -1 OFFCURVE",
"94 -10 OFFCURVE",
"107 -10 CURVE SMOOTH",
"123 -10 OFFCURVE",
"142 7 OFFCURVE",
"123 36 CURVE SMOOTH",
"106 62 OFFCURVE",
"90 96 OFFCURVE",
"90 159 CURVE SMOOTH",
"90 161 LINE SMOOTH",
"90 234 OFFCURVE",
"109 286 OFFCURVE",
"156 286 CURVE SMOOTH",
"218 286 OFFCURVE",
"209 206 OFFCURVE",
"209 164 CURVE SMOOTH",
"209 70 OFFCURVE",
"215 -10 OFFCURVE",
"303 -10 CURVE SMOOTH",
"391 -10 OFFCURVE",
"397 70 OFFCURVE",
"397 164 CURVE SMOOTH",
"397 206 OFFCURVE",
"388 286 OFFCURVE",
"450 286 CURVE SMOOTH",
"497 286 OFFCURVE",
"511 234 OFFCURVE",
"511 161 CURVE SMOOTH",
"511 35 OFFCURVE",
"511 -125 OFFCURVE",
"511 -220 CURVE SMOOTH",
"511 -287 OFFCURVE",
"467 -327 OFFCURVE",
"400 -327 CURVE SMOOTH",
"333 -327 OFFCURVE",
"292 -279 OFFCURVE",
"292 -238 CURVE SMOOTH",
"292 -214 OFFCURVE",
"299 -186 OFFCURVE",
"320 -177 CURVE",
"362 -209 OFFCURVE",
"414 -151 OFFCURVE",
"379 -114 CURVE",
"359 -91 OFFCURVE",
"308 -96 OFFCURVE",
"266 -143 CURVE SMOOTH",
"243 -169 OFFCURVE",
"232 -200 OFFCURVE",
"232 -238 CURVE SMOOTH",
"232 -304 OFFCURVE",
"286 -377 OFFCURVE",
"400 -377 CURVE SMOOTH",
"513 -377 OFFCURVE",
"571 -311 OFFCURVE",
"571 -192 CURVE SMOOTH",
"571 -109 OFFCURVE",
"571 20 OFFCURVE",
"571 161 CURVE",
"571 176 OFFCURVE",
"591 336 OFFCURVE",
"450 336 CURVE SMOOTH",
"337 336 OFFCURVE",
"337 245 OFFCURVE",
"337 164 CURVE SMOOTH",
"337 113 OFFCURVE",
"341 40 OFFCURVE",
"303 40 CURVE SMOOTH",
"265 40 OFFCURVE",
"269 113 OFFCURVE",
"269 164 CURVE SMOOTH",
"269 245 OFFCURVE",
"269 336 OFFCURVE",
"156 336 CURVE SMOOTH",
"15 336 OFFCURVE",
"32 176 OFFCURVE",
"30 161 CURVE",
"30 159 LINE"
);
}
);
width = 606;
},
{
associatedMasterId = "FD4E62BB-26D6-4FFD-A4F8-E1C01461A73C";
layerId = "82A33D9E-CF84-43C0-872C-5EA57200BA71";
name = "Regular Dec 15 16, 15:36";
paths = (
{
closed = 1;
nodes = (
"576 339 OFFCURVE",
"502 336 OFFCURVE",
"483 336 CURVE",
"384 336 OFFCURVE",
"357 249 OFFCURVE",
"370 164 CURVE",
"376 113 OFFCURVE",
"385 41 OFFCURVE",
"336 41 CURVE",
"288 41 OFFCURVE",
"296 164 OFFCURVE",
"296 164 CURVE",
"296 164 OFFCURVE",
"313 341 OFFCURVE",
"174 336 CURVE",
"57 332 OFFCURVE",
"50 186 OFFCURVE",
"50 167 CURVE",
"50 118 OFFCURVE",
"56 -10 OFFCURVE",
"117 -10 CURVE",
"132 -10 OFFCURVE",
"160 0 OFFCURVE",
"160 33 CURVE",
"160 55 OFFCURVE",
"147 76 OFFCURVE",
"118 76 CURVE",
"110 101 OFFCURVE",
"110 134 OFFCURVE",
"110 168 CURVE SMOOTH",
"110 227 OFFCURVE",
"132 286 OFFCURVE",
"174 286 CURVE",
"217 286 OFFCURVE",
"240 234 OFFCURVE",
"236 164 CURVE",
"236 28 OFFCURVE",
"264 -10 OFFCURVE",
"336 -10 CURVE",
"424 -10 OFFCURVE",
"446 62 OFFCURVE",
"430 164 CURVE",
"426 191 OFFCURVE",
"409 286 OFFCURVE",
"483 286 CURVE",
"517 286 OFFCURVE",
"531 256 OFFCURVE",
"541 205 CURVE SMOOTH",
"634 -270 OFFCURVE",
"473 -327 OFFCURVE",
"428 -327 CURVE",
"350 -327 OFFCURVE",
"328 -268 OFFCURVE",
"324 -243 CURVE",
"321 -218 OFFCURVE",
"331 -184 OFFCURVE",
"352 -175 CURVE",
"352 -175 OFFCURVE",
"352 -175 OFFCURVE",
"353 -175 CURVE",
"361 -180 OFFCURVE",
"372 -185 OFFCURVE",
"382 -185 CURVE",
"406 -185 OFFCURVE",
"425 -166 OFFCURVE",
"425 -142 CURVE",
"425 -118 OFFCURVE",
"406 -98 OFFCURVE",
"382 -98 CURVE",
"381 -98 OFFCURVE",
"381 -98 OFFCURVE",
"381 -98 CURVE",
"358 -96 OFFCURVE",
"329 -107 OFFCURVE",
"298 -142 CURVE",
"225 -238 OFFCURVE",
"281 -377 OFFCURVE",
"428 -377 CURVE",
"596 -377 OFFCURVE",
"677 -175 OFFCURVE",
"601 211 CURVE"
);
},
{
closed = 1;
nodes = (
"1279 161 LINE",
"1279 35 OFFCURVE",
"1274 -125 OFFCURVE",
"1274 -220 CURVE SMOOTH",
"1274 -287 OFFCURVE",
"1230 -327 OFFCURVE",
"1163 -327 CURVE SMOOTH",
"1096 -327 OFFCURVE",
"1055 -279 OFFCURVE",
"1055 -238 CURVE",
"1055 -214 OFFCURVE",
"1062 -186 OFFCURVE",
"1083 -177 CURVE",
"1090 -183 OFFCURVE",
"1100 -186 OFFCURVE",
"1110 -186 CURVE",
"1134 -186 OFFCURVE",
"1153 -167 OFFCURVE",
"1153 -143 CURVE",
"1153 -132 OFFCURVE",
"1149 -121 OFFCURVE",
"1142 -114 CURVE",
"1122 -91 OFFCURVE",
"1071 -96 OFFCURVE",
"1029 -143 CURVE",
"1006 -169 OFFCURVE",
"995 -200 OFFCURVE",
"995 -238 CURVE SMOOTH",
"995 -304 OFFCURVE",
"1049 -377 OFFCURVE",
"1163 -377 CURVE",
"1276 -377 OFFCURVE",
"1334 -311 OFFCURVE",
"1334 -192 CURVE",
"1334 -109 OFFCURVE",
"1339 20 OFFCURVE",
"1339 161 CURVE"
);
},
{
closed = 1;
nodes = (
"1339 156 LINE",
"1339 173 OFFCURVE",
"1339 190 OFFCURVE",
"1339 207 CURVE",
"1340 339 OFFCURVE",
"1238 336 OFFCURVE",
"1219 336 CURVE",
"1143 336 OFFCURVE",
"1123 271 OFFCURVE",
"1123 271 CURVE",
"1122 271 LINE",
"1100 330 OFFCURVE",
"1052 336 OFFCURVE",
"1025 336 CURVE",
"913 335 OFFCURVE",
"912 231 OFFCURVE",
"914 155 CURVE",
"914 111 OFFCURVE",
"911 61 OFFCURVE",
"866 61 CURVE",
"815 61 OFFCURVE",
"803 124 OFFCURVE",
"800 155 CURVE",
"797 214 OFFCURVE",
"816 264 OFFCURVE",
"833 290 CURVE SMOOTH",
"852 319 OFFCURVE",
"833 336 OFFCURVE",
"817 336 CURVE",
"804 336 OFFCURVE",
"790 327 OFFCURVE",
"779 312 CURVE SMOOTH",
"755 279 OFFCURVE",
"737 219 OFFCURVE",
"740 155 CURVE",
"750 35 OFFCURVE",
"830 11 OFFCURVE",
"869 11 CURVE",
"961 11 OFFCURVE",
"974 100 OFFCURVE",
"974 155 CURVE",
"975 188 OFFCURVE",
"956 286 OFFCURVE",
"1026 286 CURVE",
"1075 286 OFFCURVE",
"1091 247 OFFCURVE",
"1091 170 CURVE",
"1091 109 OFFCURVE",
"1083 70 OFFCURVE",
"1074 27 CURVE",
"1071 9 OFFCURVE",
"1075 -7 OFFCURVE",
"1094 -10 CURVE",
"1108 -13 OFFCURVE",
"1125 -7 OFFCURVE",
"1134 16 CURVE SMOOTH",
"1144 41 OFFCURVE",
"1149 96 OFFCURVE",
"1151 164 CURVE SMOOTH",
"1154 249 OFFCURVE",
"1172 286 OFFCURVE",
"1219 286 CURVE",
"1266 286 OFFCURVE",
"1279 247 OFFCURVE",
"1279 207 CURVE SMOOTH",
"1279 190 OFFCURVE",
"1279 173 OFFCURVE",
"1279 156 CURVE"
);
}
);
width = 680;
},
{
associatedMasterId = "FD4E62BB-26D6-4FFD-A4F8-E1C01461A73C";
layerId = "7A07D4A3-E465-489D-82DE-1DFE67A57D31";
name = "Regular Feb 8 17, 14:42";
paths = (
{
closed = 1;
nodes = (
"516 161 LINE",
"516 35 OFFCURVE",
"511 -125 OFFCURVE",
"511 -220 CURVE SMOOTH",
"511 -287 OFFCURVE",
"467 -327 OFFCURVE",
"400 -327 CURVE SMOOTH",
"333 -327 OFFCURVE",
"292 -279 OFFCURVE",
"292 -238 CURVE",
"292 -214 OFFCURVE",
"299 -186 OFFCURVE",
"320 -177 CURVE",
"327 -183 OFFCURVE",
"337 -186 OFFCURVE",
"347 -186 CURVE",
"371 -186 OFFCURVE",
"390 -167 OFFCURVE",
"390 -143 CURVE",
"390 -132 OFFCURVE",
"386 -121 OFFCURVE",
"379 -114 CURVE",
"359 -91 OFFCURVE",
"308 -96 OFFCURVE",
"266 -143 CURVE",
"243 -169 OFFCURVE",
"232 -200 OFFCURVE",
"232 -238 CURVE SMOOTH",
"232 -304 OFFCURVE",
"286 -377 OFFCURVE",
"400 -377 CURVE",
"513 -377 OFFCURVE",
"571 -311 OFFCURVE",
"571 -192 CURVE",
"571 -109 OFFCURVE",
"576 20 OFFCURVE",
"576 161 CURVE"
);
},
{
closed = 1;
nodes = (
"303 -10 LINE",
"303 -10 OFFCURVE",
"303 -10 OFFCURVE",
"303 -10 CURVE",
"391 -10 OFFCURVE",
"397 70 OFFCURVE",
"397 164 CURVE",
"397 206 OFFCURVE",
"388 286 OFFCURVE",
"450 286 CURVE",
"497 286 OFFCURVE",
"516 234 OFFCURVE",
"516 161 CURVE",
"576 161 LINE",
"574 176 OFFCURVE",
"591 336 OFFCURVE",
"450 336 CURVE",
"337 336 OFFCURVE",
"337 245 OFFCURVE",
"337 164 CURVE",
"337 113 OFFCURVE",
"341 40 OFFCURVE",
"303 40 CURVE",
"303 40 OFFCURVE",
"303 40 OFFCURVE",
"303 40 CURVE"
);
},
{
closed = 1;
nodes = (
"30 161 OFFCURVE",
"30 160 OFFCURVE",
"30 159 CURVE",
"33 106 OFFCURVE",
"45 47 OFFCURVE",
"69 14 CURVE SMOOTH",
"80 -1 OFFCURVE",
"94 -10 OFFCURVE",
"107 -10 CURVE",
"123 -10 OFFCURVE",
"142 7 OFFCURVE",
"123 36 CURVE SMOOTH",
"106 62 OFFCURVE",
"90 96 OFFCURVE",
"90 159 CURVE",
"90 160 OFFCURVE",
"90 161 OFFCURVE",
"90 161 CURVE",
"30 161 LINE"
);
},
{
closed = 1;
nodes = (
"303 40 OFFCURVE",
"303 40 OFFCURVE",
"303 40 CURVE",
"265 40 OFFCURVE",
"269 113 OFFCURVE",
"269 164 CURVE",
"269 245 OFFCURVE",
"269 336 OFFCURVE",
"156 336 CURVE",
"15 336 OFFCURVE",
"32 176 OFFCURVE",
"30 161 CURVE",
"90 161 LINE",
"90 234 OFFCURVE",
"109 286 OFFCURVE",
"156 286 CURVE",
"218 286 OFFCURVE",
"209 206 OFFCURVE",
"209 164 CURVE",
"209 70 OFFCURVE",
"215 -10 OFFCURVE",
"303 -10 CURVE",
"303 -10 OFFCURVE",
"303 -10 OFFCURVE",
"303 -10 CURVE",
"303 40 LINE"
);
}
);
width = 606;
}
);
unicode = 10DF;
},
{
color = 3;
glyphname = "rae-georgian";
lastChange = "2017-03-20 10:56:00 +0000";
layers = (
{
background = {
paths = (
{
closed = 1;
nodes = (
"160 296 LINE",
"586 653 LINE SMOOTH",
"586 653 OFFCURVE",
"618 675 OFFCURVE",
"612 700 CURVE SMOOTH",
"611 706 OFFCURVE",
"603 723 OFFCURVE",
"569 724 CURVE",
"534 724 OFFCURVE",
"462 724 OFFCURVE",
"417 724 CURVE SMOOTH",
"403 724 OFFCURVE",
"392 710 OFFCURVE",
"392 700 CURVE SMOOTH",
"392 683 OFFCURVE",
"405 674 OFFCURVE",
"417 674 CURVE",
"425 674 OFFCURVE",
"509 674 OFFCURVE",
"534 674 CURVE",
"534 674 OFFCURVE",
"534 673 OFFCURVE",
"534 673 CURVE",
"504 646 OFFCURVE",
"166 366 OFFCURVE",
"100 307 CURVE"
);
},
{
closed = 1;
nodes = (
"30 77 OFFCURVE",
"73 -11 OFFCURVE",
"118 -11 CURVE SMOOTH",
"142 -11 OFFCURVE",
"162 8 OFFCURVE",
"162 32 CURVE SMOOTH",
"162 56 OFFCURVE",
"142 75 OFFCURVE",
"118 75 CURVE SMOOTH",
"114 75 OFFCURVE",
"110 75 OFFCURVE",
"106 73 CURVE",
"98 90 OFFCURVE",
"90 118 OFFCURVE",
"90 160 CURVE SMOOTH",
"90 240 OFFCURVE",
"140 285 OFFCURVE",
"193 285 CURVE SMOOTH",
"246 285 OFFCURVE",
"298 240 OFFCURVE",
"298 160 CURVE SMOOTH",
"298 71 OFFCURVE",
"296 59 OFFCURVE",
"296 59 CURVE",
"290 51 OFFCURVE",
"287 42 OFFCURVE",
"287 32 CURVE SMOOTH",
"287 9 OFFCURVE",
"305 -11 OFFCURVE",
"329 -11 CURVE",
"353 -11 OFFCURVE",
"371 9 OFFCURVE",
"371 32 CURVE SMOOTH",
"371 42 OFFCURVE",
"368 51 OFFCURVE",
"362 59 CURVE",
"362 59 OFFCURVE",
"360 71 OFFCURVE",
"360 160 CURVE SMOOTH",
"360 240 OFFCURVE",
"412 285 OFFCURVE",
"465 285 CURVE SMOOTH",
"518 285 OFFCURVE",
"568 240 OFFCURVE",
"568 160 CURVE SMOOTH",
"568 118 OFFCURVE",
"560 90 OFFCURVE",
"552 73 CURVE",
"548 75 OFFCURVE",
"544 75 OFFCURVE",
"540 75 CURVE SMOOTH",
"516 75 OFFCURVE",
"496 56 OFFCURVE",
"496 32 CURVE SMOOTH",
"496 8 OFFCURVE",
"516 -11 OFFCURVE",
"540 -11 CURVE SMOOTH",
"585 -11 OFFCURVE",
"628 77 OFFCURVE",
"628 160 CURVE SMOOTH",
"628 252 OFFCURVE",
"569 335 OFFCURVE",
"465 335 CURVE SMOOTH",
"403 335 OFFCURVE",
"357 305 OFFCURVE",
"329 264 CURVE",
"328 264 LINE",
"300 305 OFFCURVE",
"255 335 OFFCURVE",
"193 335 CURVE SMOOTH",
"89 335 OFFCURVE",
"30 252 OFFCURVE",
"30 160 CURVE SMOOTH"
);
}
);
};
backgroundImage = {
crop = "{{0, 0}, {26.64, 22.128}}";
imagePath = images/vir.jpg;
locked = "1";
transform = "{58.485, 0, 0, 58.485, -837, -476}";
};
guideLines = (
{
position = "{909, 724}";
}
);
layerId = "FD4E62BB-26D6-4FFD-A4F8-E1C01461A73C";
paths = (
{
closed = 1;
nodes = (
"30 77 OFFCURVE",
"73 -11 OFFCURVE",
"118 -11 CURVE SMOOTH",
"142 -11 OFFCURVE",
"162 8 OFFCURVE",
"162 32 CURVE SMOOTH",
"162 62 OFFCURVE",
"133 81 OFFCURVE",
"106 73 CURVE",
"98 90 OFFCURVE",
"90 118 OFFCURVE",
"90 160 CURVE SMOOTH",
"90 240 OFFCURVE",
"140 285 OFFCURVE",
"193 285 CURVE SMOOTH",
"246 285 OFFCURVE",
"298 240 OFFCURVE",
"298 160 CURVE SMOOTH",
"298 71 OFFCURVE",
"296 59 OFFCURVE",
"296 59 CURVE",
"274 30 OFFCURVE",
"294 -11 OFFCURVE",
"329 -11 CURVE SMOOTH",
"364 -11 OFFCURVE",
"383 31 OFFCURVE",
"362 59 CURVE",
"362 59 OFFCURVE",
"360 71 OFFCURVE",
"360 160 CURVE SMOOTH",
"360 240 OFFCURVE",
"412 285 OFFCURVE",
"465 285 CURVE SMOOTH",
"518 285 OFFCURVE",
"568 240 OFFCURVE",
"568 160 CURVE SMOOTH",
"568 118 OFFCURVE",
"560 90 OFFCURVE",
"552 73 CURVE",
"529 81 OFFCURVE",
"496 64 OFFCURVE",
"496 32 CURVE SMOOTH",
"496 8 OFFCURVE",
"516 -11 OFFCURVE",
"540 -11 CURVE SMOOTH",
"585 -11 OFFCURVE",
"628 77 OFFCURVE",
"628 160 CURVE SMOOTH",
"628 252 OFFCURVE",
"569 335 OFFCURVE",
"465 335 CURVE SMOOTH",
"403 335 OFFCURVE",
"357 305 OFFCURVE",
"329 264 CURVE",
"328 264 LINE",
"303.925 299.253 OFFCURVE",
"267 326 OFFCURVE",
"218 333 CURVE",
"218 334 LINE",
"602 644 LINE",
"602 644 OFFCURVE",
"631 667 OFFCURVE",
"628 691 CURVE SMOOTH",
"626 705 OFFCURVE",
"612 715 OFFCURVE",
"578 715 CURVE SMOOTH",
"476 715 LINE SMOOTH",
"462 715 OFFCURVE",
"451 701 OFFCURVE",
"451 691 CURVE SMOOTH",
"451 674 OFFCURVE",
"464 665 OFFCURVE",
"476 665 CURVE SMOOTH",
"484 665 OFFCURVE",
"518 665 OFFCURVE",
"543 665 CURVE",
"543 664 LINE",
"513 637 OFFCURVE",
"166 366 OFFCURVE",
"100 307 CURVE",
"55 275 OFFCURVE",
"30 219 OFFCURVE",
"30 160 CURVE SMOOTH"
);
}
);
width = 658;
},
{
associatedMasterId = "FD4E62BB-26D6-4FFD-A4F8-E1C01461A73C";
guideLines = (
{
position = "{947, 724}";
}
);
layerId = "F61E529F-F1DC-47F4-A5AF-88E982C598B6";
name = "Regular Nov 30 16, 11:53";
paths = (
{
closed = 1;
nodes = (
"907 296 LINE",
"1317 639 LINE",
"1317 639 OFFCURVE",
"1386 701 OFFCURVE",
"1278 721 CURVE SMOOTH",
"1229 730 OFFCURVE",
"1134 721 OFFCURVE",
"1134 686 CURVE",
"1134 674 OFFCURVE",
"1143 665 OFFCURVE",
"1155 665 CURVE",
"1163 665 OFFCURVE",
"1249 694 OFFCURVE",
"1249 666 CURVE",
"1249 666 OFFCURVE",
"1252 651 OFFCURVE",
"1221 627 CURVE",
"1221 627 OFFCURVE",
"893 356 OFFCURVE",
"838 307 CURVE"
);
},
{
closed = 1;
nodes = (
"421 336 OFFCURVE",
"376 306 OFFCURVE",
"348 265 CURVE",
"348 265 OFFCURVE",
"347 265 OFFCURVE",
"347 265 CURVE",
"322 307 OFFCURVE",
"300 316 OFFCURVE",
"265 327 CURVE SMOOTH",
"265 327 OFFCURVE",
"265 328 OFFCURVE",
"265 328 CURVE",
"647 638 LINE",
"647 638 OFFCURVE",
"716 700 OFFCURVE",
"608 720 CURVE SMOOTH",
"559 729 OFFCURVE",
"464 720 OFFCURVE",
"464 685 CURVE",
"464 673 OFFCURVE",
"473 664 OFFCURVE",
"485 664 CURVE",
"493 664 OFFCURVE",
"579 693 OFFCURVE",
"579 665 CURVE",
"579 665 OFFCURVE",
"582 650 OFFCURVE",
"551 626 CURVE",
"551 626 OFFCURVE",
"235 375 OFFCURVE",
"192 336 CURVE",
"101 325 OFFCURVE",
"50 246 OFFCURVE",
"50 161 CURVE",
"50 85 OFFCURVE",
"92 -10 OFFCURVE",
"139 -10 CURVE",
"163 -10 OFFCURVE",
"182 9 OFFCURVE",
"182 33 CURVE",
"182 57 OFFCURVE",
"163 76 OFFCURVE",
"139 76 CURVE",
"135 76 OFFCURVE",
"130 76 OFFCURVE",
"127 75 CURVE",
"118 92 OFFCURVE",
"110 119 OFFCURVE",
"110 161 CURVE",
"110 241 OFFCURVE",
"161 286 OFFCURVE",
"214 286 CURVE",
"267 286 OFFCURVE",
"318 241 OFFCURVE",
"318 161 CURVE",
"318 80 OFFCURVE",
"314 63 OFFCURVE",
"313 61 CURVE",
"307 53 OFFCURVE",
"303 44 OFFCURVE",
"303 33 CURVE",
"303 9 OFFCURVE",
"322 -10 OFFCURVE",
"346 -10 CURVE",
"370 -10 OFFCURVE",
"389 9 OFFCURVE",
"389 33 CURVE",
"389 43 OFFCURVE",
"386 52 OFFCURVE",
"380 60 CURVE",
"380 60 OFFCURVE",
"378 72 OFFCURVE",
"378 161 CURVE",
"378 241 OFFCURVE",
"430 286 OFFCURVE",
"483 286 CURVE",
"536 286 OFFCURVE",
"586 241 OFFCURVE",
"586 161 CURVE",
"586 119 OFFCURVE",
"578 91 OFFCURVE",
"570 74 CURVE",
"566 76 OFFCURVE",
"562 76 OFFCURVE",
"558 76 CURVE",
"534 76 OFFCURVE",
"514 57 OFFCURVE",
"514 33 CURVE",
"514 9 OFFCURVE",
"534 -10 OFFCURVE",
"558 -10 CURVE",
"603 -10 OFFCURVE",
"646 78 OFFCURVE",
"646 161 CURVE",
"646 253 OFFCURVE",
"587 336 OFFCURVE",
"483 336 CURVE"
);
},
{
closed = 1;
nodes = (
"768 77 OFFCURVE",
"811 -11 OFFCURVE",
"856 -11 CURVE SMOOTH",
"880 -11 OFFCURVE",
"900 8 OFFCURVE",
"900 32 CURVE SMOOTH",
"900 56 OFFCURVE",
"880 75 OFFCURVE",
"856 75 CURVE SMOOTH",
"852 75 OFFCURVE",
"848 75 OFFCURVE",
"844 73 CURVE",
"836 90 OFFCURVE",
"828 118 OFFCURVE",
"828 160 CURVE SMOOTH",
"828 240 OFFCURVE",
"878 285 OFFCURVE",
"931 285 CURVE SMOOTH",
"984 285 OFFCURVE",
"1036 240 OFFCURVE",
"1036 160 CURVE SMOOTH",
"1036 71 OFFCURVE",
"1034 59 OFFCURVE",
"1034 59 CURVE",
"1028 51 OFFCURVE",
"1025 42 OFFCURVE",
"1025 32 CURVE SMOOTH",
"1025 9 OFFCURVE",
"1043 -11 OFFCURVE",
"1067 -11 CURVE",
"1091 -11 OFFCURVE",
"1109 9 OFFCURVE",
"1109 32 CURVE SMOOTH",
"1109 42 OFFCURVE",
"1106 51 OFFCURVE",
"1100 59 CURVE",
"1100 59 OFFCURVE",
"1098 71 OFFCURVE",
"1098 160 CURVE SMOOTH",
"1098 240 OFFCURVE",
"1150 285 OFFCURVE",
"1203 285 CURVE SMOOTH",
"1256 285 OFFCURVE",
"1306 240 OFFCURVE",
"1306 160 CURVE SMOOTH",
"1306 118 OFFCURVE",
"1298 90 OFFCURVE",
"1290 73 CURVE",
"1286 75 OFFCURVE",
"1282 75 OFFCURVE",
"1278 75 CURVE SMOOTH",
"1254 75 OFFCURVE",
"1234 56 OFFCURVE",
"1234 32 CURVE SMOOTH",
"1234 8 OFFCURVE",
"1254 -11 OFFCURVE",
"1278 -11 CURVE SMOOTH",
"1323 -11 OFFCURVE",
"1366 77 OFFCURVE",
"1366 160 CURVE SMOOTH",
"1366 252 OFFCURVE",
"1307 335 OFFCURVE",
"1203 335 CURVE SMOOTH",
"1141 335 OFFCURVE",
"1095 305 OFFCURVE",
"1067 264 CURVE",
"1066 264 LINE",
"1038 305 OFFCURVE",
"993 335 OFFCURVE",
"931 335 CURVE SMOOTH",
"827 335 OFFCURVE",
"768 252 OFFCURVE",
"768 160 CURVE SMOOTH"
);
}
);
width = 719;
},
{
associatedMasterId = "FD4E62BB-26D6-4FFD-A4F8-E1C01461A73C";
guideLines = (
{
position = "{909, 724}";
}
);
layerId = "43EE7A3F-9EE1-4013-A3C3-34C460FC2AC3";
name = "Regular Feb 8 17, 14:22";
paths = (
{
closed = 1;
nodes = (
"169 296 LINE",
"597 653 LINE SMOOTH",
"597 653 OFFCURVE",
"637 689 OFFCURVE",
"620 710 CURVE SMOOTH",
"615 716 OFFCURVE",
"603 723 OFFCURVE",
"580 724 CURVE",
"545 724 OFFCURVE",
"462 724 OFFCURVE",
"417 724 CURVE SMOOTH",
"403 724 OFFCURVE",
"392 710 OFFCURVE",
"392 700 CURVE SMOOTH",
"392 683 OFFCURVE",
"405 674 OFFCURVE",
"417 674 CURVE",
"425 674 OFFCURVE",
"509 674 OFFCURVE",
"534 674 CURVE",
"534 674 OFFCURVE",
"534 673 OFFCURVE",
"534 673 CURVE",
"504 646 OFFCURVE",
"166 366 OFFCURVE",
"100 307 CURVE"
);
},
{
closed = 1;
nodes = (
"30 77 OFFCURVE",
"73 -11 OFFCURVE",
"118 -11 CURVE SMOOTH",
"142 -11 OFFCURVE",
"162 8 OFFCURVE",
"162 32 CURVE SMOOTH",
"162 56 OFFCURVE",
"142 75 OFFCURVE",
"118 75 CURVE SMOOTH",
"114 75 OFFCURVE",
"110 75 OFFCURVE",
"106 73 CURVE",
"98 90 OFFCURVE",
"90 118 OFFCURVE",
"90 160 CURVE SMOOTH",
"90 240 OFFCURVE",
"140 285 OFFCURVE",
"193 285 CURVE SMOOTH",
"246 285 OFFCURVE",
"298 240 OFFCURVE",
"298 160 CURVE SMOOTH",
"298 71 OFFCURVE",
"296 59 OFFCURVE",
"296 59 CURVE",
"290 51 OFFCURVE",
"287 42 OFFCURVE",
"287 32 CURVE SMOOTH",
"287 9 OFFCURVE",
"305 -11 OFFCURVE",
"329 -11 CURVE",
"353 -11 OFFCURVE",
"371 9 OFFCURVE",
"371 32 CURVE SMOOTH",
"371 42 OFFCURVE",
"368 51 OFFCURVE",
"362 59 CURVE",
"362 59 OFFCURVE",
"360 71 OFFCURVE",
"360 160 CURVE SMOOTH",
"360 240 OFFCURVE",
"412 285 OFFCURVE",
"465 285 CURVE SMOOTH",
"518 285 OFFCURVE",
"568 240 OFFCURVE",
"568 160 CURVE SMOOTH",
"568 118 OFFCURVE",
"560 90 OFFCURVE",
"552 73 CURVE",
"548 75 OFFCURVE",
"544 75 OFFCURVE",
"540 75 CURVE SMOOTH",
"516 75 OFFCURVE",
"496 56 OFFCURVE",
"496 32 CURVE SMOOTH",
"496 8 OFFCURVE",
"516 -11 OFFCURVE",
"540 -11 CURVE SMOOTH",
"585 -11 OFFCURVE",
"628 77 OFFCURVE",
"628 160 CURVE SMOOTH",
"628 252 OFFCURVE",
"569 335 OFFCURVE",
"465 335 CURVE SMOOTH",
"403 335 OFFCURVE",
"357 305 OFFCURVE",
"329 264 CURVE",
"328 264 LINE",
"300 305 OFFCURVE",
"255 335 OFFCURVE",
"193 335 CURVE SMOOTH",
"89 335 OFFCURVE",
"30 252 OFFCURVE",
"30 160 CURVE SMOOTH"
);
}
);
width = 658;
}
);
unicode = 10E0;
},
{
color = 3;
glyphname = "san-georgian";
lastChange = "2017-03-21 06:52:54 +0000";
layers = (
{
backgroundImage = {
crop = "{{0, 0}, {9.522, 17.298}}";
imagePath = images/sSs.jpg;
locked = "1";
transform = "{57.566, 0, 0, 57.566, -82, -228}";
};
layerId = "FD4E62BB-26D6-4FFD-A4F8-E1C01461A73C";
paths = (
{
closed = 1;
nodes = (
"30 672 OFFCURVE",
"43 663 OFFCURVE",
"55 663 CURVE SMOOTH",
"63 663 OFFCURVE",
"70 663 OFFCURVE",
"95 663 CURVE",
"95 662 LINE",
"95 164 LINE",
"95 63 OFFCURVE",
"161 -10 OFFCURVE",
"260 -10 CURVE SMOOTH",
"386 -10 OFFCURVE",
"425 90 OFFCURVE",
"425 182 CURVE SMOOTH",
"425 244 OFFCURVE",
"408 285 OFFCURVE",
"390 312 CURVE SMOOTH",
"374 336 OFFCURVE",
"352 344 OFFCURVE",
"337 330 CURVE",
"322 317 OFFCURVE",
"328 297 OFFCURVE",
"340 278 CURVE SMOOTH",
"360 247 OFFCURVE",
"366 215 OFFCURVE",
"366 175 CURVE SMOOTH",
"366 109 OFFCURVE",
"339 40 OFFCURVE",
"260 40 CURVE SMOOTH",
"199 40 OFFCURVE",
"155 93 OFFCURVE",
"155 165 CURVE",
"155 612 OFFCURVE",
"155 660 OFFCURVE",
"155 674 CURVE SMOOTH",
"155 694 OFFCURVE",
"153 713 OFFCURVE",
"126 713 CURVE SMOOTH",
"55 713 LINE SMOOTH",
"41 713 OFFCURVE",
"30 699 OFFCURVE",
"30 689 CURVE SMOOTH"
);
}
);
width = 454;
},
{
associatedMasterId = "FD4E62BB-26D6-4FFD-A4F8-E1C01461A73C";
layerId = "703509CA-43D5-4FF8-A46E-F023CE39B787";
name = "Regular Nov 30 16, 12:35";
paths = (
{
closed = 1;
nodes = (
"20 636 OFFCURVE",
"32 624 OFFCURVE",
"46 624 CURVE SMOOTH",
"53 624 OFFCURVE",
"61 623 OFFCURVE",
"88 635 CURVE SMOOTH",
"115 647 OFFCURVE",
"113 626 OFFCURVE",
"113 626 CURVE",
"113 534 OFFCURVE",
"109 192 OFFCURVE",
"109 164 CURVE SMOOTH",
"109 63 OFFCURVE",
"174 -10 OFFCURVE",
"273 -10 CURVE SMOOTH",
"372 -10 OFFCURVE",
"437 68 OFFCURVE",
"437 164 CURVE SMOOTH",
"437 220 OFFCURVE",
"414 270 OFFCURVE",
"376 302 CURVE",
"377 306 OFFCURVE",
"378 311 OFFCURVE",
"378 315 CURVE SMOOTH",
"378 339 OFFCURVE",
"358 359 OFFCURVE",
"334 359 CURVE SMOOTH",
"310 359 OFFCURVE",
"291 339 OFFCURVE",
"291 315 CURVE SMOOTH",
"291 297 OFFCURVE",
"302 282 OFFCURVE",
"317 275 CURVE",
"360 251 OFFCURVE",
"377 201 OFFCURVE",
"377 164 CURVE SMOOTH",
"377 96 OFFCURVE",
"335 40 OFFCURVE",
"273 40 CURVE SMOOTH",
"212 41 OFFCURVE",
"169 93 OFFCURVE",
"169 165 CURVE SMOOTH",
"169 180 OFFCURVE",
"173 588 OFFCURVE",
"173 680 CURVE",
"174 724 OFFCURVE",
"145 724 OFFCURVE",
"145 724 CURVE",
"111 726 OFFCURVE",
"92 683 OFFCURVE",
"50 676 CURVE",
"33 674 OFFCURVE",
"20 665 OFFCURVE",
"20 650 CURVE SMOOTH"
);
}
);
width = 487;
},
{
associatedMasterId = "FD4E62BB-26D6-4FFD-A4F8-E1C01461A73C";
layerId = "60DAE5FE-1F0B-4F38-A5C0-91247C7A9B28";
name = "Regular Feb 10 17, 09:45";
paths = (
{
closed = 1;
nodes = (
"119 582 LINE",
"119 421 OFFCURVE",
"119 188 OFFCURVE",
"119 164 CURVE SMOOTH",
"119 63 OFFCURVE",
"184 -10 OFFCURVE",
"283 -10 CURVE SMOOTH",
"382 -10 OFFCURVE",
"447 68 OFFCURVE",
"447 164 CURVE SMOOTH",
"447 220 OFFCURVE",
"426 279 OFFCURVE",
"382 316 CURVE",
"356 337 OFFCURVE",
"317 346 OFFCURVE",
"308 327 CURVE SMOOTH",
"301 312 OFFCURVE",
"311 297 OFFCURVE",
"329 284 CURVE SMOOTH",
"376 249 OFFCURVE",
"387 201 OFFCURVE",
"387 164 CURVE SMOOTH",
"387 96 OFFCURVE",
"345 40 OFFCURVE",
"283 40 CURVE SMOOTH",
"222 41 OFFCURVE",
"179 93 OFFCURVE",
"179 165 CURVE SMOOTH",
"179 176 OFFCURVE",
"179 414 OFFCURVE",
"179 582 CURVE"
);
},
{
closed = 1;
nodes = (
"179 582 LINE",
"179 612 OFFCURVE",
"178 660 OFFCURVE",
"178 674 CURVE SMOOTH",
"178 694 OFFCURVE",
"176 713 OFFCURVE",
"149 713 CURVE SMOOTH",
"114 713 OFFCURVE",
"123 713 OFFCURVE",
"78 713 CURVE SMOOTH",
"64 713 OFFCURVE",
"53 699 OFFCURVE",
"53 689 CURVE SMOOTH",
"53 672 OFFCURVE",
"66 663 OFFCURVE",
"78 663 CURVE",
"86 663 OFFCURVE",
"93 663 OFFCURVE",
"118 663 CURVE",
"118 663 OFFCURVE",
"118 662 OFFCURVE",
"118 662 CURVE",
"118 648 OFFCURVE",
"119 608 OFFCURVE",
"119 582 CURVE"
);
}
);
width = 477;
}
);
unicode = 10E1;
},
{
color = 6;
glyphname = "tar-georgian";
lastChange = "2017-03-21 06:56:00 +0000";
layers = (
{
associatedMasterId = "FD4E62BB-26D6-4FFD-A4F8-E1C01461A73C";
backgroundImage = {
crop = "{{0, 0}, {11.448, 17.28}}";
imagePath = images/t.jpg;
transform = "{54.366, 0, 0, 54.366, -37, -475}";
};
layerId = "2C882FB9-894C-49BE-8DDA-53D8545905D7";
name = "Regular Feb 10 17, 10:28";
paths = (
{
closed = 1;
nodes = (
"374 157 OFFCURVE",
"389 189 OFFCURVE",
"389 220 CURVE",
"389 292 OFFCURVE",
"333 336 OFFCURVE",
"269 336 CURVE",
"205 336 OFFCURVE",
"149 285 OFFCURVE",
"149 220 CURVE",
"149 189 OFFCURVE",
"164 160 OFFCURVE",
"183 146 CURVE",
"93 107 OFFCURVE",
"29 9 OFFCURVE",
"29 -107 CURVE",
"29 -257 OFFCURVE",
"136 -377 OFFCURVE",
"269 -377 CURVE",
"400 -377 OFFCURVE",
"509 -257 OFFCURVE",
"509 -107 CURVE",
"509 9 OFFCURVE",
"445 107 OFFCURVE",
"355 146 CURVE"
);
},
{
closed = 1;
nodes = (
"209 261 OFFCURVE",
"233 286 OFFCURVE",
"269 286 CURVE",
"308 286 OFFCURVE",
"329 261 OFFCURVE",
"329 225 CURVE",
"329 183 OFFCURVE",
"300 163 OFFCURVE",
"269 163 CURVE",
"243 163 OFFCURVE",
"209 184 OFFCURVE",
"209 225 CURVE"
);
},
{
closed = 1;
nodes = (
"170 -327 OFFCURVE",
"89 -223 OFFCURVE",
"89 -107 CURVE",
"89 -24 OFFCURVE",
"134 51 OFFCURVE",
"192 88 CURVE",
"162 51 OFFCURVE",
"157 21 OFFCURVE",
"160 -9 CURVE SMOOTH",
"165 -60 OFFCURVE",
"211 -101 OFFCURVE",
"265 -101 CURVE",
"320 -101 OFFCURVE",
"368 -56 OFFCURVE",
"361 4 CURVE",
"358 26 OFFCURVE",
"346 39 OFFCURVE",
"327 39 CURVE",
"307 39 OFFCURVE",
"301 23 OFFCURVE",
"301 0 CURVE",
"301 -21 OFFCURVE",
"295 -51 OFFCURVE",
"263 -51 CURVE",
"235 -51 OFFCURVE",
"220 -19 OFFCURVE",
"218 0 CURVE",
"215 60 OFFCURVE",
"262 92 OFFCURVE",
"288 107 CURVE",
"378 94 OFFCURVE",
"449 0 OFFCURVE",
"449 -107 CURVE",
"449 -223 OFFCURVE",
"368 -327 OFFCURVE",
"269 -327 CURVE"
);
}
);
width = 540;
},
{
associatedMasterId = "FD4E62BB-26D6-4FFD-A4F8-E1C01461A73C";
backgroundImage = {
crop = "{{0, 0}, {11.448, 17.28}}";
imagePath = images/t.jpg;
locked = "1";
transform = "{54.366, 0, 0, 54.366, -37, -475}";
};
layerId = "CC1F7ECA-FCBA-4537-B808-F5476D0F073E";
name = "Regular Feb 10 17, 10:29";
paths = (
{
closed = 0;
nodes = (
"345 46 LINE"
);
}
);
width = 540;
},
{
backgroundImage = {
crop = "{{0, 0}, {11.448, 17.28}}";
imagePath = images/t.jpg;
locked = "1";
transform = "{54.366, 0, 0, 54.366, -37, -475}";
};
layerId = "FD4E62BB-26D6-4FFD-A4F8-E1C01461A73C";
paths = (
{
closed = 1;
nodes = (
"25 -260 OFFCURVE",
"125 -377 OFFCURVE",
"267 -377 CURVE SMOOTH",
"400 -377 OFFCURVE",
"496 -269 OFFCURVE",
"496 -117 CURVE SMOOTH",
"496 -29 OFFCURVE",
"480 48 OFFCURVE",
"418 101 CURVE",
"418 102 LINE",
"441 158 OFFCURVE",
"443 193 OFFCURVE",
"443 229 CURVE SMOOTH",
"443 282 OFFCURVE",
"412 337 OFFCURVE",
"348 337 CURVE SMOOTH",
"283 337 OFFCURVE",
"250 293 OFFCURVE",
"250 238 CURVE SMOOTH",
"250 192 OFFCURVE",
"274 142 OFFCURVE",
"276 140 CURVE",
"276 139 LINE",
"276 139 OFFCURVE",
"182 117 OFFCURVE",
"182 38 CURVE SMOOTH",
"182 -13 OFFCURVE",
"221 -46 OFFCURVE",
"275 -46 CURVE SMOOTH",
"322 -46 OFFCURVE",
"371 -16 OFFCURVE",
"393 46 CURVE",
"394 46 LINE SMOOTH",
"426 9 OFFCURVE",
"436 -34 OFFCURVE",
"436 -117 CURVE SMOOTH",
"436 -240 OFFCURVE",
"372 -327 OFFCURVE",
"266 -327 CURVE SMOOTH",
"156 -327 OFFCURVE",
"85 -200 OFFCURVE",
"85 -80 CURVE SMOOTH",
"85 54 OFFCURVE",
"173 136 OFFCURVE",
"192 151 CURVE SMOOTH",
"216 170 OFFCURVE",
"202 199 OFFCURVE",
"172 195 CURVE SMOOTH",
"123 188 OFFCURVE",
"25 65 OFFCURVE",
"25 -78 CURVE SMOOTH"
);
},
{
closed = 1;
nodes = (
"249 91 OFFCURVE",
"317 103 OFFCURVE",
"350 81 CURVE",
"339 53 OFFCURVE",
"310 4 OFFCURVE",
"275 4 CURVE SMOOTH",
"254 4 OFFCURVE",
"239 25 OFFCURVE",
"242 46 CURVE SMOOTH"
);
},
{
closed = 1;
nodes = (
"310 180 OFFCURVE",
"279 287 OFFCURVE",
"348 287 CURVE SMOOTH",
"403 287 OFFCURVE",
"375 149 OFFCURVE",
"365 131 CURVE",
"365 131 OFFCURVE",
"346 138 OFFCURVE",
"331 140 CURVE"
);
}
);
width = 540;
}
);
unicode = 10E2;
},
{
color = 3;
glyphname = "un-georgian";
lastChange = "2017-03-20 11:00:05 +0000";
layers = (
{
background = {
paths = (
{
closed = 1;
nodes = (
"40 35 OFFCURVE",
"120 11 OFFCURVE",
"159 11 CURVE SMOOTH",
"251 11 OFFCURVE",
"264 100 OFFCURVE",
"264 155 CURVE SMOOTH",
"265 188 OFFCURVE",
"246 286 OFFCURVE",
"316 286 CURVE SMOOTH",
"365 286 OFFCURVE",
"381 247 OFFCURVE",
"381 170 CURVE SMOOTH",
"381 109 OFFCURVE",
"373 70 OFFCURVE",
"364 27 CURVE",
"361 9 OFFCURVE",
"365 -7 OFFCURVE",
"384 -10 CURVE",
"398 -13 OFFCURVE",
"415 -7 OFFCURVE",
"424 16 CURVE SMOOTH",
"434 41 OFFCURVE",
"439 96 OFFCURVE",
"441 164 CURVE SMOOTH",
"444 249 OFFCURVE",
"462 286 OFFCURVE",
"509 286 CURVE SMOOTH",
"556 286 OFFCURVE",
"569 247 OFFCURVE",
"569 207 CURVE",
"569 35 OFFCURVE",
"569 -125 OFFCURVE",
"569 -220 CURVE SMOOTH",
"560 -287 OFFCURVE",
"520 -327 OFFCURVE",
"453 -327 CURVE SMOOTH",
"386 -327 OFFCURVE",
"345 -279 OFFCURVE",
"345 -238 CURVE SMOOTH",
"345 -214 OFFCURVE",
"352 -186 OFFCURVE",
"373 -177 CURVE",
"397 -197 OFFCURVE",
"443 -182 OFFCURVE",
"443 -143 CURVE SMOOTH",
"443 -132 OFFCURVE",
"439 -121 OFFCURVE",
"432 -114 CURVE",
"412 -91 OFFCURVE",
"361 -96 OFFCURVE",
"319 -143 CURVE SMOOTH",
"296 -169 OFFCURVE",
"285 -200 OFFCURVE",
"285 -238 CURVE SMOOTH",
"285 -304 OFFCURVE",
"339 -377 OFFCURVE",
"453 -377 CURVE SMOOTH",
"566 -377 OFFCURVE",
"624 -311 OFFCURVE",
"629 -192 CURVE",
"629 207 LINE",
"630 339 OFFCURVE",
"528 336 OFFCURVE",
"509 336 CURVE SMOOTH",
"433 336 OFFCURVE",
"413 271 OFFCURVE",
"413 271 CURVE SMOOTH",
"412 271 LINE",
"390 330 OFFCURVE",
"342 336 OFFCURVE",
"315 336 CURVE SMOOTH",
"203 335 OFFCURVE",
"202 231 OFFCURVE",
"204 155 CURVE SMOOTH",
"204 111 OFFCURVE",
"201 61 OFFCURVE",
"156 61 CURVE SMOOTH",
"105 61 OFFCURVE",
"93 124 OFFCURVE",
"90 155 CURVE",
"87 214 OFFCURVE",
"106 264 OFFCURVE",
"123 290 CURVE SMOOTH",
"142 319 OFFCURVE",
"123 336 OFFCURVE",
"107 336 CURVE SMOOTH",
"94 336 OFFCURVE",
"80 327 OFFCURVE",
"69 312 CURVE SMOOTH",
"44 280 OFFCURVE",
"27 219 OFFCURVE",
"30 155 CURVE"
);
}
);
};
backgroundImage = {
crop = "{{0, 0}, {15, 15.714}}";
imagePath = images/u.jpg;
transform = "{57.191, 0, 0, 57.191, -9, -422}";
};
layerId = "FD4E62BB-26D6-4FFD-A4F8-E1C01461A73C";
paths = (
{
closed = 1;
nodes = (
"40 35 OFFCURVE",
"120 11 OFFCURVE",
"159 11 CURVE SMOOTH",
"251 11 OFFCURVE",
"264 100 OFFCURVE",
"264 155 CURVE SMOOTH",
"265 188 OFFCURVE",
"246 286 OFFCURVE",
"316 286 CURVE SMOOTH",
"365 286 OFFCURVE",
"381 247 OFFCURVE",
"381 170 CURVE SMOOTH",
"381 109 OFFCURVE",
"373 70 OFFCURVE",
"364 27 CURVE",
"361 9 OFFCURVE",
"365 -7 OFFCURVE",
"384 -10 CURVE",
"398 -13 OFFCURVE",
"415 -7 OFFCURVE",
"424 16 CURVE SMOOTH",
"434 41 OFFCURVE",
"439 96 OFFCURVE",
"441 164 CURVE SMOOTH",
"444 249 OFFCURVE",
"462 286 OFFCURVE",
"509 286 CURVE SMOOTH",
"556 286 OFFCURVE",
"569 247 OFFCURVE",
"569 207 CURVE",
"569 35 OFFCURVE",
"569 -125 OFFCURVE",
"569 -220 CURVE SMOOTH",
"560 -287 OFFCURVE",
"520 -327 OFFCURVE",
"453 -327 CURVE SMOOTH",
"386 -327 OFFCURVE",
"345 -279 OFFCURVE",
"345 -238 CURVE SMOOTH",
"345 -214 OFFCURVE",
"352 -186 OFFCURVE",
"373 -177 CURVE",
"420 -209 OFFCURVE",
"466 -149 OFFCURVE",
"432 -114 CURVE",
"412 -91 OFFCURVE",
"361 -96 OFFCURVE",
"319 -143 CURVE SMOOTH",
"296 -169 OFFCURVE",
"285 -200 OFFCURVE",
"285 -238 CURVE SMOOTH",
"285 -304 OFFCURVE",
"339 -377 OFFCURVE",
"453 -377 CURVE SMOOTH",
"566 -377 OFFCURVE",
"624 -311 OFFCURVE",
"629 -192 CURVE",
"629 207 LINE",
"630 339 OFFCURVE",
"528 336 OFFCURVE",
"509 336 CURVE SMOOTH",
"433 336 OFFCURVE",
"413 271 OFFCURVE",
"413 271 CURVE SMOOTH",
"412 271 LINE",
"390 330 OFFCURVE",
"342 336 OFFCURVE",
"315 336 CURVE SMOOTH",
"203 335 OFFCURVE",
"202 231 OFFCURVE",
"204 155 CURVE SMOOTH",
"204 111 OFFCURVE",
"201 61 OFFCURVE",
"156 61 CURVE SMOOTH",
"105 61 OFFCURVE",
"93 124 OFFCURVE",
"90 155 CURVE",
"87 214 OFFCURVE",
"106 264 OFFCURVE",
"123 290 CURVE SMOOTH",
"142 319 OFFCURVE",
"123 336 OFFCURVE",
"107 336 CURVE SMOOTH",
"94 336 OFFCURVE",
"80 327 OFFCURVE",
"69 312 CURVE SMOOTH",
"44 280 OFFCURVE",
"27 219 OFFCURVE",
"30 155 CURVE"
);
}
);
width = 659;
},
{
associatedMasterId = "FD4E62BB-26D6-4FFD-A4F8-E1C01461A73C";
layerId = "8F3CCEE2-D5BA-4ADE-ABE8-4DA5EE6C20AA";
name = "Regular Nov 30 16, 11:34";
paths = (
{
closed = 1;
nodes = (
"636 339 OFFCURVE",
"549 336 OFFCURVE",
"530 336 CURVE",
"454 336 OFFCURVE",
"433 271 OFFCURVE",
"433 271 CURVE",
"432 271 LINE",
"412 343 OFFCURVE",
"336 336 OFFCURVE",
"336 336 CURVE",
"224 335 OFFCURVE",
"219 211 OFFCURVE",
"225 155 CURVE",
"231 121 OFFCURVE",
"225 61 OFFCURVE",
"176 61 CURVE",
"120 61 OFFCURVE",
"114 124 OFFCURVE",
"111 155 CURVE",
"106 201 OFFCURVE",
"120 233 OFFCURVE",
"131 251 CURVE",
"158 242 OFFCURVE",
"186 265 OFFCURVE",
"186 293 CURVE",
"186 317 OFFCURVE",
"166 336 OFFCURVE",
"142 336 CURVE",
"83 336 OFFCURVE",
"45 245 OFFCURVE",
"51 155 CURVE",
"60 24 OFFCURVE",
"141 11 OFFCURVE",
"184 11 CURVE",
"272 11 OFFCURVE",
"290 100 OFFCURVE",
"285 155 CURVE",
"280 192 OFFCURVE",
"267 280 OFFCURVE",
"337 284 CURVE",
"407 288 OFFCURVE",
"404 203 OFFCURVE",
"402 170 CURVE",
"399 113 OFFCURVE",
"387 84 OFFCURVE",
"379 75 CURVE",
"361 70 OFFCURVE",
"348 53 OFFCURVE",
"348 34 CURVE",
"348 -4 OFFCURVE",
"396 -27 OFFCURVE",
"426 6 CURVE",
"451 33 OFFCURVE",
"454 97 OFFCURVE",
"462 170 CURVE",
"469 243 OFFCURVE",
"484 285 OFFCURVE",
"530 285 CURVE",
"578 285 OFFCURVE",
"585 247 OFFCURVE",
"590 207 CURVE SMOOTH",
"626 -71 OFFCURVE",
"550 -327 OFFCURVE",
"397 -327 CURVE",
"322 -327 OFFCURVE",
"299 -268 OFFCURVE",
"296 -242 CURVE",
"293 -219 OFFCURVE",
"302 -185 OFFCURVE",
"323 -175 CURVE",
"330 -181 OFFCURVE",
"340 -185 OFFCURVE",
"350 -185 CURVE",
"388 -185 OFFCURVE",
"407 -138 OFFCURVE",
"382 -113 CURVE",
"332 -55 OFFCURVE",
"223 -148 OFFCURVE",
"236 -242 CURVE SMOOTH",
"245 -310 OFFCURVE",
"297 -377 OFFCURVE",
"397 -377 CURVE",
"634 -377 OFFCURVE",
"678 -55 OFFCURVE",
"650 207 CURVE"
);
}
);
width = 707;
},
{
associatedMasterId = "FD4E62BB-26D6-4FFD-A4F8-E1C01461A73C";
layerId = "4C89837C-236C-46A6-AF6B-4680DD22C98B";
name = "Regular Feb 10 17, 09:49";
paths = (
{
closed = 1;
nodes = (
"569 161 LINE",
"569 35 OFFCURVE",
"564 -125 OFFCURVE",
"564 -220 CURVE SMOOTH",
"564 -287 OFFCURVE",
"520 -327 OFFCURVE",
"453 -327 CURVE SMOOTH",
"386 -327 OFFCURVE",
"345 -279 OFFCURVE",
"345 -238 CURVE",
"345 -214 OFFCURVE",
"352 -186 OFFCURVE",
"373 -177 CURVE",
"380 -183 OFFCURVE",
"390 -186 OFFCURVE",
"400 -186 CURVE",
"424 -186 OFFCURVE",
"443 -167 OFFCURVE",
"443 -143 CURVE",
"443 -132 OFFCURVE",
"439 -121 OFFCURVE",
"432 -114 CURVE",
"412 -91 OFFCURVE",
"361 -96 OFFCURVE",
"319 -143 CURVE",
"296 -169 OFFCURVE",
"285 -200 OFFCURVE",
"285 -238 CURVE SMOOTH",
"285 -304 OFFCURVE",
"339 -377 OFFCURVE",
"453 -377 CURVE",
"566 -377 OFFCURVE",
"624 -311 OFFCURVE",
"624 -192 CURVE",
"624 -109 OFFCURVE",
"629 20 OFFCURVE",
"629 161 CURVE"
);
},
{
closed = 1;
nodes = (
"629 156 LINE",
"629 173 OFFCURVE",
"629 190 OFFCURVE",
"629 207 CURVE",
"630 339 OFFCURVE",
"528 336 OFFCURVE",
"509 336 CURVE",
"433 336 OFFCURVE",
"413 271 OFFCURVE",
"413 271 CURVE",
"412 271 LINE",
"390 330 OFFCURVE",
"342 336 OFFCURVE",
"315 336 CURVE",
"203 335 OFFCURVE",
"202 231 OFFCURVE",
"204 155 CURVE",
"204 111 OFFCURVE",
"201 61 OFFCURVE",
"156 61 CURVE",
"105 61 OFFCURVE",
"93 124 OFFCURVE",
"90 155 CURVE",
"87 214 OFFCURVE",
"106 264 OFFCURVE",
"123 290 CURVE SMOOTH",
"142 319 OFFCURVE",
"123 336 OFFCURVE",
"107 336 CURVE",
"94 336 OFFCURVE",
"80 327 OFFCURVE",
"69 312 CURVE SMOOTH",
"44 280 OFFCURVE",
"27 219 OFFCURVE",
"30 155 CURVE",
"40 35 OFFCURVE",
"120 11 OFFCURVE",
"159 11 CURVE",
"251 11 OFFCURVE",
"264 100 OFFCURVE",
"264 155 CURVE",
"265 188 OFFCURVE",
"246 286 OFFCURVE",
"316 286 CURVE",
"365 286 OFFCURVE",
"381 247 OFFCURVE",
"381 170 CURVE",
"381 109 OFFCURVE",
"373 70 OFFCURVE",
"364 27 CURVE",
"361 9 OFFCURVE",
"365 -7 OFFCURVE",
"384 -10 CURVE",
"398 -13 OFFCURVE",
"415 -7 OFFCURVE",
"424 16 CURVE SMOOTH",
"434 41 OFFCURVE",
"439 96 OFFCURVE",
"441 164 CURVE SMOOTH",
"444 249 OFFCURVE",
"462 286 OFFCURVE",
"509 286 CURVE",
"556 286 OFFCURVE",
"569 247 OFFCURVE",
"569 207 CURVE SMOOTH",
"569 190 OFFCURVE",
"569 173 OFFCURVE",
"569 156 CURVE"
);
}
);
width = 659;
}
);
unicode = 10E3;
},
{
color = 3;
glyphname = "phar-georgian";
lastChange = "2017-03-20 11:00:09 +0000";
layers = (
{
background = {
paths = (
{
closed = 1;
nodes = (
"30 68 OFFCURVE",
"95 -10 OFFCURVE",
"194 -10 CURVE SMOOTH",
"293 -10 OFFCURVE",
"356 68 OFFCURVE",
"356 161 CURVE",
"356 161 OFFCURVE",
"345 286 OFFCURVE",
"441 286 CURVE",
"488 289 OFFCURVE",
"530 262 OFFCURVE",
"537 189 CURVE",
"537 185 LINE SMOOTH",
"537 138 OFFCURVE",
"509 88 OFFCURVE",
"374 28 CURVE",
"363 21 OFFCURVE",
"359 6 OFFCURVE",
"364 -2 CURVE SMOOTH",
"369 -10 OFFCURVE",
"383 -13 OFFCURVE",
"393 -8 CURVE SMOOTH",
"446 18 OFFCURVE",
"466 24 OFFCURVE",
"492 24 CURVE SMOOTH",
"523 25 OFFCURVE",
"557 1 OFFCURVE",
"557 -39 CURVE SMOOTH",
"557 -122 OFFCURVE",
"557 -158 OFFCURVE",
"557 -221 CURVE SMOOTH",
"557 -288 OFFCURVE",
"513 -328 OFFCURVE",
"446 -328 CURVE SMOOTH",
"379 -328 OFFCURVE",
"338 -280 OFFCURVE",
"338 -239 CURVE SMOOTH",
"338 -215 OFFCURVE",
"345 -187 OFFCURVE",
"366 -178 CURVE",
"373 -184 OFFCURVE",
"383 -187 OFFCURVE",
"393 -187 CURVE SMOOTH",
"431 -187 OFFCURVE",
"450 -140 OFFCURVE",
"425 -115 CURVE",
"405 -92 OFFCURVE",
"354 -97 OFFCURVE",
"312 -144 CURVE SMOOTH",
"289 -170 OFFCURVE",
"278 -201 OFFCURVE",
"278 -239 CURVE SMOOTH",
"278 -305 OFFCURVE",
"332 -378 OFFCURVE",
"446 -378 CURVE SMOOTH",
"559 -378 OFFCURVE",
"617 -312 OFFCURVE",
"617 -193 CURVE SMOOTH",
"617 -39 LINE SMOOTH",
"617 -21 OFFCURVE",
"615 34 OFFCURVE",
"562 65 CURVE",
"554 69 OFFCURVE",
"549 71 OFFCURVE",
"547 71 CURVE",
"547 72 LINE",
"583 101 OFFCURVE",
"599 155 OFFCURVE",
"597 184 CURVE",
"597 189 LINE",
"592 278 OFFCURVE",
"536 336 OFFCURVE",
"441 336 CURVE SMOOTH",
"385 336 OFFCURVE",
"347 311 OFFCURVE",
"324 272 CURVE",
"296 312 OFFCURVE",
"250 336 OFFCURVE",
"194 336 CURVE SMOOTH",
"95 336 OFFCURVE",
"30 260 OFFCURVE",
"30 164 CURVE SMOOTH"
);
},
{
closed = 1;
nodes = (
"90 234 OFFCURVE",
"133 286 OFFCURVE",
"194 286 CURVE SMOOTH",
"262 286 OFFCURVE",
"291 241 OFFCURVE",
"296 161 CURVE",
"296 96 OFFCURVE",
"254 39 OFFCURVE",
"194 40 CURVE SMOOTH",
"133 41 OFFCURVE",
"90 92 OFFCURVE",
"90 164 CURVE SMOOTH"
);
}
);
};
backgroundImage = {
crop = "{{0, 0}, {9.81, 14.85}}";
imagePath = images/f.jpg;
locked = "1";
transform = "{55.778, 0, 0, 55.778, 128, -422}";
};
guideLines = (
{
position = "{679, 189}";
}
);
layerId = "FD4E62BB-26D6-4FFD-A4F8-E1C01461A73C";
paths = (
{
closed = 1;
nodes = (
"30 68 OFFCURVE",
"95 -10 OFFCURVE",
"194 -10 CURVE SMOOTH",
"293 -10 OFFCURVE",
"356 72 OFFCURVE",
"356 161 CURVE",
"356 161 OFFCURVE",
"345 286 OFFCURVE",
"441 286 CURVE",
"488 289 OFFCURVE",
"537 262 OFFCURVE",
"537 189 CURVE SMOOTH",
"537 98 OFFCURVE",
"409 55 OFFCURVE",
"374 35 CURVE",
"364 30 OFFCURVE",
"356 15 OFFCURVE",
"364 2 CURVE SMOOTH",
"372 -11 OFFCURVE",
"387 -14 OFFCURVE",
"400 -7 CURVE SMOOTH",
"451 21 OFFCURVE",
"480 35 OFFCURVE",
"502 46 CURVE",
"536 40 OFFCURVE",
"557 8 OFFCURVE",
"557 -32 CURVE SMOOTH",
"557 -221 LINE SMOOTH",
"557 -288 OFFCURVE",
"513 -328 OFFCURVE",
"446 -328 CURVE SMOOTH",
"379 -328 OFFCURVE",
"338 -280 OFFCURVE",
"338 -239 CURVE SMOOTH",
"338 -215 OFFCURVE",
"345 -187 OFFCURVE",
"366 -178 CURVE",
"410 -209 OFFCURVE",
"459 -153 OFFCURVE",
"425 -115 CURVE SMOOTH",
"383 -68 OFFCURVE",
"272 -142 OFFCURVE",
"278 -239 CURVE SMOOTH",
"282 -305 OFFCURVE",
"332 -378 OFFCURVE",
"446 -378 CURVE SMOOTH",
"559 -378 OFFCURVE",
"617 -312 OFFCURVE",
"617 -193 CURVE SMOOTH",
"617 -32 LINE SMOOTH",
"617 6 OFFCURVE",
"597 61 OFFCURVE",
"543 78 CURVE",
"543 79 LINE",
"573 103 OFFCURVE",
"597 140 OFFCURVE",
"597 189 CURVE SMOOTH",
"597 278 OFFCURVE",
"536 336 OFFCURVE",
"441 336 CURVE SMOOTH",
"385 336 OFFCURVE",
"347 311 OFFCURVE",
"324 272 CURVE",
"296 312 OFFCURVE",
"250 336 OFFCURVE",
"194 336 CURVE SMOOTH",
"95 336 OFFCURVE",
"30 260 OFFCURVE",
"30 164 CURVE SMOOTH"
);
},
{
closed = 1;
nodes = (
"90 234 OFFCURVE",
"133 286 OFFCURVE",
"194 286 CURVE SMOOTH",
"262 286 OFFCURVE",
"296 237 OFFCURVE",
"296 161 CURVE SMOOTH",
"296 92 OFFCURVE",
"254 39 OFFCURVE",
"194 40 CURVE SMOOTH",
"133 41 OFFCURVE",
"90 92 OFFCURVE",
"90 164 CURVE SMOOTH"
);
}
);
width = 647;
},
{
associatedMasterId = "FD4E62BB-26D6-4FFD-A4F8-E1C01461A73C";
layerId = "514C9914-76FE-4306-A674-146AAEC51577";
name = "Regular Nov 30 16, 11:45";
paths = (
{
closed = 1;
nodes = (
"561 5 LINE",
"607 51 OFFCURVE",
"616 85 OFFCURVE",
"617 161 CURVE",
"623 265 OFFCURVE",
"566 336 OFFCURVE",
"461 336 CURVE",
"405 336 OFFCURVE",
"367 311 OFFCURVE",
"344 272 CURVE",
"316 312 OFFCURVE",
"270 336 OFFCURVE",
"214 336 CURVE",
"115 336 OFFCURVE",
"50 260 OFFCURVE",
"50 164 CURVE",
"50 68 OFFCURVE",
"115 -10 OFFCURVE",
"214 -10 CURVE",
"313 -10 OFFCURVE",
"376 68 OFFCURVE",
"376 161 CURVE",
"376 161 OFFCURVE",
"365 286 OFFCURVE",
"461 286 CURVE",
"514 289 OFFCURVE",
"559 254 OFFCURVE",
"557 161 CURVE",
"556 144 OFFCURVE",
"544 31 OFFCURVE",
"456 31 CURVE",
"446 31 OFFCURVE",
"427 29 OFFCURVE",
"427 9 CURVE",
"427 -11 OFFCURVE",
"446 -11 OFFCURVE",
"456 -11 CURVE",
"542 -11 OFFCURVE",
"555 -95 OFFCURVE",
"557 -144 CURVE",
"559 -202 OFFCURVE",
"540 -327 OFFCURVE",
"447 -327 CURVE",
"372 -327 OFFCURVE",
"348 -267 OFFCURVE",
"345 -243 CURVE",
"342 -218 OFFCURVE",
"352 -184 OFFCURVE",
"373 -175 CURVE",
"373 -175 OFFCURVE",
"373 -175 OFFCURVE",
"373 -175 CURVE",
"381 -181 OFFCURVE",
"390 -184 OFFCURVE",
"400 -184 CURVE",
"424 -184 OFFCURVE",
"443 -165 OFFCURVE",
"443 -141 CURVE",
"443 -120 OFFCURVE",
"428 -102 OFFCURVE",
"407 -99 CURVE",
"385 -94 OFFCURVE",
"353 -104 OFFCURVE",
"319 -142 CURVE",
"294 -170 OFFCURVE",
"283 -207 OFFCURVE",
"285 -243 CURVE SMOOTH",
"291 -311 OFFCURVE",
"347 -377 OFFCURVE",
"447 -377 CURVE",
"593 -377 OFFCURVE",
"618 -224 OFFCURVE",
"617 -143 CURVE",
"616 -34 OFFCURVE",
"561 4 OFFCURVE",
"561 4 CURVE"
);
},
{
closed = 1;
nodes = (
"316 96 OFFCURVE",
"274 39 OFFCURVE",
"214 40 CURVE",
"153 41 OFFCURVE",
"110 92 OFFCURVE",
"110 164 CURVE",
"110 234 OFFCURVE",
"153 286 OFFCURVE",
"214 286 CURVE",
"282 286 OFFCURVE",
"311 241 OFFCURVE",
"316 161 CURVE"
);
}
);
width = 667;
},
{
associatedMasterId = "FD4E62BB-26D6-4FFD-A4F8-E1C01461A73C";
layerId = "C4F1321E-ECAB-4D33-B78A-B1C384D53C44";
name = "Regular Nov 30 16, 11:48";
paths = (
{
closed = 1;
nodes = (
"316 96 OFFCURVE",
"274 39 OFFCURVE",
"214 40 CURVE",
"153 41 OFFCURVE",
"110 92 OFFCURVE",
"110 164 CURVE",
"110 234 OFFCURVE",
"153 286 OFFCURVE",
"214 286 CURVE",
"282 286 OFFCURVE",
"311 241 OFFCURVE",
"316 161 CURVE"
);
},
{
closed = 1;
nodes = (
"557 -145 LINE",
"556 -182 OFFCURVE",
"556 -192 OFFCURVE",
"556 -220 CURVE SMOOTH",
"556 -287 OFFCURVE",
"512 -327 OFFCURVE",
"445 -327 CURVE SMOOTH",
"378 -327 OFFCURVE",
"337 -279 OFFCURVE",
"337 -238 CURVE",
"337 -214 OFFCURVE",
"344 -186 OFFCURVE",
"365 -177 CURVE",
"372 -183 OFFCURVE",
"382 -186 OFFCURVE",
"392 -186 CURVE",
"416 -186 OFFCURVE",
"435 -167 OFFCURVE",
"435 -143 CURVE",
"435 -132 OFFCURVE",
"431 -121 OFFCURVE",
"424 -114 CURVE",
"404 -91 OFFCURVE",
"353 -96 OFFCURVE",
"311 -143 CURVE",
"288 -169 OFFCURVE",
"277 -200 OFFCURVE",
"277 -238 CURVE SMOOTH",
"277 -304 OFFCURVE",
"331 -377 OFFCURVE",
"445 -377 CURVE",
"558 -377 OFFCURVE",
"616 -311 OFFCURVE",
"616 -192 CURVE",
"616 -171 OFFCURVE",
"617 -145 OFFCURVE",
"617 -145 CURVE SMOOTH"
);
},
{
closed = 1;
nodes = (
"617 -145 LINE",
"617 -145 OFFCURVE",
"617 -144 OFFCURVE",
"617 -143 CURVE",
"616 -34 OFFCURVE",
"561 4 OFFCURVE",
"561 4 CURVE",
"561 5 LINE",
"607 51 OFFCURVE",
"616 85 OFFCURVE",
"617 161 CURVE",
"623 265 OFFCURVE",
"566 336 OFFCURVE",
"461 336 CURVE",
"405 336 OFFCURVE",
"367 311 OFFCURVE",
"344 272 CURVE",
"316 312 OFFCURVE",
"270 336 OFFCURVE",
"214 336 CURVE",
"115 336 OFFCURVE",
"50 260 OFFCURVE",
"50 164 CURVE",
"50 68 OFFCURVE",
"115 -10 OFFCURVE",
"214 -10 CURVE",
"313 -10 OFFCURVE",
"376 68 OFFCURVE",
"376 161 CURVE",
"376 161 OFFCURVE",
"365 286 OFFCURVE",
"461 286 CURVE",
"514 289 OFFCURVE",
"559 254 OFFCURVE",
"557 161 CURVE",
"556 144 OFFCURVE",
"544 31 OFFCURVE",
"456 31 CURVE",
"446 31 OFFCURVE",
"427 29 OFFCURVE",
"427 9 CURVE",
"427 -11 OFFCURVE",
"446 -11 OFFCURVE",
"456 -11 CURVE",
"542 -11 OFFCURVE",
"555 -95 OFFCURVE",
"557 -144 CURVE",
"557 -144 OFFCURVE",
"557 -145 OFFCURVE",
"557 -145 CURVE"
);
}
);
width = 667;
},
{
associatedMasterId = "FD4E62BB-26D6-4FFD-A4F8-E1C01461A73C";
guideLines = (
{
position = "{679, 189}";
}
);
layerId = "4D83DFD8-5942-4D2F-A3C3-4DFEAC010C34";
name = "Regular Feb 10 17, 09:51";
paths = (
{
closed = 1;
nodes = (
"296 96 OFFCURVE",
"254 39 OFFCURVE",
"194 40 CURVE",
"133 41 OFFCURVE",
"90 92 OFFCURVE",
"90 164 CURVE",
"90 234 OFFCURVE",
"133 286 OFFCURVE",
"194 286 CURVE",
"262 286 OFFCURVE",
"291 241 OFFCURVE",
"296 161 CURVE"
);
},
{
closed = 1;
nodes = (
"560 -39 LINE",
"559 -122 OFFCURVE",
"557 -158 OFFCURVE",
"557 -221 CURVE SMOOTH",
"557 -288 OFFCURVE",
"513 -328 OFFCURVE",
"446 -328 CURVE SMOOTH",
"379 -328 OFFCURVE",
"338 -280 OFFCURVE",
"338 -239 CURVE",
"338 -215 OFFCURVE",
"345 -187 OFFCURVE",
"366 -178 CURVE",
"373 -184 OFFCURVE",
"383 -187 OFFCURVE",
"393 -187 CURVE",
"431 -187 OFFCURVE",
"450 -140 OFFCURVE",
"425 -115 CURVE",
"405 -92 OFFCURVE",
"354 -97 OFFCURVE",
"312 -144 CURVE",
"289 -170 OFFCURVE",
"278 -201 OFFCURVE",
"278 -239 CURVE SMOOTH",
"278 -305 OFFCURVE",
"332 -378 OFFCURVE",
"446 -378 CURVE",
"559 -378 OFFCURVE",
"617 -312 OFFCURVE",
"617 -193 CURVE",
"617 -137 OFFCURVE",
"617 -96 OFFCURVE",
"617 -39 CURVE"
);
},
{
closed = 1;
nodes = (
"537 189 LINE",
"537 187 OFFCURVE",
"537 186 OFFCURVE",
"537 185 CURVE SMOOTH",
"537 138 OFFCURVE",
"509 88 OFFCURVE",
"374 28 CURVE",
"363 21 OFFCURVE",
"359 6 OFFCURVE",
"364 -2 CURVE",
"369 -10 OFFCURVE",
"383 -13 OFFCURVE",
"393 -8 CURVE SMOOTH",
"446 18 OFFCURVE",
"466 24 OFFCURVE",
"492 24 CURVE",
"523 25 OFFCURVE",
"560 1 OFFCURVE",
"560 -39 CURVE",
"617 -39 LINE",
"617 -21 OFFCURVE",
"615 34 OFFCURVE",
"562 65 CURVE",
"554 69 OFFCURVE",
"549 71 OFFCURVE",
"547 71 CURVE",
"547 72 LINE",
"583 101 OFFCURVE",
"599 155 OFFCURVE",
"597 184 CURVE",
"597 186 OFFCURVE",
"597 187 OFFCURVE",
"597 189 CURVE"
);
},
{
closed = 1;
nodes = (
"597 189 LINE",
"592 278 OFFCURVE",
"536 336 OFFCURVE",
"441 336 CURVE",
"385 336 OFFCURVE",
"347 311 OFFCURVE",
"324 272 CURVE",
"296 312 OFFCURVE",
"250 336 OFFCURVE",
"194 336 CURVE",
"95 336 OFFCURVE",
"30 260 OFFCURVE",
"30 164 CURVE",
"30 68 OFFCURVE",
"95 -10 OFFCURVE",
"194 -10 CURVE",
"293 -10 OFFCURVE",
"356 68 OFFCURVE",
"356 161 CURVE",
"356 161 OFFCURVE",
"345 286 OFFCURVE",
"441 286 CURVE",
"488 289 OFFCURVE",
"530 262 OFFCURVE",
"537 189 CURVE"
);
}
);
width = 647;
}
);
unicode = 10E4;
},
{
color = 3;
glyphname = "khar-georgian";
lastChange = "2017-03-20 11:00:13 +0000";
layers = (
{
background = {
paths = (
{
closed = 1;
nodes = (
"30 -304 OFFCURVE",
"84 -377 OFFCURVE",
"198 -377 CURVE SMOOTH",
"311 -377 OFFCURVE",
"369 -311 OFFCURVE",
"369 -192 CURVE SMOOTH",
"369 -91.893 OFFCURVE",
"372.636 15.486 OFFCURVE",
"372.975 183 CURVE",
"373 183 LINE",
"372.985 193.202 LINE",
"372.997 198.084 OFFCURVE",
"373 203.016 OFFCURVE",
"373 208 CURVE",
"372.787 292.574 OFFCURVE",
"371.894 483.411 OFFCURVE",
"371 596 CURVE",
"371 674 LINE SMOOTH",
"371 694 OFFCURVE",
"369 713 OFFCURVE",
"342 713 CURVE SMOOTH",
"271 713 LINE SMOOTH",
"257 713 OFFCURVE",
"246 699 OFFCURVE",
"246 689 CURVE SMOOTH",
"246 672 OFFCURVE",
"259 663 OFFCURVE",
"271 663 CURVE SMOOTH",
"279 663 OFFCURVE",
"286 663 OFFCURVE",
"311 663 CURVE",
"311 662 LINE SMOOTH",
"311 650.336 OFFCURVE",
"311 620.626 OFFCURVE",
"311 596 CURVE SMOOTH",
"311 582 LINE",
"312.341 319.092 LINE",
"291.734 330.5 OFFCURVE",
"266.811 336 OFFCURVE",
"239 336 CURVE SMOOTH",
"135 336 OFFCURVE",
"104 236 OFFCURVE",
"103 218 CURVE",
"93 148 OFFCURVE",
"127 85 OFFCURVE",
"173 85 CURVE SMOOTH",
"188 85 OFFCURVE",
"216 97 OFFCURVE",
"216 129 CURVE SMOOTH",
"216 151 OFFCURVE",
"206 172 OFFCURVE",
"168 172 CURVE",
"161 186 OFFCURVE",
"160 201 OFFCURVE",
"163 216 CURVE SMOOTH",
"170 253 OFFCURVE",
"201 286 OFFCURVE",
"239 286 CURVE SMOOTH",
"275.755 286 OFFCURVE",
"310.639 261.676 OFFCURVE",
"312.885 206.693 CURVE",
"312.984 186.363 LINE SMOOTH",
"312.707 58.808 OFFCURVE",
"309 -110.253 OFFCURVE",
"309 -220 CURVE SMOOTH",
"309 -287 OFFCURVE",
"265 -327 OFFCURVE",
"198 -327 CURVE SMOOTH",
"131 -327 OFFCURVE",
"90 -279 OFFCURVE",
"90 -238 CURVE SMOOTH",
"90 -214 OFFCURVE",
"97 -186 OFFCURVE",
"118 -177 CURVE",
"125 -183 OFFCURVE",
"135 -186 OFFCURVE",
"145 -186 CURVE SMOOTH",
"169 -186 OFFCURVE",
"188 -167 OFFCURVE",
"188 -143 CURVE SMOOTH",
"188 -132 OFFCURVE",
"184 -121 OFFCURVE",
"177 -114 CURVE",
"157 -91 OFFCURVE",
"106 -96 OFFCURVE",
"64 -143 CURVE SMOOTH",
"41 -169 OFFCURVE",
"30 -200 OFFCURVE",
"30 -238 CURVE SMOOTH"
);
}
);
};
backgroundImage = {
crop = "{{0, 0}, {15.138, 21.834}}";
imagePath = images/q.jpg;
locked = "1";
transform = "{58.547, 0, 0, 58.547, -239, -522}";
};
layerId = "FD4E62BB-26D6-4FFD-A4F8-E1C01461A73C";
paths = (
{
closed = 1;
nodes = (
"30 -304 OFFCURVE",
"84 -377 OFFCURVE",
"198 -377 CURVE SMOOTH",
"311 -377 OFFCURVE",
"372 -311 OFFCURVE",
"372 -192 CURVE",
"372 675 LINE",
"372 695 OFFCURVE",
"369 714 OFFCURVE",
"342 714 CURVE SMOOTH",
"271 714 LINE SMOOTH",
"257 714 OFFCURVE",
"246 700 OFFCURVE",
"246 690 CURVE SMOOTH",
"246 673 OFFCURVE",
"259 664 OFFCURVE",
"271 664 CURVE SMOOTH",
"279 664 OFFCURVE",
"286 664 OFFCURVE",
"311 664 CURVE",
"312 663 LINE",
"312 304 LINE",
"288 326 OFFCURVE",
"259 336 OFFCURVE",
"231 336 CURVE SMOOTH",
"127 336 OFFCURVE",
"104 236 OFFCURVE",
"103 218 CURVE",
"93 148 OFFCURVE",
"127 85 OFFCURVE",
"173 85 CURVE SMOOTH",
"226 85 OFFCURVE",
"239 172 OFFCURVE",
"168 172 CURVE",
"146 216 OFFCURVE",
"183 286 OFFCURVE",
"239 286 CURVE SMOOTH",
"269 286 OFFCURVE",
"293 274 OFFCURVE",
"312 251 CURVE",
"312 234 OFFCURVE",
"312 -97 OFFCURVE",
"312 -210 CURVE SMOOTH",
"312 -277 OFFCURVE",
"265 -327 OFFCURVE",
"198 -327 CURVE SMOOTH",
"131 -327 OFFCURVE",
"90 -279 OFFCURVE",
"90 -238 CURVE SMOOTH",
"90 -214 OFFCURVE",
"97 -186 OFFCURVE",
"118 -177 CURVE",
"160 -209 OFFCURVE",
"213 -152 OFFCURVE",
"177 -114 CURVE",
"157 -91 OFFCURVE",
"106 -96 OFFCURVE",
"64 -143 CURVE SMOOTH",
"41 -169 OFFCURVE",
"30 -200 OFFCURVE",
"30 -238 CURVE SMOOTH"
);
}
);
width = 403;
},
{
associatedMasterId = "FD4E62BB-26D6-4FFD-A4F8-E1C01461A73C";
layerId = "25C98C2C-6B52-4206-9205-8749097F50B2";
name = "Regular Feb 7 17, 11:31";
paths = (
{
closed = 1;
nodes = (
"368 296 OFFCURVE",
"314 336 OFFCURVE",
"239 336 CURVE",
"135 336 OFFCURVE",
"104 236 OFFCURVE",
"103 218 CURVE",
"93 148 OFFCURVE",
"127 85 OFFCURVE",
"173 85 CURVE",
"188 85 OFFCURVE",
"216 97 OFFCURVE",
"216 129 CURVE",
"216 151 OFFCURVE",
"206 172 OFFCURVE",
"168 172 CURVE",
"161 186 OFFCURVE",
"160 201 OFFCURVE",
"163 216 CURVE SMOOTH",
"170 253 OFFCURVE",
"201 286 OFFCURVE",
"239 286 CURVE",
"277 286 OFFCURVE",
"313 260 OFFCURVE",
"313 201 CURVE SMOOTH",
"313 72 OFFCURVE",
"309 -106 OFFCURVE",
"309 -220 CURVE SMOOTH",
"309 -287 OFFCURVE",
"265 -327 OFFCURVE",
"198 -327 CURVE SMOOTH",
"131 -327 OFFCURVE",
"90 -279 OFFCURVE",
"90 -238 CURVE",
"90 -214 OFFCURVE",
"97 -186 OFFCURVE",
"118 -177 CURVE",
"125 -183 OFFCURVE",
"135 -186 OFFCURVE",
"145 -186 CURVE",
"169 -186 OFFCURVE",
"188 -167 OFFCURVE",
"188 -143 CURVE",
"188 -132 OFFCURVE",
"184 -121 OFFCURVE",
"177 -114 CURVE",
"157 -91 OFFCURVE",
"106 -96 OFFCURVE",
"64 -143 CURVE",
"41 -169 OFFCURVE",
"30 -200 OFFCURVE",
"30 -238 CURVE SMOOTH",
"30 -304 OFFCURVE",
"84 -377 OFFCURVE",
"198 -377 CURVE",
"311 -377 OFFCURVE",
"369 -311 OFFCURVE",
"369 -192 CURVE",
"369 -87 OFFCURVE",
"373 26 OFFCURVE",
"373 208 CURVE"
);
},
{
closed = 1;
nodes = (
"373 183 LINE",
"373 273 OFFCURVE",
"369 684 OFFCURVE",
"369 684 CURVE",
"371 726 OFFCURVE",
"335 724 OFFCURVE",
"335 724 CURVE",
"301 723 OFFCURVE",
"282 676 OFFCURVE",
"241 664 CURVE",
"241 664 OFFCURVE",
"241 664 OFFCURVE",
"241 664 CURVE",
"240 664 OFFCURVE",
"239 664 OFFCURVE",
"238 664 CURVE",
"223 662 OFFCURVE",
"213 649 OFFCURVE",
"215 634 CURVE",
"217 620 OFFCURVE",
"230 610 OFFCURVE",
"244 612 CURVE",
"246 612 OFFCURVE",
"247 612 OFFCURVE",
"249 613 CURVE",
"262 616 OFFCURVE",
"284 627 OFFCURVE",
"284 627 CURVE",
"312 644 OFFCURVE",
"311 623 OFFCURVE",
"311 623 CURVE",
"313 183 LINE"
);
}
);
width = 403;
},
{
associatedMasterId = "FD4E62BB-26D6-4FFD-A4F8-E1C01461A73C";
layerId = "07C08DBE-CD39-481E-A6B9-C62912FA2858";
name = "Regular Feb 10 17, 09:53";
paths = (
{
closed = 1;
nodes = (
"368 296 OFFCURVE",
"314 336 OFFCURVE",
"239 336 CURVE",
"135 336 OFFCURVE",
"104 236 OFFCURVE",
"103 218 CURVE",
"93 148 OFFCURVE",
"127 85 OFFCURVE",
"173 85 CURVE",
"188 85 OFFCURVE",
"216 97 OFFCURVE",
"216 129 CURVE",
"216 151 OFFCURVE",
"206 172 OFFCURVE",
"168 172 CURVE",
"161 186 OFFCURVE",
"160 201 OFFCURVE",
"163 216 CURVE SMOOTH",
"170 253 OFFCURVE",
"201 286 OFFCURVE",
"239 286 CURVE",
"277 286 OFFCURVE",
"313 260 OFFCURVE",
"313 201 CURVE SMOOTH",
"313 72 OFFCURVE",
"309 -106 OFFCURVE",
"309 -220 CURVE SMOOTH",
"309 -287 OFFCURVE",
"265 -327 OFFCURVE",
"198 -327 CURVE SMOOTH",
"131 -327 OFFCURVE",
"90 -279 OFFCURVE",
"90 -238 CURVE",
"90 -214 OFFCURVE",
"97 -186 OFFCURVE",
"118 -177 CURVE",
"125 -183 OFFCURVE",
"135 -186 OFFCURVE",
"145 -186 CURVE",
"169 -186 OFFCURVE",
"188 -167 OFFCURVE",
"188 -143 CURVE",
"188 -132 OFFCURVE",
"184 -121 OFFCURVE",
"177 -114 CURVE",
"157 -91 OFFCURVE",
"106 -96 OFFCURVE",
"64 -143 CURVE",
"41 -169 OFFCURVE",
"30 -200 OFFCURVE",
"30 -238 CURVE SMOOTH",
"30 -304 OFFCURVE",
"84 -377 OFFCURVE",
"198 -377 CURVE",
"311 -377 OFFCURVE",
"369 -311 OFFCURVE",
"369 -192 CURVE",
"369 -87 OFFCURVE",
"373 26 OFFCURVE",
"373 208 CURVE"
);
},
{
closed = 1;
nodes = (
"311 596 LINE",
"313 183 LINE",
"373 183 LINE",
"373 246 OFFCURVE",
"372 470 OFFCURVE",
"371 596 CURVE"
);
},
{
closed = 1;
nodes = (
"371 582 LINE",
"371 612 OFFCURVE",
"371 660 OFFCURVE",
"371 674 CURVE SMOOTH",
"371 694 OFFCURVE",
"369 713 OFFCURVE",
"342 713 CURVE SMOOTH",
"307 713 OFFCURVE",
"316 713 OFFCURVE",
"271 713 CURVE SMOOTH",
"257 713 OFFCURVE",
"246 699 OFFCURVE",
"246 689 CURVE SMOOTH",
"246 672 OFFCURVE",
"259 663 OFFCURVE",
"271 663 CURVE",
"279 663 OFFCURVE",
"286 663 OFFCURVE",
"311 663 CURVE",
"311 663 OFFCURVE",
"311 662 OFFCURVE",
"311 662 CURVE",
"311 648 OFFCURVE",
"311 608 OFFCURVE",
"311 582 CURVE"
);
}
);
width = 403;
}
);
unicode = 10E5;
},
{
color = 3;
glyphname = "ghan-georgian";
lastChange = "2017-03-21 06:57:47 +0000";
layers = (
{
associatedMasterId = "FD4E62BB-26D6-4FFD-A4F8-E1C01461A73C";
layerId = "FEE3A4FF-C4F7-4F29-A5D6-0E70D6A7B202";
name = "Regular Feb 1 17, 10:20";
paths = (
{
closed = 1;
nodes = (
"185 336 LINE",
"80 335 OFFCURVE",
"24 242 OFFCURVE",
"31 155 CURVE SMOOTH",
"44 -2 OFFCURVE",
"209 -101 OFFCURVE",
"209 -101 CURVE",
"209 -102 LINE",
"172 -95 OFFCURVE",
"134 -93 OFFCURVE",
"109 -95 CURVE SMOOTH",
"87 -97 OFFCURVE",
"79 -108 OFFCURVE",
"79 -121 CURVE SMOOTH",
"79 -140 OFFCURVE",
"95 -145 OFFCURVE",
"118 -145 CURVE SMOOTH",
"296 -145 OFFCURVE",
"420 -212 OFFCURVE",
"475 -354 CURVE SMOOTH",
"490 -393 OFFCURVE",
"534 -384 OFFCURVE",
"523 -331 CURVE SMOOTH",
"518 -307 OFFCURVE",
"475 -212 OFFCURVE",
"332 -127 CURVE SMOOTH",
"193 -44 OFFCURVE",
"91 63 OFFCURVE",
"91 155 CURVE SMOOTH",
"91 231 OFFCURVE",
"132 285 OFFCURVE",
"185 286 CURVE"
);
},
{
closed = 1;
nodes = (
"185 286 LINE",
"185 286 OFFCURVE",
"185 286 OFFCURVE",
"185 286 CURVE SMOOTH",
"243 286 OFFCURVE",
"289 246 OFFCURVE",
"289 155 CURVE SMOOTH",
"289 118 OFFCURVE",
"281 90 OFFCURVE",
"273 73 CURVE",
"269 75 OFFCURVE",
"265 75 OFFCURVE",
"260 75 CURVE SMOOTH",
"237 75 OFFCURVE",
"217 56 OFFCURVE",
"217 32 CURVE SMOOTH",
"217 8 OFFCURVE",
"237 -11 OFFCURVE",
"260 -11 CURVE SMOOTH",
"312 -11 OFFCURVE",
"349 76 OFFCURVE",
"349 155 CURVE",
"349 273 OFFCURVE",
"279 338 OFFCURVE",
"185 336 CURVE SMOOTH",
"185 336 OFFCURVE",
"185 336 OFFCURVE",
"185 336 CURVE"
);
},
{
closed = 1;
nodes = (
"335 228 LINE",
"352 267 OFFCURVE",
"385 286 OFFCURVE",
"424 286 CURVE SMOOTH",
"482 286 OFFCURVE",
"528 246 OFFCURVE",
"528 155 CURVE SMOOTH",
"528 118 OFFCURVE",
"520 90 OFFCURVE",
"512 73 CURVE",
"508 75 OFFCURVE",
"504 75 OFFCURVE",
"499 75 CURVE SMOOTH",
"476 75 OFFCURVE",
"456 56 OFFCURVE",
"456 32 CURVE SMOOTH",
"456 8 OFFCURVE",
"476 -11 OFFCURVE",
"499 -11 CURVE SMOOTH",
"551 -11 OFFCURVE",
"588 76 OFFCURVE",
"588 155 CURVE",
"588 273 OFFCURVE",
"518 338 OFFCURVE",
"424 336 CURVE SMOOTH",
"368 335 OFFCURVE",
"323 311 OFFCURVE",
"295 272 CURVE"
);
}
);
width = 618;
},
{
backgroundImage = {
crop = "{{0, 0}, {20.898, 15.57}}";
imagePath = images/dR.jpg;
locked = "1";
transform = "{57.287, 0, 0, 57.287, -491, -420}";
};
layerId = "FD4E62BB-26D6-4FFD-A4F8-E1C01461A73C";
paths = (
{
closed = 1;
nodes = (
"67 6 OFFCURVE",
"223 -98 OFFCURVE",
"228 -101 CURVE",
"228 -102 LINE",
"191 -92 OFFCURVE",
"144 -88 OFFCURVE",
"119 -90 CURVE SMOOTH",
"97 -92 OFFCURVE",
"89 -107 OFFCURVE",
"89 -120 CURVE SMOOTH",
"89 -141 OFFCURVE",
"108 -147 OFFCURVE",
"131 -146 CURVE SMOOTH",
"311 -140 OFFCURVE",
"384 -254 OFFCURVE",
"440 -345 CURVE SMOOTH",
"464 -385 OFFCURVE",
"506 -362 OFFCURVE",
"500 -331 CURVE",
"494 -307 OFFCURVE",
"464 -248 OFFCURVE",
"348 -144 CURVE SMOOTH",
"223 -32 OFFCURVE",
"127 50 OFFCURVE",
"126 158 CURVE",
"127 234 OFFCURVE",
"163 286 OFFCURVE",
"215 286 CURVE SMOOTH",
"271 286 OFFCURVE",
"304 242 OFFCURVE",
"305 156 CURVE SMOOTH",
"306 69 OFFCURVE",
"298 54 OFFCURVE",
"298 54 CURVE",
"284 21 OFFCURVE",
"300 -10 OFFCURVE",
"334 -10 CURVE SMOOTH",
"368 -10 OFFCURVE",
"385 21 OFFCURVE",
"371 55 CURVE",
"371 55 OFFCURVE",
"365 69 OFFCURVE",
"365 156 CURVE SMOOTH",
"365 242 OFFCURVE",
"398 286 OFFCURVE",
"457 286 CURVE SMOOTH",
"515 286 OFFCURVE",
"561 247 OFFCURVE",
"561 156 CURVE SMOOTH",
"561 119 OFFCURVE",
"553 91 OFFCURVE",
"545 74 CURVE",
"519 84 OFFCURVE",
"489 65 OFFCURVE",
"489 33 CURVE SMOOTH",
"489 9 OFFCURVE",
"509 -10 OFFCURVE",
"532 -10 CURVE SMOOTH",
"584 -10 OFFCURVE",
"621 77 OFFCURVE",
"621 156 CURVE SMOOTH",
"621 274 OFFCURVE",
"551 337 OFFCURVE",
"457 336 CURVE SMOOTH",
"401 336 OFFCURVE",
"357 299 OFFCURVE",
"337 258 CURVE",
"336 258 LINE",
"317 298 OFFCURVE",
"272 336 OFFCURVE",
"215 336 CURVE SMOOTH",
"111 336 OFFCURVE",
"67 249 OFFCURVE",
"66 158 CURVE SMOOTH"
);
}
);
width = 671;
}
);
unicode = 10E6;
},
{
color = 3;
glyphname = "qar-georgian";
lastChange = "2017-03-20 11:00:24 +0000";
layers = (
{
background = {
paths = (
{
closed = 1;
nodes = (
"25 24 OFFCURVE",
"93 -10 OFFCURVE",
"151 -10 CURVE SMOOTH",
"243 -10 OFFCURVE",
"264 71 OFFCURVE",
"264 167 CURVE SMOOTH",
"264 229 OFFCURVE",
"275 286 OFFCURVE",
"330 286 CURVE SMOOTH",
"394 286 OFFCURVE",
"398 229 OFFCURVE",
"398 161 CURVE SMOOTH",
"398 35 OFFCURVE",
"398 -119 OFFCURVE",
"398 -213 CURVE SMOOTH",
"398 -277 OFFCURVE",
"349 -327 OFFCURVE",
"282 -327 CURVE SMOOTH",
"215 -327 OFFCURVE",
"174 -279 OFFCURVE",
"174 -238 CURVE SMOOTH",
"174 -214 OFFCURVE",
"181 -186 OFFCURVE",
"202 -177 CURVE",
"226 -197 OFFCURVE",
"272 -182 OFFCURVE",
"272 -143 CURVE SMOOTH",
"272 -132 OFFCURVE",
"268 -121 OFFCURVE",
"261 -114 CURVE",
"241 -91 OFFCURVE",
"190 -96 OFFCURVE",
"148 -143 CURVE SMOOTH",
"125 -169 OFFCURVE",
"114 -200 OFFCURVE",
"114 -238 CURVE SMOOTH",
"114 -304 OFFCURVE",
"168 -377 OFFCURVE",
"282 -377 CURVE SMOOTH",
"395 -377 OFFCURVE",
"458 -311 OFFCURVE",
"458 -192 CURVE SMOOTH",
"458 -109 OFFCURVE",
"458 20 OFFCURVE",
"458 161 CURVE SMOOTH",
"458 239 OFFCURVE",
"449 336 OFFCURVE",
"330 336 CURVE SMOOTH",
"233 336 OFFCURVE",
"200 264 OFFCURVE",
"204 167 CURVE",
"204 102 OFFCURVE",
"196 42 OFFCURVE",
"151 42 CURVE SMOOTH",
"98 42 OFFCURVE",
"86 107 OFFCURVE",
"90 155 CURVE SMOOTH",
"96 227 OFFCURVE",
"122 270 OFFCURVE",
"132 289 CURVE",
"145 310 OFFCURVE",
"155 326 OFFCURVE",
"136 335 CURVE",
"115 341 OFFCURVE",
"95 331 OFFCURVE",
"79 313 CURVE SMOOTH",
"50 280 OFFCURVE",
"32 220 OFFCURVE",
"30 155 CURVE SMOOTH"
);
}
);
};
backgroundImage = {
crop = "{{0, 0}, {14.274, 16.866}}";
imagePath = images/car.jpg;
transform = "{57.067, 0, 0, 57.067, -146, -521}";
};
layerId = "FD4E62BB-26D6-4FFD-A4F8-E1C01461A73C";
paths = (
{
closed = 1;
nodes = (
"25 24 OFFCURVE",
"93 -10 OFFCURVE",
"151 -10 CURVE SMOOTH",
"243 -10 OFFCURVE",
"264 71 OFFCURVE",
"264 167 CURVE SMOOTH",
"264 229 OFFCURVE",
"275 286 OFFCURVE",
"330 286 CURVE SMOOTH",
"394 286 OFFCURVE",
"398 229 OFFCURVE",
"398 161 CURVE SMOOTH",
"398 35 OFFCURVE",
"398 -115 OFFCURVE",
"398 -209 CURVE SMOOTH",
"398 -277 OFFCURVE",
"349 -327 OFFCURVE",
"282 -327 CURVE SMOOTH",
"215 -327 OFFCURVE",
"174 -279 OFFCURVE",
"174 -238 CURVE SMOOTH",
"174 -214 OFFCURVE",
"181 -186 OFFCURVE",
"202 -177 CURVE",
"226 -197 OFFCURVE",
"272 -182 OFFCURVE",
"272 -143 CURVE SMOOTH",
"272 -132 OFFCURVE",
"268 -121 OFFCURVE",
"261 -114 CURVE",
"241 -91 OFFCURVE",
"190 -96 OFFCURVE",
"148 -143 CURVE SMOOTH",
"125 -169 OFFCURVE",
"114 -200 OFFCURVE",
"114 -238 CURVE SMOOTH",
"114 -304 OFFCURVE",
"168 -377 OFFCURVE",
"282 -377 CURVE SMOOTH",
"395 -377 OFFCURVE",
"458 -311 OFFCURVE",
"458 -192 CURVE SMOOTH",
"458 -109 OFFCURVE",
"458 20 OFFCURVE",
"458 161 CURVE SMOOTH",
"458 239 OFFCURVE",
"449 336 OFFCURVE",
"330 336 CURVE SMOOTH",
"233 336 OFFCURVE",
"200 264 OFFCURVE",
"204 167 CURVE",
"204 102 OFFCURVE",
"196 42 OFFCURVE",
"151 42 CURVE SMOOTH",
"98 42 OFFCURVE",
"86 107 OFFCURVE",
"90 155 CURVE SMOOTH",
"96 227 OFFCURVE",
"122 270 OFFCURVE",
"132 289 CURVE",
"139 300 OFFCURVE",
"156 328 OFFCURVE",
"136 335 CURVE",
"115 341 OFFCURVE",
"95 331 OFFCURVE",
"79 313 CURVE SMOOTH",
"50 280 OFFCURVE",
"32 220 OFFCURVE",
"30 155 CURVE SMOOTH"
);
}
);
width = 488;
},
{
associatedMasterId = "FD4E62BB-26D6-4FFD-A4F8-E1C01461A73C";
layerId = "B12FD63F-B445-40D6-BDA3-FF2AE24A8535";
name = "Regular Dec 15 16, 15:41";
paths = (
{
closed = 1;
nodes = (
"434 337 OFFCURVE",
"360 336 OFFCURVE",
"342 336 CURVE",
"242 336 OFFCURVE",
"215 258 OFFCURVE",
"228 162 CURVE",
"234 122 OFFCURVE",
"226 62 OFFCURVE",
"177 62 CURVE",
"120 62 OFFCURVE",
"113 123 OFFCURVE",
"111 155 CURVE",
"107 212 OFFCURVE",
"123 242 OFFCURVE",
"130 253 CURVE",
"135 251 OFFCURVE",
"140 250 OFFCURVE",
"146 250 CURVE",
"170 250 OFFCURVE",
"189 269 OFFCURVE",
"189 293 CURVE",
"189 314 OFFCURVE",
"174 331 OFFCURVE",
"155 335 CURVE",
"151 336 OFFCURVE",
"147 337 OFFCURVE",
"141 336 CURVE",
"109 332 OFFCURVE",
"42 286 OFFCURVE",
"51 155 CURVE",
"61 24 OFFCURVE",
"142 10 OFFCURVE",
"185 10 CURVE",
"273 10 OFFCURVE",
"293 99 OFFCURVE",
"288 145 CURVE",
"286 167 OFFCURVE",
"259 286 OFFCURVE",
"342 286 CURVE",
"376 286 OFFCURVE",
"383 250 OFFCURVE",
"390 233 CURVE",
"482 11 OFFCURVE",
"432 -322 OFFCURVE",
"283 -324 CURVE",
"212 -324 OFFCURVE",
"189 -267 OFFCURVE",
"186 -243 CURVE",
"183 -218 OFFCURVE",
"193 -184 OFFCURVE",
"213 -175 CURVE",
"213 -175 OFFCURVE",
"214 -175 OFFCURVE",
"214 -175 CURVE",
"226 -185 OFFCURVE",
"240 -185 OFFCURVE",
"244 -185 CURVE",
"268 -185 OFFCURVE",
"287 -165 OFFCURVE",
"287 -141 CURVE",
"287 -117 OFFCURVE",
"266 -98 OFFCURVE",
"243 -98 CURVE",
"218 -95 OFFCURVE",
"191 -107 OFFCURVE",
"159 -142 CURVE",
"85 -225 OFFCURVE",
"136 -374 OFFCURVE",
"287 -377 CURVE",
"432 -377 OFFCURVE",
"548 -142 OFFCURVE",
"459 209 CURVE"
);
}
);
width = 538;
},
{
associatedMasterId = "FD4E62BB-26D6-4FFD-A4F8-E1C01461A73C";
layerId = "8ED49A50-0FCB-4B58-8E23-EC6B3DE5EDB6";
name = "Regular Feb 10 17, 09:56";
paths = (
{
closed = 1;
nodes = (
"398 161 LINE",
"398 35 OFFCURVE",
"393 -125 OFFCURVE",
"393 -220 CURVE SMOOTH",
"393 -287 OFFCURVE",
"349 -327 OFFCURVE",
"282 -327 CURVE SMOOTH",
"215 -327 OFFCURVE",
"174 -279 OFFCURVE",
"174 -238 CURVE",
"174 -214 OFFCURVE",
"181 -186 OFFCURVE",
"202 -177 CURVE",
"209 -183 OFFCURVE",
"219 -186 OFFCURVE",
"229 -186 CURVE",
"253 -186 OFFCURVE",
"272 -167 OFFCURVE",
"272 -143 CURVE",
"272 -132 OFFCURVE",
"268 -121 OFFCURVE",
"261 -114 CURVE",
"241 -91 OFFCURVE",
"190 -96 OFFCURVE",
"148 -143 CURVE",
"125 -169 OFFCURVE",
"114 -200 OFFCURVE",
"114 -238 CURVE SMOOTH",
"114 -304 OFFCURVE",
"168 -377 OFFCURVE",
"282 -377 CURVE",
"395 -377 OFFCURVE",
"453 -311 OFFCURVE",
"453 -192 CURVE",
"453 -109 OFFCURVE",
"458 20 OFFCURVE",
"458 161 CURVE"
);
},
{
closed = 1;
nodes = (
"458 161 LINE",
"458 239 OFFCURVE",
"449 336 OFFCURVE",
"330 336 CURVE",
"233 336 OFFCURVE",
"200 264 OFFCURVE",
"204 167 CURVE",
"204 102 OFFCURVE",
"196 42 OFFCURVE",
"151 42 CURVE",
"98 42 OFFCURVE",
"86 107 OFFCURVE",
"90 155 CURVE SMOOTH",
"96 227 OFFCURVE",
"122 270 OFFCURVE",
"132 289 CURVE SMOOTH",
"145 310 OFFCURVE",
"155 326 OFFCURVE",
"136 335 CURVE",
"115 341 OFFCURVE",
"95 331 OFFCURVE",
"79 313 CURVE SMOOTH",
"50 280 OFFCURVE",
"32 220 OFFCURVE",
"30 155 CURVE SMOOTH",
"25 24 OFFCURVE",
"93 -10 OFFCURVE",
"151 -10 CURVE",
"243 -10 OFFCURVE",
"264 71 OFFCURVE",
"264 167 CURVE",
"264 229 OFFCURVE",
"275 286 OFFCURVE",
"330 286 CURVE",
"394 286 OFFCURVE",
"398 229 OFFCURVE",
"398 161 CURVE"
);
}
);
width = 488;
}
);
unicode = 10E7;
},
{
color = 3;
glyphname = "shin-georgian";
lastChange = "2017-03-20 10:58:39 +0000";
layers = (
{
background = {
paths = (
{
closed = 1;
nodes = (
"14 560 OFFCURVE",
"23 506 OFFCURVE",
"68 485 CURVE SMOOTH",
"112 465 OFFCURVE",
"136 516 OFFCURVE",
"100 535 CURVE",
"87 541 OFFCURVE",
"68 566 OFFCURVE",
"76 602 CURVE SMOOTH",
"89 657 OFFCURVE",
"132 674 OFFCURVE",
"175 674 CURVE",
"175 674 OFFCURVE",
"175 674 OFFCURVE",
"176 674 CURVE SMOOTH",
"178 674 LINE SMOOTH",
"237 674 OFFCURVE",
"272 629 OFFCURVE",
"271 543 CURVE SMOOTH",
"270 459 OFFCURVE",
"265 442 OFFCURVE",
"265 442 CURVE",
"261 436 OFFCURVE",
"259 428 OFFCURVE",
"259 420 CURVE SMOOTH",
"259 396 OFFCURVE",
"278 377 OFFCURVE",
"302 377 CURVE SMOOTH",
"332 377 OFFCURVE",
"355 406 OFFCURVE",
"340 441 CURVE",
"340 441 OFFCURVE",
"330 456 OFFCURVE",
"331 543 CURVE SMOOTH",
"332 629 OFFCURVE",
"361 674 OFFCURVE",
"417 674 CURVE SMOOTH",
"470 674 OFFCURVE",
"513 625 OFFCURVE",
"513 544 CURVE",
"513 418 OFFCURVE",
"512 299 OFFCURVE",
"513 298 CURVE SMOOTH",
"510 297 LINE",
"486 321 OFFCURVE",
"454 336 OFFCURVE",
"406 336 CURVE SMOOTH",
"303 336 OFFCURVE",
"238 260 OFFCURVE",
"242 164 CURVE",
"242 68 OFFCURVE",
"307 -10 OFFCURVE",
"406 -10 CURVE SMOOTH",
"496 -10 OFFCURVE",
"560 41 OFFCURVE",
"570 151 CURVE",
"570 178 OFFCURVE",
"573 465 OFFCURVE",
"573 543 CURVE",
"573 630 OFFCURVE",
"522 724 OFFCURVE",
"417 724 CURVE SMOOTH",
"360 724 OFFCURVE",
"322 697 OFFCURVE",
"299 657 CURVE",
"271 698 OFFCURVE",
"235 723 OFFCURVE",
"178 724 CURVE SMOOTH",
"177 724 OFFCURVE",
"176 724 OFFCURVE",
"176 724 CURVE SMOOTH",
"175 724 LINE SMOOTH",
"86 724 OFFCURVE",
"24 664 OFFCURVE",
"16 588 CURVE SMOOTH"
);
},
{
closed = 1;
nodes = (
"302 235 OFFCURVE",
"341 286 OFFCURVE",
"406 286 CURVE SMOOTH",
"466 286 OFFCURVE",
"510 235 OFFCURVE",
"510 164 CURVE SMOOTH",
"510 92 OFFCURVE",
"468 40 OFFCURVE",
"406 40 CURVE SMOOTH",
"345 41 OFFCURVE",
"302 92 OFFCURVE",
"302 164 CURVE SMOOTH"
);
}
);
};
backgroundImage = {
crop = "{{0, 0}, {16.848, 16.434}}";
imagePath = images/s.jpg;
locked = "1";
transform = "{57.606, 0, 0, 57.606, -212, -145}";
};
layerId = "FD4E62BB-26D6-4FFD-A4F8-E1C01461A73C";
paths = (
{
closed = 1;
nodes = (
"513 465 LINE",
"513 348 OFFCURVE",
"513 292 OFFCURVE",
"514 291 CURVE",
"513 290 LINE",
"485 317 OFFCURVE",
"455 335 OFFCURVE",
"403 336 CURVE",
"300 336 OFFCURVE",
"241 260 OFFCURVE",
"245 164 CURVE",
"245 68 OFFCURVE",
"310 -10 OFFCURVE",
"409 -10 CURVE",
"499 -10 OFFCURVE",
"573 53 OFFCURVE",
"573 151 CURVE",
"573 178 OFFCURVE",
"574 239 OFFCURVE",
"574 286 CURVE",
"573 455 OFFCURVE",
"573 391 OFFCURVE",
"573 465 CURVE"
);
},
{
closed = 1;
nodes = (
"348 41 OFFCURVE",
"305 92 OFFCURVE",
"305 164 CURVE",
"305 235 OFFCURVE",
"344 286 OFFCURVE",
"409 286 CURVE",
"441 286 OFFCURVE",
"484 273 OFFCURVE",
"513 236 CURVE",
"513 204 OFFCURVE",
"513 192 OFFCURVE",
"513 161 CURVE",
"513 92 OFFCURVE",
"471 40 OFFCURVE",
"409 40 CURVE"
);
},
{
closed = 1;
nodes = (
"80 614 LINE",
"96 660 OFFCURVE",
"135 674 OFFCURVE",
"175 674 CURVE",
"175 674 OFFCURVE",
"175 674 OFFCURVE",
"176 674 CURVE SMOOTH",
"178 674 LINE SMOOTH",
"237 674 OFFCURVE",
"271 629 OFFCURVE",
"271 543 CURVE SMOOTH",
"271 512 OFFCURVE",
"270 505 OFFCURVE",
"264 491 CURVE",
"245 449 OFFCURVE",
"273 426 OFFCURVE",
"302 426 CURVE SMOOTH",
"332 426 OFFCURVE",
"355 455 OFFCURVE",
"340 490 CURVE",
"340 490 OFFCURVE",
"331 505 OFFCURVE",
"331 543 CURVE SMOOTH",
"331 629 OFFCURVE",
"361 674 OFFCURVE",
"417 674 CURVE SMOOTH",
"470 674 OFFCURVE",
"513 625 OFFCURVE",
"513 544 CURVE",
"513 512 OFFCURVE",
"513 481 OFFCURVE",
"513 452 CURVE",
"573 452 LINE",
"573 490 OFFCURVE",
"573 523 OFFCURVE",
"573 543 CURVE",
"573 630 OFFCURVE",
"522 724 OFFCURVE",
"417 724 CURVE SMOOTH",
"360 724 OFFCURVE",
"322 697 OFFCURVE",
"299 657 CURVE",
"276 697 OFFCURVE",
"230 724 OFFCURVE",
"176 724 CURVE SMOOTH",
"109 724 OFFCURVE",
"58 691 OFFCURVE",
"32 643 CURVE"
);
},
{
closed = 1;
nodes = (
"88 588 OFFCURVE",
"105 605 OFFCURVE",
"105 626 CURVE SMOOTH",
"105 647 OFFCURVE",
"88 664 OFFCURVE",
"67 664 CURVE SMOOTH",
"45 664 OFFCURVE",
"28 647 OFFCURVE",
"28 626 CURVE SMOOTH",
"28 605 OFFCURVE",
"45 588 OFFCURVE",
"67 588 CURVE SMOOTH"
);
}
);
width = 603;
},
{
associatedMasterId = "FD4E62BB-26D6-4FFD-A4F8-E1C01461A73C";
layerId = "F8887876-FF03-4005-97F9-27E1EAE97CE1";
name = "Regular Dec 15 16, 14:53";
paths = (
{
closed = 1;
nodes = (
"617 621 OFFCURVE",
"562 680 OFFCURVE",
"474 680 CURVE",
"415 680 OFFCURVE",
"368 654 OFFCURVE",
"340 615 CURVE",
"313 654 OFFCURVE",
"269 679 OFFCURVE",
"211 679 CURVE",
"121 679 OFFCURVE",
"58 619 OFFCURVE",
"51 543 CURVE",
"48 515 OFFCURVE",
"57 461 OFFCURVE",
"103 440 CURVE",
"117 433 OFFCURVE",
"165 420 OFFCURVE",
"201 449 CURVE",
"211 460 OFFCURVE",
"215 470 OFFCURVE",
"215 483 CURVE",
"215 507 OFFCURVE",
"195 526 OFFCURVE",
"171 526 CURVE",
"148 526 OFFCURVE",
"129 508 OFFCURVE",
"128 485 CURVE",
"120 491 OFFCURVE",
"105 513 OFFCURVE",
"111 543 CURVE",
"124 598 OFFCURVE",
"167 629 OFFCURVE",
"211 629 CURVE",
"259 629 OFFCURVE",
"313 581 OFFCURVE",
"313 534 CURVE",
"313 518 OFFCURVE",
"327 504 OFFCURVE",
"343 504 CURVE",
"360 504 OFFCURVE",
"373 518 OFFCURVE",
"373 534 CURVE",
"373 581 OFFCURVE",
"423 630 OFFCURVE",
"474 630 CURVE",
"518 630 OFFCURVE",
"558 598 OFFCURVE",
"574 543 CURVE",
"613 408 OFFCURVE",
"602 283 OFFCURVE",
"602 283 CURVE",
"602 281 LINE",
"573 316 OFFCURVE",
"531 336 OFFCURVE",
"478 336 CURVE",
"379 336 OFFCURVE",
"314 260 OFFCURVE",
"314 164 CURVE",
"314 68 OFFCURVE",
"379 -10 OFFCURVE",
"478 -10 CURVE",
"564 -10 OFFCURVE",
"631 53 OFFCURVE",
"642 137 CURVE",
"674 320 OFFCURVE",
"634 547 OFFCURVE",
"633 547 CURVE"
);
},
{
closed = 1;
nodes = (
"417 41 OFFCURVE",
"374 92 OFFCURVE",
"374 164 CURVE",
"374 234 OFFCURVE",
"417 286 OFFCURVE",
"478 286 CURVE",
"540 286 OFFCURVE",
"582 233 OFFCURVE",
"582 164 CURVE",
"582 96 OFFCURVE",
"540 40 OFFCURVE",
"478 40 CURVE"
);
}
);
width = 710;
},
{
associatedMasterId = "FD4E62BB-26D6-4FFD-A4F8-E1C01461A73C";
layerId = "66378162-0BCD-4FB8-B65E-4B7C9D2D97A8";
name = "Regular Jan 11 17, 12:10";
paths = (
{
closed = 1;
nodes = (
"582 506 LINE",
"582 381 OFFCURVE",
"581 299 OFFCURVE",
"580 298 CURVE SMOOTH",
"579 297 LINE",
"555 321 OFFCURVE",
"523 336 OFFCURVE",
"475 336 CURVE",
"372 336 OFFCURVE",
"307 260 OFFCURVE",
"311 164 CURVE",
"311 68 OFFCURVE",
"376 -10 OFFCURVE",
"475 -10 CURVE",
"565 -10 OFFCURVE",
"629 41 OFFCURVE",
"639 151 CURVE",
"639 178 OFFCURVE",
"640 239 OFFCURVE",
"640 286 CURVE",
"640 383 OFFCURVE",
"642 424 OFFCURVE",
"642 506 CURVE"
);
},
{
closed = 1;
nodes = (
"414 41 OFFCURVE",
"371 92 OFFCURVE",
"371 164 CURVE",
"371 235 OFFCURVE",
"410 286 OFFCURVE",
"475 286 CURVE",
"535 286 OFFCURVE",
"579 235 OFFCURVE",
"579 164 CURVE",
"579 92 OFFCURVE",
"537 40 OFFCURVE",
"475 40 CURVE"
);
},
{
closed = 1;
nodes = (
"57 512 OFFCURVE",
"66 458 OFFCURVE",
"111 437 CURVE SMOOTH",
"155 417 OFFCURVE",
"179 468 OFFCURVE",
"143 487 CURVE",
"130 493 OFFCURVE",
"111 518 OFFCURVE",
"119 554 CURVE SMOOTH",
"132 609 OFFCURVE",
"175 626 OFFCURVE",
"218 626 CURVE SMOOTH",
"263 626 OFFCURVE",
"313 578 OFFCURVE",
"313 534 CURVE SMOOTH",
"313 518 OFFCURVE",
"327 504 OFFCURVE",
"343 504 CURVE SMOOTH",
"360 504 OFFCURVE",
"373 518 OFFCURVE",
"373 534 CURVE SMOOTH",
"373 581 OFFCURVE",
"423 630 OFFCURVE",
"474 630 CURVE SMOOTH",
"540 630 OFFCURVE",
"583 579 OFFCURVE",
"583 506 CURVE",
"642 506 LINE",
"642 543 OFFCURVE",
"632 680 OFFCURVE",
"474 680 CURVE SMOOTH",
"418 680 OFFCURVE",
"372 655 OFFCURVE",
"344 620 CURVE",
"344 620 OFFCURVE",
"343 620 OFFCURVE",
"343 620 CURVE",
"316 656 OFFCURVE",
"272.464 676 OFFCURVE",
"218 676 CURVE SMOOTH",
"129 676 OFFCURVE",
"67 616 OFFCURVE",
"59 540 CURVE SMOOTH"
);
}
);
width = 710;
},
{
associatedMasterId = "FD4E62BB-26D6-4FFD-A4F8-E1C01461A73C";
layerId = "DE723D53-640D-4276-9022-F541566EE072";
name = "Regular Feb 7 17, 10:59";
paths = (
{
closed = 1;
nodes = (
"523 544 LINE",
"523 419 OFFCURVE",
"522 299 OFFCURVE",
"521 298 CURVE SMOOTH",
"520 297 LINE",
"496 321 OFFCURVE",
"464 336 OFFCURVE",
"416 336 CURVE",
"313 336 OFFCURVE",
"248 260 OFFCURVE",
"252 164 CURVE",
"252 68 OFFCURVE",
"317 -10 OFFCURVE",
"416 -10 CURVE",
"506 -10 OFFCURVE",
"570 41 OFFCURVE",
"580 151 CURVE",
"580 178 OFFCURVE",
"581 239 OFFCURVE",
"581 286 CURVE",
"581 383 OFFCURVE",
"583 462 OFFCURVE",
"583 544 CURVE"
);
},
{
closed = 1;
nodes = (
"355 41 OFFCURVE",
"312 92 OFFCURVE",
"312 164 CURVE",
"312 235 OFFCURVE",
"351 286 OFFCURVE",
"416 286 CURVE",
"476 286 OFFCURVE",
"520 235 OFFCURVE",
"520 164 CURVE",
"520 92 OFFCURVE",
"478 40 OFFCURVE",
"416 40 CURVE"
);
},
{
closed = 1;
nodes = (
"583 545 OFFCURVE",
"583 542 OFFCURVE",
"583 543 CURVE SMOOTH",
"583 630 OFFCURVE",
"532 724 OFFCURVE",
"427 724 CURVE SMOOTH",
"370 724 OFFCURVE",
"332 697 OFFCURVE",
"309 657 CURVE",
"281 698 OFFCURVE",
"245 723 OFFCURVE",
"188 724 CURVE SMOOTH",
"94 726 OFFCURVE",
"30 661 OFFCURVE",
"30 543 CURVE",
"30 464 OFFCURVE",
"67 377 OFFCURVE",
"119 377 CURVE SMOOTH",
"142 377 OFFCURVE",
"162 396 OFFCURVE",
"162 420 CURVE SMOOTH",
"162 444 OFFCURVE",
"142 463 OFFCURVE",
"119 463 CURVE SMOOTH",
"114 463 OFFCURVE",
"110 463 OFFCURVE",
"106 461 CURVE",
"98 478 OFFCURVE",
"90 506 OFFCURVE",
"90 543 CURVE SMOOTH",
"90 634 OFFCURVE",
"130 674 OFFCURVE",
"188 674 CURVE SMOOTH",
"247 674 OFFCURVE",
"282 629 OFFCURVE",
"281 543 CURVE SMOOTH",
"280 459 OFFCURVE",
"275 442 OFFCURVE",
"275 442 CURVE",
"271 436 OFFCURVE",
"269 428 OFFCURVE",
"269 420 CURVE SMOOTH",
"269 396 OFFCURVE",
"288 377 OFFCURVE",
"312 377 CURVE SMOOTH",
"336 377 OFFCURVE",
"355 396 OFFCURVE",
"355 420 CURVE SMOOTH",
"355 427 OFFCURVE",
"353 434 OFFCURVE",
"350 441 CURVE",
"350 441 OFFCURVE",
"340 456 OFFCURVE",
"341 543 CURVE SMOOTH",
"342 629 OFFCURVE",
"371 674 OFFCURVE",
"427 674 CURVE SMOOTH",
"480 674 OFFCURVE",
"523 625 OFFCURVE",
"523 543 CURVE SMOOTH",
"523 542 OFFCURVE",
"523 545 OFFCURVE",
"523 544 CURVE",
"583 544 LINE"
);
}
);
width = 613;
},
{
associatedMasterId = "FD4E62BB-26D6-4FFD-A4F8-E1C01461A73C";
layerId = "2B7D80D4-D2D6-4B37-A85E-2A935D3200E2";
name = "Regular Feb 10 17, 09:58";
paths = (
{
closed = 1;
nodes = (
"523 544 LINE",
"523 419 OFFCURVE",
"522 299 OFFCURVE",
"521 298 CURVE SMOOTH",
"520 297 LINE",
"496 321 OFFCURVE",
"464 336 OFFCURVE",
"416 336 CURVE",
"313 336 OFFCURVE",
"248 260 OFFCURVE",
"252 164 CURVE",
"252 68 OFFCURVE",
"317 -10 OFFCURVE",
"416 -10 CURVE",
"506 -10 OFFCURVE",
"570 41 OFFCURVE",
"580 151 CURVE",
"580 178 OFFCURVE",
"581 239 OFFCURVE",
"581 286 CURVE",
"581 383 OFFCURVE",
"583 462 OFFCURVE",
"583 544 CURVE"
);
},
{
closed = 1;
nodes = (
"355 41 OFFCURVE",
"312 92 OFFCURVE",
"312 164 CURVE",
"312 235 OFFCURVE",
"351 286 OFFCURVE",
"416 286 CURVE",
"476 286 OFFCURVE",
"520 235 OFFCURVE",
"520 164 CURVE",
"520 92 OFFCURVE",
"478 40 OFFCURVE",
"416 40 CURVE"
);
},
{
closed = 1;
nodes = (
"186 674 LINE",
"186 674 OFFCURVE",
"187 674 OFFCURVE",
"188 674 CURVE SMOOTH",
"247 674 OFFCURVE",
"282 629 OFFCURVE",
"281 543 CURVE SMOOTH",
"280 459 OFFCURVE",
"275 442 OFFCURVE",
"275 442 CURVE",
"271 436 OFFCURVE",
"269 428 OFFCURVE",
"269 420 CURVE SMOOTH",
"269 396 OFFCURVE",
"288 377 OFFCURVE",
"312 377 CURVE SMOOTH",
"336 377 OFFCURVE",
"355 396 OFFCURVE",
"355 420 CURVE SMOOTH",
"355 427 OFFCURVE",
"353 434 OFFCURVE",
"350 441 CURVE",
"350 441 OFFCURVE",
"340 456 OFFCURVE",
"341 543 CURVE SMOOTH",
"342 629 OFFCURVE",
"371 674 OFFCURVE",
"427 674 CURVE SMOOTH",
"480 674 OFFCURVE",
"523 625 OFFCURVE",
"523 543 CURVE SMOOTH",
"523 542 OFFCURVE",
"523 545 OFFCURVE",
"523 544 CURVE",
"583 544 LINE",
"583 545 OFFCURVE",
"583 542 OFFCURVE",
"583 543 CURVE SMOOTH",
"583 630 OFFCURVE",
"532 724 OFFCURVE",
"427 724 CURVE SMOOTH",
"370 724 OFFCURVE",
"332 697 OFFCURVE",
"309 657 CURVE",
"281 698 OFFCURVE",
"245 723 OFFCURVE",
"188 724 CURVE SMOOTH",
"187 724 OFFCURVE",
"186 724 OFFCURVE",
"186 724 CURVE"
);
},
{
closed = 1;
nodes = (
"186 724 LINE",
"185 724 OFFCURVE",
"185 724 OFFCURVE",
"185 724 CURVE",
"96 724 OFFCURVE",
"34 664 OFFCURVE",
"26 588 CURVE",
"24 560 OFFCURVE",
"33 506 OFFCURVE",
"78 485 CURVE",
"122 465 OFFCURVE",
"146 516 OFFCURVE",
"110 535 CURVE",
"97 541 OFFCURVE",
"78 566 OFFCURVE",
"86 602 CURVE",
"99 657 OFFCURVE",
"142 674 OFFCURVE",
"185 674 CURVE",
"185 674 OFFCURVE",
"185 674 OFFCURVE",
"186 674 CURVE"
);
}
);
width = 613;
}
);
unicode = 10E8;
},
{
color = 3;
glyphname = "chin-georgian";
lastChange = "2017-03-07 12:49:11 +0000";
layers = (
{
background = {
paths = (
{
closed = 1;
nodes = (
"30 7 OFFCURVE",
"42 -10 OFFCURVE",
"59 -10 CURVE SMOOTH",
"79 -10 OFFCURVE",
"90 9 OFFCURVE",
"90 32 CURVE SMOOTH",
"90.618 163.917 LINE SMOOTH",
"91 235 OFFCURVE",
"140 286 OFFCURVE",
"197 286 CURVE SMOOTH",
"262 286 OFFCURVE",
"301 235 OFFCURVE",
"301 164 CURVE SMOOTH",
"301 158 LINE SMOOTH",
"301 117 OFFCURVE",
"293 91 OFFCURVE",
"284 74 CURVE",
"280 75 OFFCURVE",
"276 76 OFFCURVE",
"272 76 CURVE SMOOTH",
"248 76 OFFCURVE",
"229 56 OFFCURVE",
"229 32 CURVE SMOOTH",
"229 9 OFFCURVE",
"248 -11 OFFCURVE",
"272 -11 CURVE SMOOTH",
"318 -11 OFFCURVE",
"360 74 OFFCURVE",
"361 158 CURVE SMOOTH",
"361 164 LINE",
"365 260 OFFCURVE",
"300 336 OFFCURVE",
"197 336 CURVE SMOOTH",
"149 336 OFFCURVE",
"117 314 OFFCURVE",
"93 290 CURVE",
"92 291 LINE",
"91 450 LINE",
"91 459 LINE",
"225 485 OFFCURVE",
"309 725 OFFCURVE",
"159 725 CURVE SMOOTH",
"74 725 OFFCURVE",
"31 666 OFFCURVE",
"31 582 CURVE",
"31 548 OFFCURVE",
"30 261 OFFCURVE",
"30 31 CURVE SMOOTH"
);
},
{
closed = 1;
nodes = (
"87 514 OFFCURVE",
"73 680 OFFCURVE",
"159 675 CURVE SMOOTH",
"205 672 OFFCURVE",
"178 555 OFFCURVE",
"87 514 CURVE"
);
}
);
};
backgroundImage = {
crop = "{{0, 0}, {10.53, 15.858}}";
imagePath = images/C.jpg;
locked = "1";
transform = "{57.326, 0, 0, 57.326, -184, -123}";
};
guideLines = (
{
angle = 90;
position = "{-40, 877}";
}
);
layerId = "FD4E62BB-26D6-4FFD-A4F8-E1C01461A73C";
paths = (
{
closed = 1;
nodes = (
"30 7 OFFCURVE",
"42 -10 OFFCURVE",
"59 -10 CURVE SMOOTH",
"79 -10 OFFCURVE",
"90 9 OFFCURVE",
"90 32 CURVE SMOOTH",
"91 462 LINE",
"285 504 OFFCURVE",
"296 725 OFFCURVE",
"159 725 CURVE SMOOTH",
"74 725 OFFCURVE",
"30 666 OFFCURVE",
"30 582 CURVE",
"30 548 OFFCURVE",
"30 261 OFFCURVE",
"30 31 CURVE SMOOTH"
);
},
{
closed = 1;
nodes = (
"87 534 OFFCURVE",
"78 675 OFFCURVE",
"159 675 CURVE SMOOTH",
"211 675 OFFCURVE",
"228 555 OFFCURVE",
"87 514 CURVE"
);
},
{
closed = 1;
nodes = (
"72 228 LINE",
"89 267 OFFCURVE",
"122 286 OFFCURVE",
"161 286 CURVE SMOOTH",
"219 286 OFFCURVE",
"265 246 OFFCURVE",
"265 155 CURVE SMOOTH",
"265 118 OFFCURVE",
"257 90 OFFCURVE",
"249 73 CURVE",
"225 81 OFFCURVE",
"193 64 OFFCURVE",
"193 32 CURVE SMOOTH",
"193 8 OFFCURVE",
"213 -11 OFFCURVE",
"236 -11 CURVE SMOOTH",
"288 -11 OFFCURVE",
"325 76 OFFCURVE",
"325 155 CURVE",
"325 273 OFFCURVE",
"265 338 OFFCURVE",
"171 336 CURVE SMOOTH",
"115 335 OFFCURVE",
"74 303 OFFCURVE",
"46 264 CURVE"
);
}
);
width = 380;
},
{
associatedMasterId = "FD4E62BB-26D6-4FFD-A4F8-E1C01461A73C";
guideLines = (
{
angle = 90;
position = "{3, 877}";
}
);
layerId = "EAC15EB2-F620-4224-91E3-ABA1A707DFF7";
name = "Regular Dec 15 16, 14:39";
paths = (
{
closed = 1;
nodes = (
"195 331 OFFCURVE",
"183 330 OFFCURVE",
"171 327 CURVE",
"170 329 LINE",
"195 459 LINE",
"293 472 OFFCURVE",
"456 639 OFFCURVE",
"324 710 CURVE",
"196 778 OFFCURVE",
"157 581 OFFCURVE",
"157 581 CURVE",
"157 581 OFFCURVE",
"148 532 OFFCURVE",
"135 464 CURVE SMOOTH",
"106 313 OFFCURVE",
"57 64 OFFCURVE",
"51 31 CURVE",
"47 10 OFFCURVE",
"59 -10 OFFCURVE",
"76 -10 CURVE",
"91 -10 OFFCURVE",
"104 1 OFFCURVE",
"109 23 CURVE",
"117 56 OFFCURVE",
"135 159 OFFCURVE",
"137 171 CURVE",
"137 172 LINE",
"146 222 OFFCURVE",
"160 279 OFFCURVE",
"210 279 CURVE",
"263 278 OFFCURVE",
"312 236 OFFCURVE",
"312 157 CURVE",
"312 119 OFFCURVE",
"306 92 OFFCURVE",
"298 75 CURVE",
"295 76 OFFCURVE",
"292 76 OFFCURVE",
"288 76 CURVE",
"265 76 OFFCURVE",
"245 57 OFFCURVE",
"245 33 CURVE",
"245 9 OFFCURVE",
"265 -10 OFFCURVE",
"288 -10 CURVE",
"305 -10 OFFCURVE",
"316 -2 OFFCURVE",
"326 12 CURVE",
"344 34 OFFCURVE",
"372 80 OFFCURVE",
"372 155 CURVE",
"372 248 OFFCURVE",
"313 331 OFFCURVE",
"209 331 CURVE"
);
},
{
closed = 1;
nodes = (
"329 635 OFFCURVE",
"266 544 OFFCURVE",
"208 525 CURVE",
"208 525 OFFCURVE",
"237 694 OFFCURVE",
"297 660 CURVE"
);
}
);
width = 423;
}
);
unicode = 10E9;
},
{
color = 3;
glyphname = "can-georgian";
lastChange = "2017-03-07 12:49:20 +0000";
layers = (
{
background = {
paths = (
{
closed = 1;
nodes = (
"448 104 OFFCURVE",
"497 157 OFFCURVE",
"472 253 CURVE SMOOTH",
"461 295 OFFCURVE",
"452 326 OFFCURVE",
"464 350 CURVE SMOOTH",
"474 369 OFFCURVE",
"495 391 OFFCURVE",
"485 408 CURVE SMOOTH",
"478 420 OFFCURVE",
"464 419 OFFCURVE",
"454 416 CURVE",
"396 395 OFFCURVE",
"394 318 OFFCURVE",
"412 258 CURVE SMOOTH",
"425 215 OFFCURVE",
"419 140 OFFCURVE",
"390 128 CURVE",
"383 135 OFFCURVE",
"372 139 OFFCURVE",
"361 139 CURVE",
"337 139 OFFCURVE",
"318 120 OFFCURVE",
"318 96 CURVE",
"318 67 OFFCURVE",
"349 47 OFFCURVE",
"382 59 CURVE",
"429 13 OFFCURVE",
"442 -64 OFFCURVE",
"433 -138 CURVE SMOOTH",
"420 -236 OFFCURVE",
"365 -327 OFFCURVE",
"271 -327 CURVE SMOOTH",
"178 -327 OFFCURVE",
"122 -216 OFFCURVE",
"99 -118 CURVE SMOOTH",
"76 -22 OFFCURVE",
"94 112 OFFCURVE",
"138 181 CURVE",
"175 232 OFFCURVE",
"215 235 OFFCURVE",
"226 234 CURVE",
"226 208 OFFCURVE",
"244 188 OFFCURVE",
"269 188 CURVE",
"300 188 OFFCURVE",
"321 215 OFFCURVE",
"308 250 CURVE",
"280 316 OFFCURVE",
"163 295 OFFCURVE",
"103 225 CURVE SMOOTH",
"35 142 OFFCURVE",
"16 5 OFFCURVE",
"39 -117 CURVE SMOOTH",
"51 -186 OFFCURVE",
"78 -251 OFFCURVE",
"116 -296 CURVE",
"166 -355 OFFCURVE",
"221 -377 OFFCURVE",
"272 -377 CURVE SMOOTH",
"395 -377 OFFCURVE",
"480 -270 OFFCURVE",
"493 -141 CURVE SMOOTH",
"502 -52 OFFCURVE",
"474 38 OFFCURVE",
"430 82 CURVE",
"430 83 OFFCURVE",
"430 83 OFFCURVE",
"430 83 CURVE"
);
}
);
};
backgroundImage = {
crop = "{{0, 0}, {11.826, 18.45}}";
imagePath = images/cc.jpg;
locked = "1";
transform = "{52.692, 0, 0, 52.692, -30, -455}";
};
layerId = "FD4E62BB-26D6-4FFD-A4F8-E1C01461A73C";
paths = (
{
closed = 1;
nodes = (
"444 100 OFFCURVE",
"481 137 OFFCURVE",
"481 198 CURVE SMOOTH",
"481 249 OFFCURVE",
"460 269 OFFCURVE",
"460 316 CURVE SMOOTH",
"460 357 OFFCURVE",
"483 367 OFFCURVE",
"488 395 CURVE SMOOTH",
"491 412 OFFCURVE",
"475 417 OFFCURVE",
"463 417 CURVE SMOOTH",
"459 417 OFFCURVE",
"456 417 OFFCURVE",
"454 416 CURVE",
"416 402 OFFCURVE",
"402 364 OFFCURVE",
"402 323 CURVE SMOOTH",
"402 275 OFFCURVE",
"419 252 OFFCURVE",
"419 208 CURVE SMOOTH",
"419 172 OFFCURVE",
"409 136 OFFCURVE",
"390 128 CURVE",
"367 151 OFFCURVE",
"318 136 OFFCURVE",
"318 96 CURVE",
"318 67 OFFCURVE",
"344 48 OFFCURVE",
"382 59 CURVE",
"420 22 OFFCURVE",
"436 -55 OFFCURVE",
"436 -115 CURVE SMOOTH",
"436 -239 OFFCURVE",
"377 -327 OFFCURVE",
"271 -327 CURVE SMOOTH",
"161 -327 OFFCURVE",
"89 -204 OFFCURVE",
"89 -46 CURVE SMOOTH",
"89 58 OFFCURVE",
"122 243 OFFCURVE",
"226 234 CURVE",
"226 203 OFFCURVE",
"248 188 OFFCURVE",
"269 188 CURVE SMOOTH",
"300 188 OFFCURVE",
"321 215 OFFCURVE",
"308 250 CURVE",
"296 278 OFFCURVE",
"269 290 OFFCURVE",
"237 290 CURVE SMOOTH",
"93 290 OFFCURVE",
"30 126 OFFCURVE",
"30 -38 CURVE SMOOTH",
"30 -238 OFFCURVE",
"120 -377 OFFCURVE",
"272 -377 CURVE SMOOTH",
"405 -377 OFFCURVE",
"495 -280 OFFCURVE",
"495 -127 CURVE SMOOTH",
"495 -50 OFFCURVE",
"468 44 OFFCURVE",
"430 82 CURVE",
"430 83 OFFCURVE",
"430 83 OFFCURVE",
"430 83 CURVE"
);
}
);
width = 525;
}
);
unicode = 10EA;
},
{
color = 3;
glyphname = "jil-georgian";
lastChange = "2017-03-20 11:00:31 +0000";
layers = (
{
backgroundImage = {
crop = "{{0, 0}, {13.86, 13.338}}";
imagePath = images/Z.jpg;
locked = "1";
transform = "{53.509, 0, 0, 53.509, -199, -100}";
};
layerId = "FD4E62BB-26D6-4FFD-A4F8-E1C01461A73C";
paths = (
{
closed = 1;
nodes = (
"302 472 LINE",
"302 355 OFFCURVE",
"302 292 OFFCURVE",
"303 291 CURVE",
"302 290 LINE",
"274 317 OFFCURVE",
"244 335 OFFCURVE",
"192 336 CURVE",
"89 336 OFFCURVE",
"30 260 OFFCURVE",
"34 164 CURVE",
"34 68 OFFCURVE",
"99 -10 OFFCURVE",
"198 -10 CURVE",
"288 -10 OFFCURVE",
"362 53 OFFCURVE",
"362 151 CURVE",
"362 178 OFFCURVE",
"363 239 OFFCURVE",
"363 286 CURVE",
"362 462 OFFCURVE",
"362 398 OFFCURVE",
"362 472 CURVE"
);
},
{
closed = 1;
nodes = (
"137 41 OFFCURVE",
"94 92 OFFCURVE",
"94 164 CURVE",
"94 235 OFFCURVE",
"133 286 OFFCURVE",
"198 286 CURVE",
"230 286 OFFCURVE",
"273 273 OFFCURVE",
"302 236 CURVE",
"302 204 OFFCURVE",
"302 192 OFFCURVE",
"302 161 CURVE",
"302 92 OFFCURVE",
"260 40 OFFCURVE",
"198 40 CURVE"
);
},
{
closed = 1;
nodes = (
"362 459 LINE",
"362 525 OFFCURVE",
"362 588 OFFCURVE",
"362 632 CURVE",
"362 737 OFFCURVE",
"266 735 OFFCURVE",
"257 712 CURVE SMOOTH",
"246 683 OFFCURVE",
"302 700 OFFCURVE",
"302 602 CURVE",
"302 546 OFFCURVE",
"302 498 OFFCURVE",
"302 459 CURVE"
);
}
);
width = 391;
},
{
associatedMasterId = "FD4E62BB-26D6-4FFD-A4F8-E1C01461A73C";
layerId = "256BB670-DD69-47D5-96B7-F0016D3DB3D2";
name = "Regular Dec 15 16, 15:00";
paths = (
{
closed = 1;
nodes = (
"372 84 OFFCURVE",
"372 84 OFFCURVE",
"372 85 CURVE",
"389 122 OFFCURVE",
"397 177 OFFCURVE",
"400 240 CURVE SMOOTH",
"402 286 OFFCURVE",
"403 338 OFFCURVE",
"403 392 CURVE SMOOTH",
"403 436 OFFCURVE",
"402 481 OFFCURVE",
"402 525 CURVE SMOOTH",
"402 561 OFFCURVE",
"402 598 OFFCURVE",
"402 632 CURVE SMOOTH",
"402 737 OFFCURVE",
"307 735 OFFCURVE",
"298 712 CURVE SMOOTH",
"287 683 OFFCURVE",
"344 695 OFFCURVE",
"343 602 CURVE",
"343 553 OFFCURVE",
"343 502 OFFCURVE",
"343 390 CURVE SMOOTH",
"343 365 OFFCURVE",
"342 326 OFFCURVE",
"342 294 CURVE",
"341 293 LINE",
"298 329 OFFCURVE",
"267 336 OFFCURVE",
"216 336 CURVE",
"117 336 OFFCURVE",
"56 252 OFFCURVE",
"60 158 CURVE",
"65 60 OFFCURVE",
"134 -15 OFFCURVE",
"232 -10 CURVE",
"298 -7 OFFCURVE",
"347 30 OFFCURVE",
"371 82 CURVE",
"371 83 OFFCURVE",
"371 83 OFFCURVE",
"371 83 CURVE"
);
},
{
closed = 1;
nodes = (
"168 36 OFFCURVE",
"124 91 OFFCURVE",
"120 158 CURVE",
"117 228 OFFCURVE",
"157 283 OFFCURVE",
"218 286 CURVE",
"279 289 OFFCURVE",
"325 239 OFFCURVE",
"329 169 CURVE",
"332 97 OFFCURVE",
"291 43 OFFCURVE",
"230 40 CURVE"
);
}
);
width = 437;
},
{
associatedMasterId = "FD4E62BB-26D6-4FFD-A4F8-E1C01461A73C";
layerId = "FE4D25CC-C42F-415C-BD6B-7B8AF2B9DFB2";
name = "Regular Feb 10 17, 10:06";
paths = (
{
closed = 1;
nodes = (
"361 491 LINE",
"361 502 OFFCURVE",
"361 514 OFFCURVE",
"361 525 CURVE SMOOTH",
"361 561 OFFCURVE",
"361 598 OFFCURVE",
"361 632 CURVE SMOOTH",
"361 737 OFFCURVE",
"265 735 OFFCURVE",
"256 712 CURVE SMOOTH",
"245 683 OFFCURVE",
"308 695 OFFCURVE",
"301 602 CURVE",
"301 571 OFFCURVE",
"301 539 OFFCURVE",
"301 491 CURVE"
);
},
{
closed = 1;
nodes = (
"301 506 LINE",
"301 381 OFFCURVE",
"300 299 OFFCURVE",
"299 298 CURVE SMOOTH",
"298 297 LINE",
"274 321 OFFCURVE",
"242 336 OFFCURVE",
"194 336 CURVE",
"91 336 OFFCURVE",
"26 260 OFFCURVE",
"30 164 CURVE",
"30 68 OFFCURVE",
"95 -10 OFFCURVE",
"194 -10 CURVE",
"284 -10 OFFCURVE",
"348 41 OFFCURVE",
"358 151 CURVE",
"358 178 OFFCURVE",
"359 239 OFFCURVE",
"359 286 CURVE",
"359 383 OFFCURVE",
"361 424 OFFCURVE",
"361 506 CURVE"
);
},
{
closed = 1;
nodes = (
"133 41 OFFCURVE",
"90 92 OFFCURVE",
"90 164 CURVE",
"90 235 OFFCURVE",
"129 286 OFFCURVE",
"194 286 CURVE",
"254 286 OFFCURVE",
"298 235 OFFCURVE",
"298 164 CURVE",
"298 92 OFFCURVE",
"256 40 OFFCURVE",
"194 40 CURVE"
);
}
);
width = 391;
}
);
unicode = 10EB;
},
{
color = 3;
glyphname = "cil-georgian";
lastChange = "2017-03-20 11:14:34 +0000";
layers = (
{
background = {
paths = (
{
closed = 1;
nodes = (
"30 544 LINE",
"30 544 OFFCURVE",
"30 544 OFFCURVE",
"30 544 CURVE"
);
},
{
closed = 1;
nodes = (
"34 425 OFFCURVE",
"119 371 OFFCURVE",
"159 266 CURVE",
"175 236 OFFCURVE",
"258 -326 OFFCURVE",
"258 -353 CURVE",
"260 -367 OFFCURVE",
"274 -377 OFFCURVE",
"288 -377 CURVE SMOOTH",
"302 -377 OFFCURVE",
"314 -367 OFFCURVE",
"318 -353 CURVE",
"324 -322 OFFCURVE",
"335 -272 OFFCURVE",
"348 -206 CURVE SMOOTH",
"367 -115 OFFCURVE",
"414 155 OFFCURVE",
"431 202 CURVE",
"459 202 LINE SMOOTH",
"485 202 OFFCURVE",
"493 216 OFFCURVE",
"493 228 CURVE SMOOTH",
"493 240 OFFCURVE",
"485 252 OFFCURVE",
"459 252 CURVE SMOOTH",
"226 252 LINE",
"225 253 LINE",
"223 263 OFFCURVE",
"220 274 OFFCURVE",
"216 283 CURVE",
"154 440 OFFCURVE",
"97 437 OFFCURVE",
"90 544 CURVE",
"90 625 OFFCURVE",
"133 674 OFFCURVE",
"186 674 CURVE SMOOTH",
"242 674 OFFCURVE",
"271 629 OFFCURVE",
"272 543 CURVE SMOOTH",
"273 456 OFFCURVE",
"263 441 OFFCURVE",
"263 441 CURVE",
"260 434 OFFCURVE",
"258 427 OFFCURVE",
"258 420 CURVE SMOOTH",
"258 396 OFFCURVE",
"277 377 OFFCURVE",
"301 377 CURVE SMOOTH",
"325 377 OFFCURVE",
"344 396 OFFCURVE",
"344 420 CURVE SMOOTH",
"344 428 OFFCURVE",
"342 436 OFFCURVE",
"338 442 CURVE",
"338 442 OFFCURVE",
"333 459 OFFCURVE",
"332 543 CURVE SMOOTH",
"331 629 OFFCURVE",
"366 674 OFFCURVE",
"425 674 CURVE SMOOTH",
"483 674 OFFCURVE",
"523 634 OFFCURVE",
"523 543 CURVE SMOOTH",
"523 506 OFFCURVE",
"515 478 OFFCURVE",
"507 461 CURVE",
"503 463 OFFCURVE",
"499 463 OFFCURVE",
"494 463 CURVE SMOOTH",
"471 463 OFFCURVE",
"451 444 OFFCURVE",
"451 420 CURVE SMOOTH",
"451 396 OFFCURVE",
"471 377 OFFCURVE",
"494 377 CURVE SMOOTH",
"546 377 OFFCURVE",
"583 464 OFFCURVE",
"583 543 CURVE SMOOTH",
"583 661 OFFCURVE",
"519 726 OFFCURVE",
"425 724 CURVE SMOOTH",
"368 723 OFFCURVE",
"332 698 OFFCURVE",
"304 657 CURVE",
"281 697 OFFCURVE",
"243 724 OFFCURVE",
"186 724 CURVE SMOOTH",
"81 724 OFFCURVE",
"30 631 OFFCURVE",
"30 544 CURVE"
);
},
{
closed = 1;
nodes = (
"237 202 LINE",
"361 202 LINE",
"362 201 LINE",
"362 201 OFFCURVE",
"356 150 OFFCURVE",
"347 104 CURVE SMOOTH",
"325 -6 OFFCURVE",
"289 -196 OFFCURVE",
"289 -196 CURVE SMOOTH",
"288 -196 OFFCURVE",
"289 -196 OFFCURVE",
"288 -196 CURVE",
"236 201 LINE"
);
}
);
};
backgroundImage = {
crop = "{{0, 0}, {10.818, 22.338}}";
imagePath = images/w.jpg;
locked = "1";
transform = "{59.771, 0, 0, 59.771, 12, -486}";
};
guideLines = (
{
angle = 90;
position = "{288, -358}";
}
);
layerId = "FD4E62BB-26D6-4FFD-A4F8-E1C01461A73C";
paths = (
{
closed = 1;
nodes = (
"44 445 OFFCURVE",
"133 379 OFFCURVE",
"173 216 CURVE",
"189 164 OFFCURVE",
"260 -325 OFFCURVE",
"264 -353 CURVE",
"266 -367 OFFCURVE",
"274 -377 OFFCURVE",
"288 -377 CURVE SMOOTH",
"302 -377 OFFCURVE",
"308 -367 OFFCURVE",
"312 -353 CURVE",
"317 -327 OFFCURVE",
"452 238 OFFCURVE",
"455 247 CURVE",
"481 247 LINE SMOOTH",
"507 247 OFFCURVE",
"513 261 OFFCURVE",
"513 273 CURVE SMOOTH",
"513 285 OFFCURVE",
"507 297 OFFCURVE",
"481 297 CURVE SMOOTH",
"214 297 LINE",
"213 298 LINE",
"188 381 OFFCURVE",
"107 457 OFFCURVE",
"100 564 CURVE",
"100 645 OFFCURVE",
"133 674 OFFCURVE",
"186 674 CURVE SMOOTH",
"242 674 OFFCURVE",
"270 629 OFFCURVE",
"272 543 CURVE SMOOTH",
"273 506 OFFCURVE",
"266 491 OFFCURVE",
"266 491 CURVE",
"250 454 OFFCURVE",
"276 427 OFFCURVE",
"301 427 CURVE SMOOTH",
"324 427 OFFCURVE",
"356 452 OFFCURVE",
"338 492 CURVE",
"338 492 OFFCURVE",
"333 506 OFFCURVE",
"332 543 CURVE SMOOTH",
"330 629 OFFCURVE",
"366 674 OFFCURVE",
"425 674 CURVE SMOOTH",
"483 674 OFFCURVE",
"523 629 OFFCURVE",
"523 568 CURVE SMOOTH",
"523 536 OFFCURVE",
"517 515 OFFCURVE",
"507 501 CURVE",
"487 511 OFFCURVE",
"451 492 OFFCURVE",
"451 460 CURVE SMOOTH",
"451 436 OFFCURVE",
"471 417 OFFCURVE",
"494 417 CURVE SMOOTH",
"546 417 OFFCURVE",
"583 509 OFFCURVE",
"583 568 CURVE SMOOTH",
"583 656 OFFCURVE",
"519 726 OFFCURVE",
"425 724 CURVE SMOOTH",
"368 723 OFFCURVE",
"330 697 OFFCURVE",
"301 656 CURVE",
"279 696 OFFCURVE",
"243 724 OFFCURVE",
"186 724 CURVE SMOOTH",
"81 724 OFFCURVE",
"40 651 OFFCURVE",
"40 564 CURVE SMOOTH"
);
},
{
closed = 1;
nodes = (
"235 247 LINE",
"394 247 LINE",
"395 246 LINE SMOOTH",
"397 244 OFFCURVE",
"294 -181 OFFCURVE",
"294 -180 CURVE SMOOTH",
"294 -179 OFFCURVE",
"294 -180 OFFCURVE",
"293 -180 CURVE",
"234 246 LINE"
);
}
);
width = 613;
},
{
associatedMasterId = "FD4E62BB-26D6-4FFD-A4F8-E1C01461A73C";
layerId = "49E06CB4-29BF-42A5-AD0B-A96DB57A9FE7";
name = "Regular Nov 30 16, 12:56";
paths = (
{
closed = 1;
nodes = (
"582 694 OFFCURVE",
"423 680 OFFCURVE",
"423 680 CURVE",
"371 680 OFFCURVE",
"337 656 OFFCURVE",
"316 622 CURVE",
"316 622 OFFCURVE",
"316 622 OFFCURVE",
"315 622 CURVE",
"295 656 OFFCURVE",
"254 680 OFFCURVE",
"207 680 CURVE",
"207 680 OFFCURVE",
"50 694 OFFCURVE",
"50 540 CURVE",
"50 537 OFFCURVE",
"50 533 OFFCURVE",
"50 530 CURVE",
"53 435 OFFCURVE",
"116 379 OFFCURVE",
"141 340 CURVE SMOOTH",
"156 317 OFFCURVE",
"174 285 OFFCURVE",
"184 249 CURVE SMOOTH",
"203 183 OFFCURVE",
"209 106 OFFCURVE",
"216 65 CURVE",
"273 -325 OFFCURVE",
"282 -352 OFFCURVE",
"282 -353 CURVE",
"284 -367 OFFCURVE",
"293 -377 OFFCURVE",
"307 -377 CURVE",
"321 -377 OFFCURVE",
"330 -366 OFFCURVE",
"332 -353 CURVE",
"346 -284 OFFCURVE",
"375 -114 OFFCURVE",
"420 99 CURVE",
"431 144 OFFCURVE",
"434 208 OFFCURVE",
"489 208 CURVE",
"505 208 OFFCURVE",
"521 215 OFFCURVE",
"521 233 CURVE",
"522 267 OFFCURVE",
"442 263 OFFCURVE",
"404 255 CURVE SMOOTH",
"378 250 OFFCURVE",
"245 252 OFFCURVE",
"245 252 CURVE",
"244 253 LINE",
"244 272 OFFCURVE",
"209 349 OFFCURVE",
"189 373 CURVE",
"163 414 OFFCURVE",
"109 455 OFFCURVE",
"109 537 CURVE",
"109 613 OFFCURVE",
"156 628 OFFCURVE",
"207 628 CURVE",
"207 628 OFFCURVE",
"283 617 OFFCURVE",
"286 533 CURVE",
"288 489 OFFCURVE",
"286 461 OFFCURVE",
"285 452 CURVE",
"278 444 OFFCURVE",
"273 434 OFFCURVE",
"273 422 CURVE",
"273 398 OFFCURVE",
"293 379 OFFCURVE",
"316 379 CURVE",
"340 379 OFFCURVE",
"359 398 OFFCURVE",
"359 422 CURVE",
"359 433 OFFCURVE",
"355 443 OFFCURVE",
"348 451 CURVE",
"347 459 OFFCURVE",
"344 488 OFFCURVE",
"346 534 CURVE",
"350 617 OFFCURVE",
"402 628 OFFCURVE",
"436 628 CURVE",
"469 628 OFFCURVE",
"523 613 OFFCURVE",
"523 537 CURVE",
"523 503 OFFCURVE",
"514 480 OFFCURVE",
"505 465 CURVE",
"501 466 OFFCURVE",
"498 466 OFFCURVE",
"494 466 CURVE",
"470 466 OFFCURVE",
"451 447 OFFCURVE",
"451 423 CURVE",
"451 399 OFFCURVE",
"470 380 OFFCURVE",
"494 380 CURVE",
"531 380 OFFCURVE",
"579 425 OFFCURVE",
"582 530 CURVE",
"582 533 OFFCURVE",
"582 537 OFFCURVE",
"582 540 CURVE"
);
},
{
closed = 1;
nodes = (
"370 199 LINE",
"370 199 OFFCURVE",
"386 200 OFFCURVE",
"381 182 CURVE",
"381 182 OFFCURVE",
"307 -194 OFFCURVE",
"307 -196 CURVE",
"305 -196 OFFCURVE",
"309 -196 OFFCURVE",
"306 -196 CURVE",
"306 -195 OFFCURVE",
"260 186 OFFCURVE",
"257 198 CURVE",
"258 199 LINE"
);
}
);
width = 632;
},
{
associatedMasterId = "FD4E62BB-26D6-4FFD-A4F8-E1C01461A73C";
layerId = "00B909D4-2675-47F6-B80C-F3E4F4C7F44A";
name = "Regular Nov 30 16, 12:59";
paths = (
{
closed = 1;
nodes = (
"179 266 LINE",
"181 260 OFFCURVE",
"182 255 OFFCURVE",
"184 249 CURVE SMOOTH",
"203 183 OFFCURVE",
"209 106 OFFCURVE",
"216 65 CURVE",
"273 -325 OFFCURVE",
"282 -352 OFFCURVE",
"282 -353 CURVE",
"284 -367 OFFCURVE",
"293 -377 OFFCURVE",
"307 -377 CURVE",
"321 -377 OFFCURVE",
"330 -366 OFFCURVE",
"332 -353 CURVE",
"346 -284 OFFCURVE",
"375 -114 OFFCURVE",
"420 99 CURVE",
"431 144 OFFCURVE",
"434 208 OFFCURVE",
"489 208 CURVE",
"505 208 OFFCURVE",
"521 215 OFFCURVE",
"521 233 CURVE",
"522 267 OFFCURVE",
"442 263 OFFCURVE",
"404 255 CURVE SMOOTH",
"378 250 OFFCURVE",
"245 252 OFFCURVE",
"245 252 CURVE",
"244 253 LINE",
"244 259 OFFCURVE",
"241 269 OFFCURVE",
"236 283 CURVE"
);
},
{
closed = 1;
nodes = (
"370 199 LINE",
"370 199 OFFCURVE",
"386 200 OFFCURVE",
"381 182 CURVE",
"381 182 OFFCURVE",
"307 -194 OFFCURVE",
"307 -196 CURVE",
"305 -196 OFFCURVE",
"309 -196 OFFCURVE",
"306 -196 CURVE",
"306 -195 OFFCURVE",
"260 186 OFFCURVE",
"257 198 CURVE",
"258 199 LINE"
);
},
{
closed = 1;
nodes = (
"203 675 LINE",
"203 675 OFFCURVE",
"203 675 OFFCURVE",
"203 675 CURVE SMOOTH",
"261 675 OFFCURVE",
"307 635 OFFCURVE",
"307 544 CURVE SMOOTH",
"307 507 OFFCURVE",
"299 479 OFFCURVE",
"291 462 CURVE",
"287 464 OFFCURVE",
"283 464 OFFCURVE",
"278 464 CURVE SMOOTH",
"255 464 OFFCURVE",
"235 445 OFFCURVE",
"235 421 CURVE SMOOTH",
"235 397 OFFCURVE",
"255 378 OFFCURVE",
"278 378 CURVE SMOOTH",
"330 378 OFFCURVE",
"367 465 OFFCURVE",
"367 544 CURVE",
"367 662 OFFCURVE",
"297 727 OFFCURVE",
"203 725 CURVE SMOOTH",
"203 725 OFFCURVE",
"203 725 OFFCURVE",
"203 725 CURVE"
);
},
{
closed = 1;
nodes = (
"353 617 LINE",
"370 656 OFFCURVE",
"403 675 OFFCURVE",
"442 675 CURVE SMOOTH",
"500 675 OFFCURVE",
"546 635 OFFCURVE",
"546 544 CURVE SMOOTH",
"546 507 OFFCURVE",
"538 479 OFFCURVE",
"530 462 CURVE",
"526 464 OFFCURVE",
"522 464 OFFCURVE",
"517 464 CURVE SMOOTH",
"494 464 OFFCURVE",
"474 445 OFFCURVE",
"474 421 CURVE SMOOTH",
"474 397 OFFCURVE",
"494 378 OFFCURVE",
"517 378 CURVE SMOOTH",
"569 378 OFFCURVE",
"606 465 OFFCURVE",
"606 544 CURVE",
"606 662 OFFCURVE",
"536 727 OFFCURVE",
"442 725 CURVE SMOOTH",
"386 724 OFFCURVE",
"341 700 OFFCURVE",
"313 661 CURVE"
);
},
{
closed = 1;
nodes = (
"49 544 LINE",
"49 543 OFFCURVE",
"49 541 OFFCURVE",
"49 540 CURVE",
"52 445 OFFCURVE",
"116 379 OFFCURVE",
"141 340 CURVE SMOOTH",
"154 321 OFFCURVE",
"168 295 OFFCURVE",
"179 266 CURVE",
"236 283 LINE",
"224 313 OFFCURVE",
"203 356 OFFCURVE",
"189 373 CURVE",
"163 414 OFFCURVE",
"110 464 OFFCURVE",
"109 544 CURVE"
);
},
{
closed = 1;
nodes = (
"109 543 LINE",
"109 544 OFFCURVE",
"109 544 OFFCURVE",
"109 544 CURVE SMOOTH",
"109 620 OFFCURVE",
"150 674 OFFCURVE",
"203 675 CURVE",
"203 725 LINE",
"98 724 OFFCURVE",
"49 635 OFFCURVE",
"49 544 CURVE SMOOTH",
"49 544 OFFCURVE",
"49 544 OFFCURVE",
"49 543 CURVE"
);
}
);
width = 632;
},
{
associatedMasterId = "FD4E62BB-26D6-4FFD-A4F8-E1C01461A73C";
guideLines = (
{
angle = 90;
position = "{288, -358}";
}
);
layerId = "87B96F22-F570-4ADB-AA90-EFD0C276C80D";
name = "Regular Feb 10 17, 10:08";
paths = (
{
closed = 1;
nodes = (
"159 266 LINE",
"175 236 OFFCURVE",
"258 -326 OFFCURVE",
"258 -353 CURVE",
"260 -367 OFFCURVE",
"274 -377 OFFCURVE",
"288 -377 CURVE",
"302 -377 OFFCURVE",
"314 -367 OFFCURVE",
"318 -353 CURVE",
"324 -322 OFFCURVE",
"335 -272 OFFCURVE",
"348 -206 CURVE SMOOTH",
"367 -115 OFFCURVE",
"414 155 OFFCURVE",
"431 202 CURVE",
"443 202 OFFCURVE",
"440 202 OFFCURVE",
"459 202 CURVE SMOOTH",
"485 202 OFFCURVE",
"493 216 OFFCURVE",
"493 228 CURVE",
"493 240 OFFCURVE",
"485 252 OFFCURVE",
"459 252 CURVE SMOOTH",
"399 252 OFFCURVE",
"311 252 OFFCURVE",
"226 252 CURVE",
"225 253 LINE",
"223 263 OFFCURVE",
"220 274 OFFCURVE",
"216 283 CURVE"
);
},
{
closed = 1;
nodes = (
"361 202 LINE",
"361 202 OFFCURVE",
"361 202 OFFCURVE",
"362 201 CURVE SMOOTH",
"362 201 OFFCURVE",
"356 150 OFFCURVE",
"347 104 CURVE SMOOTH",
"325 -6 OFFCURVE",
"289 -196 OFFCURVE",
"289 -196 CURVE",
"288 -196 OFFCURVE",
"289 -196 OFFCURVE",
"288 -196 CURVE",
"288 -196 OFFCURVE",
"237 195 OFFCURVE",
"236 201 CURVE",
"237 202 LINE"
);
},
{
closed = 1;
nodes = (
"30 544 LINE",
"30 543 OFFCURVE",
"30 545 OFFCURVE",
"30 544 CURVE",
"34 425 OFFCURVE",
"119 371 OFFCURVE",
"159 266 CURVE",
"216 283 LINE",
"154 440 OFFCURVE",
"97 437 OFFCURVE",
"90 544 CURVE"
);
},
{
closed = 1;
nodes = (
"90 544 LINE",
"90 545 OFFCURVE",
"90 542 OFFCURVE",
"90 543 CURVE SMOOTH",
"90 625 OFFCURVE",
"133 674 OFFCURVE",
"186 674 CURVE SMOOTH",
"242 674 OFFCURVE",
"271 629 OFFCURVE",
"272 543 CURVE SMOOTH",
"273 456 OFFCURVE",
"263 441 OFFCURVE",
"263 441 CURVE",
"260 434 OFFCURVE",
"258 427 OFFCURVE",
"258 420 CURVE SMOOTH",
"258 396 OFFCURVE",
"277 377 OFFCURVE",
"301 377 CURVE SMOOTH",
"325 377 OFFCURVE",
"344 396 OFFCURVE",
"344 420 CURVE SMOOTH",
"344 428 OFFCURVE",
"342 436 OFFCURVE",
"338 442 CURVE",
"338 442 OFFCURVE",
"333 459 OFFCURVE",
"332 543 CURVE SMOOTH",
"331 629 OFFCURVE",
"366 674 OFFCURVE",
"425 674 CURVE SMOOTH",
"483 674 OFFCURVE",
"523 634 OFFCURVE",
"523 543 CURVE SMOOTH",
"523 506 OFFCURVE",
"515 478 OFFCURVE",
"507 461 CURVE",
"503 463 OFFCURVE",
"499 463 OFFCURVE",
"494 463 CURVE SMOOTH",
"471 463 OFFCURVE",
"451 444 OFFCURVE",
"451 420 CURVE SMOOTH",
"451 396 OFFCURVE",
"471 377 OFFCURVE",
"494 377 CURVE SMOOTH",
"546 377 OFFCURVE",
"583 464 OFFCURVE",
"583 543 CURVE",
"583 661 OFFCURVE",
"519 726 OFFCURVE",
"425 724 CURVE SMOOTH",
"368 723 OFFCURVE",
"332 698 OFFCURVE",
"304 657 CURVE",
"281 697 OFFCURVE",
"243 724 OFFCURVE",
"186 724 CURVE SMOOTH",
"81 724 OFFCURVE",
"30 630 OFFCURVE",
"30 543 CURVE SMOOTH",
"30 542 OFFCURVE",
"30 545 OFFCURVE",
"30 544 CURVE"
);
}
);
width = 613;
}
);
unicode = 10EC;
},
{
color = 3;
glyphname = "char-georgian";
lastChange = "2017-03-20 10:53:57 +0000";
layers = (
{
background = {
paths = (
{
closed = 1;
nodes = (
"490 304 OFFCURVE",
"488 326 OFFCURVE",
"471 333 CURVE SMOOTH",
"449 342 OFFCURVE",
"436 331 OFFCURVE",
"425 302 CURVE SMOOTH",
"404 247 OFFCURVE",
"361 189 OFFCURVE",
"341 167 CURVE SMOOTH",
"341 167 OFFCURVE",
"340 167 OFFCURVE",
"340 167 CURVE",
"283 186 LINE",
"283 186 OFFCURVE",
"282 187 OFFCURVE",
"282 187 CURVE SMOOTH",
"282 199 OFFCURVE",
"280 269 OFFCURVE",
"284 370 CURVE",
"284 432 OFFCURVE",
"268 463 OFFCURVE",
"242 475 CURVE SMOOTH",
"179 503 OFFCURVE",
"153 514 OFFCURVE",
"147 562 CURVE",
"143 597 OFFCURVE",
"163 613 OFFCURVE",
"179 619 CURVE",
"216 633 OFFCURVE",
"244 613 OFFCURVE",
"244 613 CURVE",
"244 613 LINE",
"251 600 OFFCURVE",
"265 591 OFFCURVE",
"281 591 CURVE",
"305 591 OFFCURVE",
"324 611 OFFCURVE",
"324 634 CURVE",
"324 658 OFFCURVE",
"305 678 OFFCURVE",
"281 678 CURVE",
"270 678 OFFCURVE",
"260 673 OFFCURVE",
"252 666 CURVE",
"145 707 OFFCURVE",
"82 608 OFFCURVE",
"87 555 CURVE",
"98 434 OFFCURVE",
"224 465 OFFCURVE",
"224 396 CURVE",
"224 352 OFFCURVE",
"221 297 OFFCURVE",
"221 195 CURVE",
"220 194 OFFCURVE",
"221 195 OFFCURVE",
"220 194 CURVE",
"103 198 OFFCURVE",
"30 148 OFFCURVE",
"30 81 CURVE",
"30 -43 OFFCURVE",
"253 -39 OFFCURVE",
"353 87 CURVE",
"354 87 OFFCURVE",
"353 87 OFFCURVE",
"354 87 CURVE",
"502 -72 OFFCURVE",
"424 -317 OFFCURVE",
"234 -326 CURVE",
"174 -326 OFFCURVE",
"119 -308 OFFCURVE",
"108 -242 CURVE SMOOTH",
"104 -217 OFFCURVE",
"114 -184 OFFCURVE",
"135 -174 CURVE",
"142 -180 OFFCURVE",
"151 -184 OFFCURVE",
"162 -184 CURVE",
"185 -184 OFFCURVE",
"205 -164 OFFCURVE",
"205 -140 CURVE",
"205 -129 OFFCURVE",
"200 -119 OFFCURVE",
"193 -111 CURVE",
"174 -89 OFFCURVE",
"129 -87 OFFCURVE",
"81 -141 CURVE",
"-1 -257 OFFCURVE",
"95 -388 OFFCURVE",
"239 -376 CURVE",
"330 -371 OFFCURVE",
"388 -334 OFFCURVE",
"412 -306 CURVE",
"528 -180 OFFCURVE",
"514 17 OFFCURVE",
"391 135 CURVE",
"391 135 OFFCURVE",
"391 136 OFFCURVE",
"391 136 CURVE SMOOTH",
"426 176 OFFCURVE",
"468 239 OFFCURVE",
"485 289 CURVE SMOOTH"
);
},
{
closed = 1;
nodes = (
"259 48 OFFCURVE",
"95 5 OFFCURVE",
"90 81 CURVE SMOOTH",
"88 106 OFFCURVE",
"106 134 OFFCURVE",
"175 140 CURVE",
"210 143 OFFCURVE",
"275 133 OFFCURVE",
"306 119 CURVE",
"306 118 OFFCURVE",
"306 118 OFFCURVE",
"306 118 CURVE"
);
}
);
};
backgroundImage = {
crop = "{{0, 0}, {16.416, 24}}";
imagePath = images/Wan.jpg;
transform = "{57.603, 0, 0, 57.603, -261, -552}";
};
layerId = "FD4E62BB-26D6-4FFD-A4F8-E1C01461A73C";
paths = (
{
closed = 1;
nodes = (
"490 304 OFFCURVE",
"488 326 OFFCURVE",
"471 333 CURVE SMOOTH",
"449 342 OFFCURVE",
"436 331 OFFCURVE",
"425 302 CURVE SMOOTH",
"404 247 OFFCURVE",
"361 189 OFFCURVE",
"341 167 CURVE SMOOTH",
"341 167 OFFCURVE",
"340 167 OFFCURVE",
"340 167 CURVE",
"283 186 LINE",
"283 186 OFFCURVE",
"282 187 OFFCURVE",
"282 187 CURVE SMOOTH",
"282 199 OFFCURVE",
"284 269 OFFCURVE",
"284 370 CURVE",
"284 526 OFFCURVE",
"160 465 OFFCURVE",
"147 562 CURVE",
"142 633 OFFCURVE",
"220 632 OFFCURVE",
"244 613 CURVE",
"269 572 OFFCURVE",
"324 593 OFFCURVE",
"324 634 CURVE",
"324 669 OFFCURVE",
"284 694 OFFCURVE",
"252 666 CURVE",
"145 707 OFFCURVE",
"81 613 OFFCURVE",
"87 555 CURVE",
"98 434 OFFCURVE",
"224 465 OFFCURVE",
"224 396 CURVE",
"224 352 OFFCURVE",
"224 297 OFFCURVE",
"221 195 CURVE",
"220 194 OFFCURVE",
"221 195 OFFCURVE",
"220 194 CURVE",
"103 198 OFFCURVE",
"30 148 OFFCURVE",
"30 81 CURVE",
"30 -43 OFFCURVE",
"253 -39 OFFCURVE",
"353 87 CURVE",
"354 87 OFFCURVE",
"353 87 OFFCURVE",
"354 87 CURVE",
"502 -72 OFFCURVE",
"424 -317 OFFCURVE",
"234 -326 CURVE",
"133 -336 OFFCURVE",
"63 -230 OFFCURVE",
"135 -174 CURVE",
"163 -198 OFFCURVE",
"205 -177 OFFCURVE",
"205 -140 CURVE",
"205 -82 OFFCURVE",
"125 -85 OFFCURVE",
"81 -141 CURVE",
"-1 -257 OFFCURVE",
"92 -385 OFFCURVE",
"239 -376 CURVE",
"330 -371 OFFCURVE",
"388 -334 OFFCURVE",
"412 -306 CURVE",
"528 -180 OFFCURVE",
"514 17 OFFCURVE",
"391 135 CURVE",
"391 135 OFFCURVE",
"391 136 OFFCURVE",
"391 136 CURVE SMOOTH",
"426 176 OFFCURVE",
"468 239 OFFCURVE",
"485 289 CURVE SMOOTH"
);
},
{
closed = 1;
nodes = (
"259 48 OFFCURVE",
"95 5 OFFCURVE",
"90 81 CURVE SMOOTH",
"84 155 OFFCURVE",
"238 150 OFFCURVE",
"306 119 CURVE",
"306 118 OFFCURVE",
"306 118 OFFCURVE",
"306 118 CURVE"
);
}
);
width = 527;
}
);
unicode = 10ED;
},
